<?xml version="1.0" encoding="UTF-8" standalone="no"?>
<svg
   xmlns:dc="http://purl.org/dc/elements/1.1/"
   xmlns:cc="http://creativecommons.org/ns#"
   xmlns:rdf="http://www.w3.org/1999/02/22-rdf-syntax-ns#"
   xmlns:svg="http://www.w3.org/2000/svg"
   xmlns="http://www.w3.org/2000/svg"
   viewBox="0 0 666.66669 666.66669"
   height="666.66669"
   width="666.66669"
   xml:space="preserve"
   id="svg1978"
   version="1.1"><metadata
     id="metadata1984"><rdf:RDF><cc:Work
         rdf:about=""><dc:format>image/svg+xml</dc:format><dc:type
           rdf:resource="http://purl.org/dc/dcmitype/StillImage" /><dc:title></dc:title></cc:Work></rdf:RDF></metadata><defs
     id="defs1982"><clipPath
       id="clipPath1998"
       clipPathUnits="userSpaceOnUse"><path
         id="path1996"
         d="M 0,500 H 500 V 0 H 0 Z" /></clipPath><clipPath
       id="clipPath2046"
       clipPathUnits="userSpaceOnUse"><path
         id="path2044"
         d="m 114.203,133.981 h 277.464 v -31.44 H 114.203 Z" /></clipPath><clipPath
       id="clipPath2066"
       clipPathUnits="userSpaceOnUse"><path
         id="path2064"
         d="m 143.691,360.148 c -2.287,-0.087 -4.645,-0.408 -6.599,-1.602 v 0 c -15.775,-9.63 14.879,-22.769 20.171,-26.887 v 0 c 0.31,-0.242 0.616,-0.489 0.917,-0.741 v 0 c 14.62,-12.286 11.164,-33.383 14.519,-50.193 v 0 c 2.897,-14.516 17.189,-27.362 31.29,-30.832 v 0 c 6.447,-1.587 15.224,-0.862 20.909,2.733 v 0 c 3.029,1.915 5.312,5.387 5.47,8.838 v 0 c 0.055,1.233 -0.161,2.463 -0.71,3.619 v 0 c -2.113,4.436 -7.684,5.682 -12.442,6.904 v 0 c -6.495,1.669 -12.822,4.287 -18.159,8.349 v 0 c -6.396,4.866 -10.904,11.731 -12.448,19.647 v 0 c -2.462,12.61 -1.155,25.605 -7.056,37.484 v 0 c -6.764,13.617 -19.03,22.71 -34.376,22.709 v 0 c -0.491,0 -0.988,-0.01 -1.486,-0.028" /></clipPath><clipPath
       id="clipPath2090"
       clipPathUnits="userSpaceOnUse"><path
         id="path2088"
         d="m 171.6,286.881 h 37.099 V 255.536 H 171.6 Z" /></clipPath><clipPath
       id="clipPath2106"
       clipPathUnits="userSpaceOnUse"><path
         id="path2104"
         d="M 0,500 H 500 V 0 H 0 Z" /></clipPath><clipPath
       id="clipPath2122"
       clipPathUnits="userSpaceOnUse"><path
         id="path2120"
         d="m 333.708,310.574 c -2.613,-3.028 -3.774,-7.004 -5.541,-10.592 v 0 c -5.02,-10.197 -13.983,-15.377 -24.543,-18.041 v 0 c -5.832,-1.47 -11.831,-1.465 -17.181,-4.481 v 0 c -5.253,-2.961 -7.565,-9.316 -8.427,-15.285 v 0 c -0.692,-4.792 2.877,-6.106 7.036,-7.489 v 0 c 1.911,-0.636 4.326,-1.915 6.201,-2.213 v 0 c 10.613,-1.691 23.128,-0.924 32.869,3.965 v 0 c 6.355,3.189 12.372,8.286 17.666,12.687 v 0 c 9.531,7.925 21.359,18.765 20.033,32.339 v 0 c -0.408,4.165 -2.026,8.375 -5.227,11.071 v 0 c -2.534,2.135 -5.871,3.158 -9.179,3.343 v 0 c -0.354,0.02 -0.71,0.03 -1.066,0.03 v 0 c -4.736,0 -9.558,-1.761 -12.641,-5.334" /></clipPath><clipPath
       id="clipPath2130"
       clipPathUnits="userSpaceOnUse"><path
         id="path2128"
         d="m 266.799,285.869 h 46.983 v -48.603 h -46.983 z" /></clipPath><clipPath
       id="clipPath2146"
       clipPathUnits="userSpaceOnUse"><path
         id="path2144"
         d="M 0,500 H 500 V 0 H 0 Z" /></clipPath><clipPath
       id="clipPath2158"
       clipPathUnits="userSpaceOnUse"><path
         id="path2156"
         d="m 224.941,295.273 c -3.891,-2.51 -7.425,-5.378 -10.558,-8.516 v 0 c -11.834,-11.85 -17.116,-26.66 -20.169,-41.493 v 0 c -2.843,-13.808 -2.794,-31.009 7.988,-42.71 v 0 c 10.179,-11.047 28.663,-14.982 44.794,-15.802 v 0 c 0.599,-0.03 1.201,-0.056 1.804,-0.075 v 0 c 15.21,-0.497 31.359,2.491 42.121,11.828 v 0 c 8.429,7.311 13.726,16.796 15.889,26.636 v 0 c 3.767,17.145 -3.442,33.919 -11.861,49.385 v 0 c -8.505,15.625 -26.414,28.095 -45.626,28.093 v 0 c -8.098,-0.001 -16.43,-2.217 -24.382,-7.346" /></clipPath><clipPath
       id="clipPath2182"
       clipPathUnits="userSpaceOnUse"><path
         id="path2180"
         d="M 0,500 H 500 V 0 H 0 Z" /></clipPath><clipPath
       id="clipPath2202"
       clipPathUnits="userSpaceOnUse"><path
         id="path2200"
         d="m 289.906,380.11 h 36.577 v -15.093 h -36.577 z" /></clipPath><clipPath
       id="clipPath2226"
       clipPathUnits="userSpaceOnUse"><path
         id="path2224"
         d="m 203.426,400.575 h 32.194 v -25.42 h -32.194 z" /></clipPath><clipPath
       id="clipPath2246"
       clipPathUnits="userSpaceOnUse"><path
         id="path2244"
         d="M 232.326,381.355 C 210.137,375.1 198.05,353.332 194.065,332.494 v 0 c -1.465,-7.658 -3.268,-16.988 0.657,-24.155 v 0 c 4.084,-7.456 10.406,-13.649 17.618,-18.283 v 0 c 9.089,-5.84 19.555,-9.34 30.14,-11.72 v 0 c 10.332,-2.325 21,-3.639 31.512,-2.556 v 0 c 7.465,0.768 14.844,2.792 21.416,6.317 v 0 c 6.659,3.572 10.936,8.693 13.83,15.564 v 0 c 1.648,3.909 2.834,8.051 3.662,12.298 v 0 c 1.603,8.229 1.859,16.857 1.501,24.976 v 0 c -0.269,6.06 -1.399,12.165 -3.87,17.779 v 0 c -2.519,5.716 -6.29,9.663 -11.222,13.562 v 0 c -10.008,7.91 -22.092,13.3 -34.659,15.831 v 0 c -4.953,0.998 -10.035,1.534 -15.087,1.534 v 0 c -5.865,0 -11.692,-0.723 -17.237,-2.286" /></clipPath><clipPath
       id="clipPath2266"
       clipPathUnits="userSpaceOnUse"><path
         id="path2264"
         d="M 0,500 H 500 V 0 H 0 Z" /></clipPath><clipPath
       id="clipPath2294"
       clipPathUnits="userSpaceOnUse"><path
         id="path2292"
         d="M 244.476,318.52 H 261.35 V 307.628 H 244.476 Z" /></clipPath></defs><g
     transform="matrix(1.3333333,0,0,-1.3333333,0,666.66667)"
     id="g1986"><path
       id="path1988"
       style="fill:#bddfb2;fill-opacity:1;fill-rule:nonzero;stroke:none"
       d="M 0,0 H 500 V 500 H 0 Z" /><path
       id="path1990"
       style="fill:#fefefe;fill-opacity:1;fill-rule:nonzero;stroke:none"
       d="M 0,0 H 500 V 138.333 H 0 Z" /><g
       id="g1992"><g
         clip-path="url(#clipPath1998)"
         id="g1994"><g
           transform="translate(119.1416,78.6338)"
           id="g2000"><path
             id="path2002"
             style="fill:#a5d289;fill-opacity:1;fill-rule:nonzero;stroke:none"
             d="m 0,0 c -0.227,-1.085 -0.028,-1.961 0.599,-2.625 0.627,-0.666 1.447,-1.179 2.459,-1.536 1.01,-0.359 2.095,-0.637 3.25,-0.835 1.155,-0.198 2.148,-0.375 2.976,-0.535 0.226,1.176 0.272,2.486 0.141,3.93 C 9.293,-0.156 9.057,1.301 8.716,2.771 8.376,4.241 7.995,5.684 7.573,7.096 7.15,8.509 6.759,9.785 6.4,10.929 6.005,10.672 5.533,10.148 4.982,9.36 4.43,8.571 3.856,7.68 3.259,6.687 2.661,5.693 2.104,4.716 1.589,3.753 1.073,2.789 0.671,2.001 0.385,1.388 0.367,1.3 0.304,1.076 0.197,0.716 0.09,0.355 0.024,0.116 0,0 m 4.305,15.255 c 0.287,0.491 0.61,0.746 0.97,0.764 0.359,0.017 0.762,-0.02 1.206,-0.111 0.683,-0.138 1.356,-0.741 2.025,-1.806 0.668,-1.067 1.303,-2.436 1.908,-4.111 0.605,-1.675 1.18,-3.57 1.73,-5.688 0.549,-2.117 1.065,-4.295 1.546,-6.533 0.482,-2.238 0.92,-4.459 1.312,-6.662 0.393,-2.203 0.724,-4.218 0.99,-6.046 0.264,-1.828 0.444,-3.405 0.531,-4.727 0.087,-1.323 0.091,-2.222 0.008,-2.693 -0.084,-0.472 -0.281,-0.902 -0.594,-1.287 -0.312,-0.385 -0.769,-0.525 -1.367,-0.417 -0.379,0.068 -0.683,0.237 -0.91,0.506 -0.228,0.27 -0.407,0.583 -0.536,0.943 -0.13,0.358 -0.244,0.714 -0.341,1.066 -0.098,0.353 -0.208,0.669 -0.27,0.918 -0.082,0.322 -0.212,1.014 -0.434,1.998 -0.222,0.985 -0.451,2.017 -0.684,3.097 -0.233,1.079 -0.452,2.096 -0.658,3.049 -0.205,0.953 -0.348,1.635 -0.43,2.047 -2.096,0.764 -4.199,1.517 -6.309,2.26 -2.11,0.743 -4.333,1.513 -6.667,2.313 -0.203,0.042 -0.304,0.063 -0.507,0.106 -2.069,-4.306 -3.827,-7.68 -5.256,-10.129 -1.429,-2.447 -2.563,-4.162 -3.389,-5.144 -0.827,-0.984 -1.386,-1.343 -1.675,-1.079 -0.288,0.264 -0.358,0.985 -0.211,2.164 0.148,1.178 0.509,2.717 1.081,4.615 0.571,1.897 1.309,3.965 2.212,6.203 0.902,2.239 1.91,4.569 3.019,6.993 1.109,2.424 2.307,4.738 3.591,6.941 1.284,2.204 2.614,4.222 3.989,6.059 1.375,1.835 2.747,3.3 4.12,4.391" /></g><g
           transform="translate(141.8574,56.667)"
           id="g2004"><path
             id="path2006"
             style="fill:#a5d289;fill-opacity:1;fill-rule:nonzero;stroke:none"
             d="m 0,0 c -0.08,-0.473 -0.033,-0.876 0.137,-1.207 0.171,-0.332 0.413,-0.631 0.725,-0.896 0.312,-0.263 0.659,-0.465 1.041,-0.604 0.382,-0.138 0.763,-0.238 1.142,-0.301 1.104,-0.179 2.328,-0.171 3.668,0.029 1.341,0.198 2.61,0.578 3.807,1.139 1.195,0.561 2.221,1.293 3.076,2.196 0.854,0.904 1.365,1.95 1.538,3.135 0.135,0.918 0.055,1.58 -0.234,1.987 C 14.609,5.884 13.982,6.157 13.019,6.302 12.022,6.45 10.832,6.404 9.441,6.165 8.049,5.927 6.68,5.536 5.33,4.996 3.979,4.455 2.8,3.761 1.791,2.912 0.782,2.062 0.184,1.092 0,0 m -4.26,-0.229 c 0.298,1.711 1.017,3.152 2.152,4.324 1.134,1.173 2.452,2.139 3.955,2.906 1.501,0.767 3.081,1.372 4.743,1.819 1.66,0.447 3.189,0.798 4.59,1.054 1.4,0.255 2.568,0.458 3.507,0.607 0.937,0.149 1.418,0.313 1.444,0.492 0.152,1.036 0.246,2.059 0.284,3.068 0.038,1.007 0.069,2.025 0.095,3.051 0.026,1.023 0.058,2.042 0.098,3.05 0.039,1.007 0.132,2.001 0.276,2.979 0.171,1.155 0.256,1.733 0.427,2.888 1.302,0.262 2.176,0.091 2.628,-0.519 0.452,-0.609 0.405,-1.54 -0.145,-2.792 0.027,-0.67 0.049,-1.718 0.064,-3.14 0.015,-1.424 0.029,-3.03 0.043,-4.816 0.014,-1.786 0.033,-3.665 0.057,-5.633 0.025,-1.968 0.048,-3.855 0.069,-5.656 0.02,-1.802 0.032,-3.405 0.031,-4.811 -0.001,-1.406 -0.001,-2.456 0.001,-3.152 0.01,-0.153 0.003,-0.447 -0.024,-0.881 -0.027,-0.433 -0.066,-0.897 -0.117,-1.389 -0.051,-0.491 -0.097,-0.948 -0.138,-1.364 -0.041,-0.418 -0.073,-0.715 -0.097,-0.893 -1.21,0.165 -2.022,0.324 -2.438,0.473 -0.417,0.149 -0.662,0.366 -0.736,0.648 -0.074,0.282 -0.074,0.675 -0.003,1.18 0.072,0.504 0.011,1.223 -0.178,2.158 C 15.036,-5.272 13.825,-5.822 12.696,-6.23 11.568,-6.64 10.453,-6.935 9.354,-7.115 8.255,-7.297 7.162,-7.37 6.078,-7.336 c -1.085,0.034 -2.231,0.149 -3.437,0.344 -1.016,0.165 -1.979,0.407 -2.887,0.725 -0.908,0.318 -1.692,0.747 -2.349,1.285 -0.657,0.537 -1.146,1.199 -1.465,1.983 -0.32,0.785 -0.385,1.709 -0.2,2.77" /></g><g
           transform="translate(169.4644,55.0615)"
           id="g2008"><path
             id="path2010"
             style="fill:#a5d289;fill-opacity:1;fill-rule:nonzero;stroke:none"
             d="m 0,0 c -0.097,-0.772 -0.112,-1.457 -0.042,-2.055 0.068,-0.596 0.259,-1.127 0.57,-1.588 0.312,-0.461 0.755,-0.84 1.33,-1.137 0.574,-0.296 1.305,-0.498 2.193,-0.604 1.172,-0.139 2.382,0.029 3.623,0.505 1.24,0.477 2.378,1.135 3.412,1.971 1.033,0.837 1.892,1.791 2.578,2.864 0.685,1.071 1.081,2.145 1.193,3.217 0.049,0.475 0.057,1.002 0.022,1.578 -0.034,0.575 -0.136,1.114 -0.303,1.613 -0.167,0.498 -0.437,0.934 -0.805,1.305 -0.37,0.37 -0.864,0.59 -1.484,0.657 C 11.728,8.387 11.049,8.281 10.248,8.009 9.447,7.737 8.602,7.365 7.712,6.896 6.822,6.426 5.938,5.882 5.057,5.264 4.177,4.645 3.364,4.02 2.619,3.387 1.875,2.754 1.264,2.135 0.791,1.531 0.316,0.926 0.053,0.416 0,0 m -3.949,0.963 c 0.243,1.841 0.924,3.495 2.035,4.966 1.111,1.47 2.474,2.684 4.089,3.645 1.615,0.961 3.377,1.659 5.292,2.099 1.913,0.439 3.808,0.557 5.691,0.354 1.049,-0.114 1.948,-0.541 2.699,-1.28 0.751,-0.741 1.36,-1.608 1.824,-2.602 0.464,-0.996 0.793,-2.03 0.986,-3.101 C 18.861,3.972 18.92,3.047 18.844,2.272 18.681,0.603 18.099,-0.973 17.091,-2.451 16.083,-3.931 14.833,-5.204 13.343,-6.267 11.852,-7.33 10.204,-8.14 8.401,-8.69 6.599,-9.242 4.832,-9.414 3.111,-9.208 c -1.53,0.184 -2.791,0.589 -3.779,1.211 -0.989,0.622 -1.748,1.384 -2.276,2.282 -0.529,0.899 -0.87,1.926 -1.023,3.078 -0.155,1.154 -0.147,2.353 0.018,3.6" /></g><g
           transform="translate(194.415,59.9199)"
           id="g2012"><path
             id="path2014"
             style="fill:#a5d289;fill-opacity:1;fill-rule:nonzero;stroke:none"
             d="m 0,0 c -0.04,-0.447 -0.067,-1.099 -0.08,-1.954 -0.013,-0.856 0.045,-1.712 0.175,-2.564 0.13,-0.853 0.374,-1.605 0.729,-2.252 0.356,-0.646 0.898,-1.001 1.624,-1.063 0.978,-0.082 1.991,0.149 3.034,0.697 1.043,0.547 1.985,1.27 2.829,2.167 0.841,0.897 1.544,1.873 2.109,2.928 0.564,1.055 0.878,2.031 0.942,2.927 0.054,0.746 -0.09,1.349 -0.431,1.81 C 10.59,3.156 10.142,3.535 9.588,3.832 9.034,4.129 8.435,4.34 7.791,4.465 7.146,4.59 6.529,4.678 5.941,4.725 4.177,4.867 2.785,4.528 1.76,3.701 0.734,2.873 0.146,1.641 0,0 m -3.938,0.77 c -0.038,2.585 1.179,4.97 2.697,6.245 1.518,1.272 3.7,1.782 6.563,1.547 C 6.491,8.465 7.691,8.264 8.923,7.96 10.154,7.654 11.276,7.204 12.287,6.606 13.298,6.01 14.106,5.225 14.709,4.255 15.313,3.284 15.568,2.065 15.472,0.603 15.365,-1.012 14.898,-2.505 14.066,-3.874 13.233,-5.243 12.214,-6.51 11.006,-7.668 9.798,-8.828 8.479,-9.887 7.05,-10.842 c -1.429,-0.956 -2.773,-1.862 -4.029,-2.719 -0.074,-0.114 -0.149,-0.356 -0.229,-0.724 -0.078,-0.37 -0.123,-0.614 -0.133,-0.734 -0.082,-0.984 0.147,-2.002 0.689,-3.053 0.543,-1.051 1.143,-2.121 1.802,-3.21 0.659,-1.089 1.254,-2.208 1.785,-3.36 0.53,-1.151 0.753,-2.324 0.664,-3.519 -0.053,-0.717 -0.248,-1.13 -0.583,-1.239 -0.337,-0.111 -1.234,-0.261 -2.068,-0.044 -0.556,0.144 -1.231,0.901 -1.793,1.832 -0.562,0.932 -1.105,2.067 -1.628,3.402 -0.523,1.337 -1.013,2.829 -1.468,4.476 -0.457,1.648 -0.873,3.323 -1.252,5.025 -0.378,1.703 -0.723,3.388 -1.033,5.055 -0.31,1.667 -0.573,3.204 -0.792,4.607 -0.217,1.402 -0.412,2.617 -0.583,3.642 -0.17,1.022 -0.331,1.792 -0.337,2.175" /></g><g
           transform="translate(211.9097,65.0732)"
           id="g2016"><path
             id="path2018"
             style="fill:#a5d289;fill-opacity:1;fill-rule:nonzero;stroke:none"
             d="M 0,0 C 0.006,0.09 0.027,0.162 0.061,0.221 0.064,0.28 0.085,0.354 0.121,0.442 0.253,0.584 0.451,0.766 0.714,0.99 0.975,1.214 1.137,1.324 1.199,1.32 4.92,1.091 6.782,0.989 10.505,0.813 c 0.016,0.329 -0.006,0.855 -0.064,1.578 -0.058,0.721 -0.105,1.518 -0.14,2.389 -0.035,0.87 -0.014,1.779 0.061,2.718 0.076,0.94 0.247,1.787 0.512,2.539 0.264,0.752 0.658,1.363 1.182,1.834 0.523,0.471 1.238,0.686 2.148,0.648 -0.128,-3.023 -0.018,-5.457 0.336,-7.298 0.353,-1.843 0.873,-3.274 1.561,-4.289 0.686,-1.016 1.491,-1.691 2.409,-2.022 0.918,-0.332 1.867,-0.491 2.844,-0.475 0.978,0.014 1.935,0.128 2.87,0.344 0.935,0.215 1.767,0.361 2.496,0.434 0.729,0.073 1.307,-0.006 1.737,-0.239 0.428,-0.234 0.636,-0.77 0.62,-1.608 -0.012,-0.628 -0.168,-1.075 -0.469,-1.339 -0.301,-0.263 -0.873,-0.462 -1.716,-0.592 -0.25,-0.025 -0.663,-0.069 -1.241,-0.129 -0.578,-0.062 -1.226,-0.113 -1.943,-0.153 -0.718,-0.041 -1.483,-0.087 -2.294,-0.136 -0.813,-0.05 -1.578,-0.093 -2.296,-0.128 -0.72,-0.036 -1.375,-0.05 -1.967,-0.043 -0.593,0.006 -1.029,0.016 -1.309,0.027 -0.006,-0.15 -0.032,-0.403 -0.076,-0.762 -0.046,-0.357 -0.071,-0.596 -0.075,-0.715 -0.052,-1.318 0.117,-2.607 0.51,-3.864 0.392,-1.259 0.826,-2.511 1.303,-3.757 0.477,-1.247 0.918,-2.49 1.321,-3.732 0.404,-1.241 0.585,-2.522 0.542,-3.838 -0.008,-0.24 -0.039,-0.486 -0.096,-0.738 -0.056,-0.254 -0.16,-0.475 -0.31,-0.664 -0.15,-0.191 -0.364,-0.333 -0.639,-0.428 -0.277,-0.096 -0.652,-0.061 -1.127,0.106 -1.206,0.342 -2.085,1.022 -2.636,2.033 -0.552,1.011 -0.941,2.203 -1.17,3.577 -0.229,1.373 -0.357,2.825 -0.387,4.355 -0.029,1.531 -0.118,2.966 -0.264,4.306 -0.146,1.339 -0.417,2.491 -0.811,3.453 -0.395,0.962 -1.069,1.568 -2.022,1.824 -3.564,0.963 -5.34,1.456 -8.88,2.466 C 0.901,-1.497 0.723,-1.357 0.491,-1.089 0.259,-0.82 0.116,-0.623 0.062,-0.499 0.035,-0.437 0.042,-0.34 0.03,-0.272 0.021,-0.222 -0.007,-0.12 0,0" /></g><g
           transform="translate(268.4287,50.9443)"
           id="g2020"><path
             id="path2022"
             style="fill:#a5d289;fill-opacity:1;fill-rule:nonzero;stroke:none"
             d="m 0,0 c 0.038,-1.706 0.406,-2.95 1.107,-3.727 0.702,-0.776 1.929,-1.143 3.678,-1.092 1.304,0.038 2.546,0.295 3.722,0.771 1.176,0.475 2.192,1.113 3.05,1.911 0.856,0.798 1.529,1.748 2.02,2.848 0.49,1.101 0.704,2.309 0.647,3.625 -0.024,0.539 -0.041,1.295 -0.053,2.268 -0.012,0.974 -0.116,1.936 -0.314,2.887 -0.197,0.949 -0.528,1.769 -0.992,2.453 -0.464,0.684 -1.13,1.009 -1.996,0.975 C 9.259,12.855 7.787,12.406 6.448,11.569 5.108,10.731 3.957,9.687 2.993,8.433 2.028,7.177 1.28,5.804 0.751,4.309 0.222,2.813 -0.031,1.377 0,0 M 16.515,-3.295 C 15.344,-4.13 14.333,-4.87 13.484,-5.521 12.634,-6.171 11.802,-6.722 10.988,-7.172 10.174,-7.623 9.299,-7.97 8.364,-8.211 7.428,-8.453 6.271,-8.596 4.896,-8.636 c -2.973,-0.088 -5.2,0.608 -6.663,2.062 -1.463,1.454 -2.212,3.651 -2.26,6.586 -0.019,1.137 0.119,2.323 0.413,3.556 0.292,1.233 0.733,2.461 1.319,3.686 0.586,1.225 1.286,2.392 2.101,3.503 0.814,1.111 1.735,2.099 2.765,2.967 1.029,0.865 2.127,1.564 3.299,2.096 1.171,0.532 2.479,0.884 3.741,0.871 2.123,-0.019 3.986,-0.581 5.29,-1.376 1.304,-0.794 2.317,-1.839 3.034,-3.137 0.717,-1.299 1.246,-2.756 1.58,-4.372 0.335,-1.618 0.619,-3.29 0.852,-5.016 0.234,-1.728 0.508,-3.453 0.822,-5.175 0.316,-1.722 0.863,-3.299 1.648,-4.723 -0.36,-1.01 -0.715,-1.727 -1.061,-2.151 -0.346,-0.424 -0.752,-0.512 -1.214,-0.266 -0.463,0.245 -1.017,0.877 -1.66,1.893 -0.643,1.017 -1.441,2.463 -2.387,4.337" /></g><g
           transform="translate(318.9619,60.5313)"
           id="g2024"><path
             id="path2026"
             style="fill:#a5d289;fill-opacity:1;fill-rule:nonzero;stroke:none"
             d="m 0,0 c 0.044,-0.447 0.139,-1.092 0.286,-1.936 0.147,-0.842 0.364,-1.672 0.651,-2.485 0.288,-0.813 0.667,-1.507 1.137,-2.075 0.471,-0.569 1.07,-0.817 1.795,-0.742 0.976,0.101 1.929,0.518 2.852,1.252 0.923,0.732 1.715,1.618 2.376,2.657 0.66,1.038 1.169,2.128 1.527,3.27 0.358,1.142 0.484,2.16 0.38,3.052 C 10.918,3.736 10.663,4.302 10.242,4.69 9.82,5.078 9.309,5.368 8.709,5.556 8.108,5.743 7.479,5.839 6.823,5.842 6.166,5.844 5.543,5.814 4.957,5.751 3.195,5.562 1.891,4.969 1.038,3.964 0.185,2.959 -0.163,1.639 0,0 m -4.013,0.021 c -0.52,2.532 0.231,5.102 1.484,6.637 1.253,1.535 3.302,2.443 6.16,2.746 1.168,0.124 2.385,0.151 3.652,0.082 1.269,-0.07 2.455,-0.302 3.562,-0.7 1.105,-0.397 2.048,-1.017 2.822,-1.858 0.775,-0.84 1.254,-1.99 1.433,-3.446 0.197,-1.605 0.016,-3.159 -0.546,-4.66 -0.564,-1.501 -1.33,-2.935 -2.302,-4.3 -0.972,-1.365 -2.07,-2.651 -3.297,-3.856 -1.226,-1.207 -2.378,-2.348 -3.453,-3.424 -0.051,-0.127 -0.08,-0.378 -0.089,-0.755 -0.009,-0.378 -0.007,-0.626 0.006,-0.745 0.103,-0.982 0.518,-1.939 1.248,-2.872 0.729,-0.931 1.519,-1.87 2.371,-2.816 0.851,-0.947 1.645,-1.935 2.382,-2.967 0.736,-1.031 1.175,-2.142 1.31,-3.333 0.083,-0.714 -0.033,-1.156 -0.341,-1.327 -0.311,-0.171 -1.164,-0.487 -2.025,-0.43 -0.574,0.038 -1.379,0.656 -2.105,1.466 -0.727,0.81 -1.473,1.824 -2.236,3.038 -0.763,1.216 -1.524,2.59 -2.279,4.123 -0.757,1.533 -1.478,3.102 -2.169,4.703 -0.689,1.602 -1.343,3.193 -1.959,4.773 -0.616,1.579 -1.162,3.04 -1.638,4.378 -0.476,1.336 -0.894,2.495 -1.253,3.468 -0.359,0.973 -0.661,1.7 -0.738,2.075" /></g><g
           transform="translate(342.0771,62.4629)"
           id="g2028"><path
             id="path2030"
             style="fill:#a5d289;fill-opacity:1;fill-rule:nonzero;stroke:none"
             d="m 0,0 c 0.14,-1.04 0.39,-1.776 0.75,-2.211 0.36,-0.434 1.119,-0.574 2.275,-0.414 0.812,0.113 1.588,0.365 2.329,0.759 0.739,0.391 1.392,0.887 1.958,1.484 0.564,0.596 0.983,1.263 1.254,2 C 8.838,2.354 8.913,3.123 8.795,3.923 8.729,4.367 8.621,4.82 8.474,5.283 8.327,5.744 8.099,6.158 7.794,6.521 7.487,6.885 7.124,7.165 6.703,7.36 6.282,7.556 5.764,7.608 5.148,7.521 4.226,7.388 3.416,7.068 2.718,6.562 2.019,6.057 1.45,5.448 1.014,4.739 0.575,4.028 0.271,3.262 0.098,2.438 -0.075,1.613 -0.108,0.801 0,0 m -4.58,-3.544 c -0.204,1.605 -0.205,3.234 -0.006,4.891 0.197,1.655 0.655,3.177 1.366,4.57 0.712,1.391 1.71,2.581 2.996,3.572 1.286,0.991 2.919,1.626 4.907,1.912 1.13,0.163 2.154,0.11 3.07,-0.163 C 8.668,10.966 9.468,10.549 10.149,9.986 10.83,9.425 11.386,8.729 11.813,7.901 12.239,7.073 12.527,6.186 12.674,5.239 12.907,3.729 12.771,2.208 12.259,0.675 11.746,-0.857 10.953,-2.259 9.878,-3.523 8.803,-4.789 7.502,-5.812 5.978,-6.588 4.453,-7.364 2.832,-7.718 1.124,-7.645 1.271,-8.502 1.672,-9.15 2.326,-9.59 c 0.654,-0.439 1.411,-0.737 2.271,-0.889 0.858,-0.153 1.737,-0.203 2.632,-0.15 0.895,0.053 1.692,0.131 2.387,0.233 0.728,0.106 1.398,0.266 2.013,0.48 0.613,0.213 1.225,0.441 1.834,0.687 0.608,0.244 1.226,0.475 1.854,0.695 0.627,0.219 1.304,0.386 2.03,0.501 0.283,0.045 0.569,0.075 0.857,0.092 0.288,0.015 0.567,-0.008 0.836,-0.071 0.268,-0.062 0.499,-0.192 0.693,-0.388 0.194,-0.197 0.318,-0.457 0.371,-0.782 0.091,-0.562 -0.054,-1.063 -0.437,-1.505 -0.384,-0.441 -0.896,-0.849 -1.534,-1.224 -0.64,-0.374 -1.362,-0.693 -2.165,-0.954 -0.805,-0.262 -1.591,-0.489 -2.358,-0.682 -0.767,-0.191 -1.476,-0.344 -2.125,-0.456 -0.648,-0.111 -1.132,-0.19 -1.45,-0.236 -2.035,-0.299 -3.908,-0.254 -5.613,0.13 -1.704,0.383 -3.184,1.047 -4.436,1.984 -1.251,0.937 -2.265,2.136 -3.045,3.59 -0.778,1.455 -1.284,3.12 -1.521,4.991" /></g><g
           transform="translate(360.9238,72.6045)"
           id="g2032"><path
             id="path2034"
             style="fill:#a5d289;fill-opacity:1;fill-rule:nonzero;stroke:none"
             d="M 0,0 C -0.015,0.089 -0.011,0.164 0.01,0.229 0,0.288 0.004,0.364 0.019,0.458 0.116,0.626 0.269,0.848 0.475,1.126 0.68,1.402 0.812,1.547 0.874,1.557 4.563,2.175 6.406,2.497 10.088,3.168 10.029,3.491 9.89,3.999 9.67,4.689 9.449,5.38 9.224,6.146 8.993,6.986 8.763,7.826 8.578,8.715 8.439,9.648 c -0.137,0.933 -0.162,1.797 -0.073,2.589 0.089,0.793 0.337,1.477 0.742,2.054 0.407,0.577 1.058,0.948 1.957,1.117 0.557,-2.973 1.213,-5.319 1.975,-7.034 0.763,-1.715 1.595,-2.99 2.496,-3.824 0.901,-0.834 1.842,-1.31 2.816,-1.424 0.973,-0.116 1.938,-0.055 2.891,0.181 0.954,0.236 1.865,0.564 2.733,0.987 0.867,0.421 1.649,0.751 2.346,0.987 0.698,0.238 1.282,0.291 1.756,0.161 0.473,-0.13 0.796,-0.605 0.97,-1.424 C 29.179,3.402 29.126,2.932 28.892,2.607 28.655,2.282 28.141,1.958 27.344,1.64 27.104,1.559 26.709,1.423 26.157,1.233 25.604,1.042 24.982,0.846 24.289,0.644 23.595,0.44 22.856,0.224 22.072,-0.009 21.288,-0.242 20.549,-0.457 19.854,-0.654 19.158,-0.853 18.52,-1.015 17.938,-1.142 c -0.581,-0.128 -1.01,-0.216 -1.287,-0.269 0.029,-0.148 0.061,-0.401 0.097,-0.759 0.037,-0.358 0.066,-0.599 0.089,-0.715 0.247,-1.295 0.703,-2.511 1.371,-3.648 0.668,-1.137 1.376,-2.26 2.124,-3.364 0.748,-1.107 1.461,-2.219 2.136,-3.337 0.675,-1.119 1.141,-2.325 1.397,-3.617 0.046,-0.235 0.071,-0.482 0.072,-0.741 0.002,-0.26 -0.048,-0.498 -0.154,-0.717 -0.103,-0.219 -0.281,-0.407 -0.529,-0.561 -0.248,-0.155 -0.624,-0.206 -1.126,-0.151 -1.259,0.059 -2.273,0.522 -3.04,1.382 -0.768,0.861 -1.418,1.934 -1.951,3.22 -0.534,1.286 -0.989,2.672 -1.363,4.155 -0.374,1.485 -0.785,2.863 -1.23,4.135 -0.445,1.272 -0.971,2.332 -1.573,3.181 -0.604,0.847 -1.4,1.286 -2.39,1.32 -3.703,0.131 -5.552,0.21 -9.239,0.394 C 1.218,-1.255 1.013,-1.159 0.726,-0.95 0.438,-0.74 0.254,-0.581 0.173,-0.473 0.134,-0.419 0.117,-0.321 0.091,-0.259 0.07,-0.211 0.02,-0.119 0,0" /></g><g
           transform="translate(398.958,60.8701)"
           id="g2036"><path
             id="path2038"
             style="fill:#a5d289;fill-opacity:1;fill-rule:nonzero;stroke:none"
             d="M 0,0 C 0.405,0.089 0.831,0.061 1.274,-0.086 1.717,-0.233 2.032,-0.463 2.217,-0.773 2.401,-1.085 2.383,-1.481 2.16,-1.96 1.937,-2.44 1.347,-2.97 0.386,-3.549 c -0.875,-0.07 -1.525,-0.004 -1.947,0.195 -0.42,0.201 -0.689,0.449 -0.802,0.747 -0.114,0.296 -0.102,0.621 0.036,0.972 0.138,0.352 0.33,0.669 0.581,0.953 0.249,0.285 0.538,0.5 0.867,0.65 C -0.551,0.115 -0.259,0.127 0,0 m -9.786,28.396 c 0.136,0.649 1.243,1.203 1.78,0.891 0.538,-0.312 1.044,-1.014 1.52,-2.104 0.475,-1.092 0.905,-2.432 1.286,-4.018 0.381,-1.588 0.763,-3.213 1.145,-4.877 0.383,-1.664 0.761,-3.236 1.136,-4.718 0.375,-1.481 0.767,-2.636 1.177,-3.466 C -1.646,9.665 -1.593,9.278 -1.583,8.943 -1.574,8.606 -1.624,8.32 -1.732,8.082 -1.843,7.843 -2.056,7.635 -2.374,7.458 -2.692,7.28 -3.129,7.132 -3.687,7.011 -3.779,6.99 -3.882,7.015 -3.994,7.082 c -0.111,0.067 -0.26,0.304 -0.444,0.708 -0.185,0.403 -0.419,1.042 -0.705,1.916 -0.285,0.872 -0.639,2.107 -1.063,3.7 -0.423,1.593 -0.935,3.597 -1.532,6.011 -0.599,2.413 -2.486,6.886 -2.048,8.979" /></g><g
           id="g2040"><g
             id="g2042" /><g
             id="g2054"><g
               id="g2052"
               opacity="0.300003"
               clip-path="url(#clipPath2046)"><g
                 id="g2050"
                 transform="translate(391.667,118.2607)"><path
                   id="path2048"
                   style="fill:#bddfb2;fill-opacity:1;fill-rule:nonzero;stroke:none"
                   d="m 0,0 c 0,0 -62.113,-15.72 -138.732,-15.72 -76.62,0 -138.732,15.72 -138.732,15.72 0,0 62.112,15.72 138.732,15.72 C -62.113,15.72 0,0 0,0" /></g></g></g></g><g
           transform="translate(230.3672,261.4634)"
           id="g2056"><path
             id="path2058"
             style="fill:#9c8f80;fill-opacity:1;fill-rule:nonzero;stroke:none"
             d="m 0,0 c -0.157,-3.451 -2.44,-6.922 -5.469,-8.837 -5.685,-3.596 -14.462,-4.32 -20.91,-2.733 -14.1,3.469 -28.392,16.316 -31.289,30.832 -3.355,16.81 0.101,37.906 -14.519,50.193 -0.301,0.252 -0.607,0.499 -0.917,0.741 -5.292,4.118 -35.946,17.256 -20.17,26.887 1.953,1.193 4.311,1.515 6.598,1.601 16.038,0.607 28.882,-8.628 35.862,-22.681 5.9,-11.878 4.594,-24.873 7.056,-37.483 1.544,-7.916 6.052,-14.781 12.448,-19.648 5.337,-4.061 11.663,-6.68 18.159,-8.348 C -8.393,9.302 -2.822,8.056 -0.71,3.62 -0.16,2.464 0.056,1.233 0,0" /></g></g></g><g
       id="g2060"><g
         clip-path="url(#clipPath2066)"
         id="g2062"><g
           transform="translate(135.6895,365.2183)"
           id="g2068"><path
             id="path2070"
             style="fill:#63514d;fill-opacity:1;fill-rule:nonzero;stroke:none"
             d="m 0,0 c -3.696,-7.489 -8.573,-15.503 -9.182,-24.022 -0.234,-3.27 0.616,-8.472 4.57,-9.468 5.323,-1.342 10.634,6.843 12.885,10.486 3.782,6.119 7.258,12.57 8.738,19.608 0.469,2.23 0.73,4.555 0.241,6.78 -0.49,2.225 -1.829,4.353 -3.881,5.344 C 10.698,10.018 7.372,9.11 5.076,7.229 2.78,5.349 1.313,2.661 0,0" /></g><g
           transform="translate(167.0166,349.7637)"
           id="g2072"><path
             id="path2074"
             style="fill:#63514d;fill-opacity:1;fill-rule:nonzero;stroke:none"
             d="m 0,0 c -5.172,-6.558 -11.607,-13.383 -13.973,-21.589 -0.908,-3.151 -1.158,-8.415 2.503,-10.211 4.928,-2.419 11.824,4.484 14.783,7.579 4.97,5.2 9.711,10.787 12.621,17.365 0.922,2.084 1.661,4.303 1.645,6.582 C 17.562,2.004 16.694,4.364 14.893,5.759 12.546,7.577 9.104,7.379 6.467,6.017 3.831,4.654 1.838,2.331 0,0" /></g><g
           transform="translate(184.7397,320.8047)"
           id="g2076"><path
             id="path2078"
             style="fill:#63514d;fill-opacity:1;fill-rule:nonzero;stroke:none"
             d="m 0,0 c -7.925,-2.634 -17.053,-4.797 -23.542,-10.351 -2.49,-2.132 -5.593,-6.392 -3.523,-9.905 2.788,-4.73 12.342,-2.755 16.516,-1.797 7.01,1.61 14.042,3.672 20.09,7.566 1.915,1.234 3.752,2.681 4.992,4.593 1.239,1.913 1.811,4.361 1.073,6.517 C 14.646,-0.569 11.662,1.159 8.71,1.47 5.759,1.782 2.816,0.937 0,0" /></g><g
           transform="translate(190.4658,288.7954)"
           id="g2080"><path
             id="path2082"
             style="fill:#63514d;fill-opacity:1;fill-rule:nonzero;stroke:none"
             d="m 0,0 c -7.542,-3.586 -16.336,-6.853 -22.094,-13.16 -2.21,-2.422 -4.768,-7.03 -2.282,-10.263 3.346,-4.352 12.586,-1.221 16.611,0.243 6.76,2.457 13.487,5.366 19.01,9.972 1.75,1.459 3.396,3.122 4.391,5.171 0.995,2.05 1.263,4.55 0.267,6.599 C 14.605,1.231 11.432,2.581 8.464,2.527 5.497,2.475 2.681,1.274 0,0" /></g><g
           id="g2084"><g
             id="g2086" /><g
             id="g2098"><g
               id="g2096"
               opacity="0.5"
               clip-path="url(#clipPath2090)"><g
                 id="g2094"
                 transform="translate(186.7949,283.3203)"><path
                   id="path2092"
                   style="fill:#63514d;fill-opacity:1;fill-rule:nonzero;stroke:none"
                   d="m 0,0 c 5.879,2.592 12.436,4.005 17.883,3.436 0.773,-0.081 1.572,-0.234 2.196,-0.698 1.114,-0.828 1.359,-2.369 1.499,-3.75 0.438,-4.32 0.693,-8.842 -0.976,-12.85 -2.633,-6.319 -9.358,-9.846 -15.823,-12.095 -2.846,-0.99 -5.794,-1.842 -8.807,-1.827 -3.013,0.014 -6.131,0.994 -8.186,3.197 -4.487,4.807 -3.645,12.443 0.766,16.98 C -8.548,-4.624 -4.47,-1.971 0,0" /></g></g></g></g></g></g><g
       id="g2100"><g
         clip-path="url(#clipPath2106)"
         id="g2102"><g
           transform="translate(190.0391,240.7646)"
           id="g2108"><path
             id="path2110"
             style="fill:#63514d;fill-opacity:1;fill-rule:nonzero;stroke:none"
             d="m 0,0 c 0.507,0.057 1.013,0.135 1.515,0.237 3.996,0.81 7.589,3.049 10.596,5.803 4.534,4.153 9.473,10.042 12.142,15.624 2.384,4.985 4.458,10.119 6.206,15.361 0.885,2.653 1.695,5.4 1.561,8.193 -0.135,2.794 -1.378,5.679 -3.78,7.112 C 23.895,54.921 17.401,50.915 13.816,48.467 3.769,41.606 -4.799,32.591 -11.14,22.208 -15.554,14.98 -20.465,4.043 -8.859,0.854 -5.982,0.063 -2.955,-0.333 0,0" /></g><g
           transform="translate(361.8203,301.4639)"
           id="g2112"><path
             id="path2114"
             style="fill:#63514d;fill-opacity:1;fill-rule:nonzero;stroke:none"
             d="m 0,0 c 1.327,-13.573 -10.501,-24.415 -20.032,-32.338 -5.294,-4.401 -11.311,-9.499 -17.666,-12.688 -9.741,-4.889 -22.256,-5.655 -32.868,-3.965 -1.876,0.298 -4.291,1.577 -6.203,2.213 -4.159,1.383 -7.727,2.697 -7.035,7.49 0.862,5.969 3.173,12.323 8.427,15.284 5.351,3.016 11.349,3.01 17.181,4.482 10.559,2.663 19.522,7.843 24.543,18.04 1.766,3.588 2.927,7.565 5.541,10.592 3.315,3.842 8.639,5.589 13.707,5.305 3.307,-0.186 6.644,-1.209 9.178,-3.344 C -2.025,8.375 -0.407,4.166 0,0" /></g></g></g><g
       id="g2116"><g
         clip-path="url(#clipPath2122)"
         id="g2118"><g
           id="g2124"><g
             id="g2126" /><g
             id="g2138"><g
               id="g2136"
               opacity="0.5"
               clip-path="url(#clipPath2130)"><g
                 id="g2134"
                 transform="translate(313.7803,249.6294)"><path
                   id="path2132"
                   style="fill:#63514d;fill-opacity:1;fill-rule:nonzero;stroke:none"
                   d="m 0,0 c -0.013,-0.958 -0.118,-1.911 -0.346,-2.846 -0.911,-3.74 -4.018,-6.296 -7.645,-7.264 -7.574,-2.021 -15.931,-3.703 -23.002,-0.322 -4.492,2.147 -7.871,6.112 -10.465,10.361 -3.834,6.28 -6.269,13.691 -5.317,20.986 0.509,3.908 2.058,7.79 4.926,10.492 3.984,3.753 11.746,6.061 17.023,4.142 12.055,-4.384 20.955,-17.672 24,-29.646 C -0.337,3.977 0.028,1.977 0,0" /></g></g></g></g></g></g><g
       id="g2140"><g
         clip-path="url(#clipPath2146)"
         id="g2142"><g
           transform="translate(248.7993,186.6768)"
           id="g2148"><path
             id="path2150"
             style="fill:#9c8f80;fill-opacity:1;fill-rule:nonzero;stroke:none"
             d="m 0,0 c -0.603,0.02 -1.204,0.045 -1.803,0.075 -16.131,0.82 -34.615,4.756 -44.794,15.802 -10.782,11.701 -10.831,28.902 -7.988,42.71 3.053,14.834 8.335,29.643 20.168,41.493 3.134,3.138 6.667,6.006 10.558,8.516 C 2.96,125.895 34.06,110.06 46.15,87.85 54.569,72.384 61.777,55.609 58.01,38.465 55.848,28.624 50.55,19.14 42.122,11.828 31.36,2.491 15.211,-0.496 0,0" /></g></g></g><g
       id="g2152"><g
         clip-path="url(#clipPath2158)"
         id="g2154"><g
           transform="translate(279.6211,256.7109)"
           id="g2160"><path
             id="path2162"
             style="fill:#63514d;fill-opacity:1;fill-rule:nonzero;stroke:none"
             d="m 0,0 c 0.447,-4.351 5.919,-4.355 8.978,-3.705 4.831,1.027 9.358,3.038 13.906,4.901 3.616,1.481 8.209,2.559 10.354,6.201 1.152,1.954 1.433,4.546 0.32,6.566 -2.662,4.834 -9.08,2.574 -12.934,1.077 C 14.096,12.504 6.903,9.403 1.796,4.436 0.492,3.168 -0.155,1.512 0,0" /></g><g
           transform="translate(288.9014,240.6592)"
           id="g2164"><path
             id="path2166"
             style="fill:#63514d;fill-opacity:1;fill-rule:nonzero;stroke:none"
             d="m 0,0 c -0.175,-4.37 5.241,-5.151 8.36,-4.941 4.929,0.33 9.696,1.678 14.461,2.876 3.79,0.952 8.491,1.368 11.131,4.668 1.417,1.77 2.064,4.295 1.249,6.453 -1.949,5.164 -8.623,3.838 -12.65,2.903 C 15.729,10.376 8.169,8.327 2.408,4.136 0.937,3.066 0.062,1.519 0,0" /></g><g
           transform="translate(224.877,256.7109)"
           id="g2168"><path
             id="path2170"
             style="fill:#63514d;fill-opacity:1;fill-rule:nonzero;stroke:none"
             d="m 0,0 c -0.447,-4.351 -5.92,-4.355 -8.978,-3.705 -4.831,1.027 -9.358,3.038 -13.906,4.901 -3.616,1.481 -8.21,2.559 -10.355,6.201 -1.151,1.954 -1.432,4.546 -0.319,6.566 2.662,4.834 9.08,2.574 12.934,1.077 C -14.096,12.504 -6.904,9.403 -1.796,4.436 -0.493,3.168 0.155,1.512 0,0" /></g><g
           transform="translate(215.5962,240.6592)"
           id="g2172"><path
             id="path2174"
             style="fill:#63514d;fill-opacity:1;fill-rule:nonzero;stroke:none"
             d="m 0,0 c 0.175,-4.37 -5.241,-5.151 -8.36,-4.941 -4.929,0.33 -9.695,1.678 -14.461,2.876 -3.79,0.952 -8.491,1.368 -11.131,4.668 -1.417,1.77 -2.063,4.295 -1.249,6.453 1.95,5.164 8.623,3.838 12.65,2.903 C -15.729,10.376 -8.168,8.327 -2.408,4.136 -0.937,3.066 -0.061,1.519 0,0" /></g></g></g><g
       id="g2176"><g
         clip-path="url(#clipPath2182)"
         id="g2178"><g
           transform="translate(219.9814,238.5332)"
           id="g2184"><path
             id="path2186"
             style="fill:#eae1d7;fill-opacity:1;fill-rule:nonzero;stroke:none"
             d="m 0,0 c -7.685,-14.361 -9.298,-31.471 2.116,-44.45 11.968,-13.611 36.817,-17.244 52.047,-7.18 30.525,20.173 6.218,76.421 -28.67,71.755 C 13.571,18.531 5.458,10.199 0,0" /></g><g
           transform="translate(285.7217,378.627)"
           id="g2188"><path
             id="path2190"
             style="fill:#63514d;fill-opacity:1;fill-rule:nonzero;stroke:none"
             d="m 0,0 c 4.081,3.763 9.211,6.482 14.432,8.044 4.719,1.412 9.871,2.105 14.751,2.697 3.15,0.381 6.339,0.576 9.509,0.349 2.124,-0.152 7.473,-0.264 8.696,-2.37 0.312,-0.539 0.42,-1.169 0.505,-1.786 2.09,-15.206 -4.255,-33.699 -16.395,-43.528 -4.102,-3.321 -8.959,-4.161 -13.5,-1.183 -1.835,1.204 -3.335,2.842 -4.813,4.464 -5.245,5.748 -10.48,11.48 -15.909,17.05 -1.283,1.316 -2.484,2.771 -3.118,4.496 C -7.633,-6.896 -3.21,-2.959 0,0" /></g><g
           transform="translate(298.4629,353.0859)"
           id="g2192"><path
             id="path2194"
             style="fill:#df9699;fill-opacity:1;fill-rule:nonzero;stroke:none"
             d="m 0,0 c -1.857,1.351 -3.555,2.991 -4.845,4.745 -1.937,2.635 -4.869,7.446 -3.241,10.778 1.913,3.912 7.329,6.523 11.135,8.2 6.586,2.9 14.009,3.967 21.134,2.89 5.998,-0.906 3.605,-7.901 1.883,-11.565 C 22.283,6.997 14.753,-7.465 3.498,-2.097 2.31,-1.529 1.125,-0.818 0,0" /></g><g
           id="g2196"><g
             id="g2198" /><g
             id="g2210"><g
               id="g2208"
               clip-path="url(#clipPath2202)"><g
                 id="g2206"
                 transform="translate(300.7012,372.375)"><path
                   id="path2204"
                   style="fill:#df9699;fill-opacity:1;fill-rule:nonzero;stroke:none"
                   d="m 0,0 c 6.585,2.9 14.008,3.967 21.133,2.891 2.817,-0.426 3.771,-2.2 3.826,-4.335 1.233,3.647 1.668,8.061 -3.015,8.768 C 14.819,8.401 7.396,7.334 0.811,4.434 -2.995,2.757 -8.411,0.146 -10.324,-3.766 -10.853,-4.849 -10.896,-6.088 -10.652,-7.358 -8.428,-3.91 -3.525,-1.553 0,0" /></g></g></g></g><g
           transform="translate(243.5024,386.3516)"
           id="g2212"><path
             id="path2214"
             style="fill:#63514d;fill-opacity:1;fill-rule:nonzero;stroke:none"
             d="m 0,0 c -2.484,4.964 -6.319,9.324 -10.649,12.633 -3.914,2.992 -8.486,5.464 -12.84,7.745 -2.812,1.472 -5.725,2.784 -8.77,3.694 -2.041,0.61 -7.082,2.399 -8.971,0.862 -0.483,-0.393 -0.807,-0.944 -1.105,-1.492 -7.339,-13.48 -7.953,-33.022 -0.08,-46.512 2.661,-4.559 6.905,-7.064 12.207,-5.887 2.142,0.477 4.125,1.478 6.082,2.47 6.939,3.52 13.866,7.027 20.915,10.313 1.666,0.777 3.304,1.712 4.508,3.101 C 4.696,-9.152 1.954,-3.904 0,0" /></g><g
           transform="translate(222.543,366.9771)"
           id="g2216"><path
             id="path2218"
             style="fill:#df9699;fill-opacity:1;fill-rule:nonzero;stroke:none"
             d="m 0,0 c 2.216,0.605 4.384,1.538 6.211,2.722 2.745,1.778 7.19,5.239 6.847,8.932 -0.403,4.336 -4.544,8.696 -7.51,11.611 -5.132,5.045 -11.696,8.67 -18.74,10.186 -5.932,1.277 -6.17,-6.112 -5.858,-10.148 0.688,-8.87 2.609,-25.061 15.036,-24.025 C -2.701,-0.613 -1.342,-0.367 0,0" /></g><g
           id="g2220"><g
             id="g2222" /><g
             id="g2234"><g
               id="g2232"
               clip-path="url(#clipPath2226)"><g
                 id="g2230"
                 transform="translate(227.2798,385.8086)"><path
                   id="path2228"
                   style="fill:#df9699;fill-opacity:1;fill-rule:nonzero;stroke:none"
                   d="m 0,0 c -5.132,5.044 -11.696,8.67 -18.741,10.187 -2.785,0.599 -4.305,-0.722 -5.113,-2.7 0.139,3.847 1.295,8.129 5.925,7.133 C -10.885,13.104 -4.321,9.478 0.811,4.434 3.777,1.519 7.918,-2.841 8.321,-7.178 8.433,-8.377 8.034,-9.552 7.356,-10.653 6.498,-6.641 2.747,-2.7 0,0" /></g></g></g></g><g
           transform="translate(312.9004,309.9595)"
           id="g2236"><path
             id="path2238"
             style="fill:#9c8f80;fill-opacity:1;fill-rule:nonzero;stroke:none"
             d="m 0,0 c 1.603,8.228 1.858,16.856 1.5,24.975 -0.268,6.061 -1.398,12.166 -3.87,17.779 -2.519,5.717 -6.289,9.663 -11.222,13.562 -10.008,7.911 -22.092,13.3 -34.658,15.831 -10.704,2.156 -22.002,2.158 -32.324,-0.751 -22.189,-6.255 -34.276,-28.024 -38.261,-48.861 -1.465,-7.659 -3.268,-16.989 0.657,-24.155 4.084,-7.457 10.406,-13.65 17.617,-18.283 9.09,-5.84 19.556,-9.34 30.14,-11.721 10.332,-2.324 21.001,-3.638 31.513,-2.556 7.465,0.769 14.844,2.792 21.416,6.317 6.659,3.572 10.935,8.694 13.83,15.565 C -2.015,-8.389 -0.828,-4.248 0,0" /></g></g></g><g
       id="g2240"><g
         clip-path="url(#clipPath2246)"
         id="g2242"><g
           transform="translate(258.1123,356.9429)"
           id="g2248"><path
             id="path2250"
             style="fill:#63514d;fill-opacity:1;fill-rule:nonzero;stroke:none"
             d="m 0,0 c 3.935,-1.909 6.817,2.743 7.874,5.685 1.669,4.649 2.341,9.557 3.149,14.404 0.644,3.854 2.144,8.328 0.176,12.069 -1.055,2.006 -3.112,3.609 -5.415,3.726 C 0.271,36.164 -1.184,29.517 -1.938,25.452 -3.217,18.566 -4.363,10.818 -2.827,3.861 -2.435,2.085 -1.367,0.664 0,0" /></g><g
           transform="translate(274.5332,359.8359)"
           id="g2252"><path
             id="path2254"
             style="fill:#63514d;fill-opacity:1;fill-rule:nonzero;stroke:none"
             d="m 0,0 c 3.055,-1.978 5.942,1.572 7.133,3.896 1.882,3.672 2.965,7.659 4.156,11.583 0.946,3.119 2.669,6.664 1.44,9.955 -0.659,1.766 -2.191,3.3 -4.086,3.631 C 4.106,29.857 2.188,24.513 1.126,21.231 -0.672,15.671 -2.454,9.385 -1.928,3.479 -1.794,1.972 -1.062,0.687 0,0" /></g><g
           transform="translate(244.8008,366.0342)"
           id="g2256"><path
             id="path2258"
             style="fill:#63514d;fill-opacity:1;fill-rule:nonzero;stroke:none"
             d="m 0,0 c 3.475,-1.126 5.289,3.051 5.803,5.605 0.812,4.036 0.771,8.171 0.851,12.272 0.064,3.261 0.758,7.132 -1.318,9.998 C 4.223,29.413 2.333,30.501 0.42,30.333 -4.158,29.931 -4.552,24.268 -4.682,20.82 -4.902,14.98 -4.909,8.442 -2.799,2.867 -2.26,1.444 -1.208,0.391 0,0" /></g></g></g><g
       id="g2260"><g
         clip-path="url(#clipPath2266)"
         id="g2262"><g
           transform="translate(309.9043,313.6226)"
           id="g2268"><path
             id="path2270"
             style="fill:#eae1d7;fill-opacity:1;fill-rule:nonzero;stroke:none"
             d="m 0,0 c -4.157,4.468 -10.609,5.239 -16.309,5.956 -13.904,1.749 -34.97,2.594 -42.306,-12.101 -1.657,16.341 -21.658,23.009 -35.281,26.297 -5.583,1.347 -11.891,2.91 -17.361,0.204 -5.246,-2.595 -7.988,-8.847 -7.694,-14.693 0.269,-5.361 2.914,-11.602 6.055,-15.944 4.686,-6.479 10.497,-11.32 16.847,-16.006 8.9,-6.567 19.747,-10.226 30.57,-12.046 18.874,-3.173 39.73,-1.73 56.165,9.101 4.473,2.947 9.158,7.848 11.307,12.766 C 4.338,-11.103 3.988,-4.285 0,0" /></g><g
           transform="translate(254.4727,297.0332)"
           id="g2272"><path
             id="path2274"
             style="fill:#f45551;fill-opacity:1;fill-rule:nonzero;stroke:none"
             d="M 0,0 C 0.225,0.734 0.372,1.501 0.493,2.269 0.539,2.565 0.764,3.218 0.667,3.499 0.572,3.776 0.48,3.674 0.281,3.837 -0.767,4.698 -1.686,5.923 -2.267,7.145 -2.546,7.732 -2.765,8.347 -2.918,8.979 -2.999,9.316 -3.374,10.51 -3.172,10.811 -4.175,9.321 -5.229,7.782 -6.775,6.868 -7.277,6.571 -7.776,6.263 -8.306,6.019 -8.67,5.819 -9.194,5.756 -9.602,5.739 -9.657,5.737 -9.716,5.733 -9.759,5.699 -9.813,5.656 -9.824,5.581 -9.832,5.512 -9.933,4.627 -9.981,3.793 -9.987,2.911 c -0.019,-2.72 0.434,-5.64 3.204,-6.881 1.757,-0.787 3.658,-0.389 5.028,0.937 C -0.869,-2.176 -0.344,-1.126 0,0" /></g><g
           transform="translate(250.1997,307.957)"
           id="g2276"><path
             id="path2278"
             style="fill:#3f312e;fill-opacity:1;fill-rule:nonzero;stroke:none"
             d="m 0,0 c -0.764,-9.878 14.203,-13.319 20.168,-7.043 0.887,0.932 -0.525,2.349 -1.414,1.414 C 14.04,-10.589 1.369,-8.161 2,0 2.099,1.284 0.099,1.277 0,0" /></g><g
           transform="translate(250.001,308.2686)"
           id="g2280"><path
             id="path2282"
             style="fill:#3f312e;fill-opacity:1;fill-rule:nonzero;stroke:none"
             d="M 0,0 C -2.426,-7.631 -15.104,-5.178 -17.561,1.062 -18.027,2.246 -19.962,1.73 -19.489,0.53 -16.278,-7.628 -1.126,-10.138 1.929,-0.532 2.319,0.698 0.389,1.224 0,0" /></g><g
           transform="translate(245.7241,313.105)"
           id="g2284"><path
             id="path2286"
             style="fill:#df9699;fill-opacity:1;fill-rule:nonzero;stroke:none"
             d="m 0,0 c 1.176,-2.277 2.913,-5.003 5.663,-5.408 1.72,-0.254 2.938,0.505 4.385,1.254 1.561,0.806 3.105,1.833 4.312,3.118 1.367,1.457 1.743,3.561 0.395,5.179 C 13.544,5.595 11.528,6.114 9.781,6.597 7.745,7.159 5.625,7.516 3.508,7.447 2.206,7.404 0.737,7.115 -0.28,6.249 -2.052,4.738 -1.113,2.317 -0.284,0.573 -0.193,0.382 -0.099,0.191 0,0" /></g><g
           id="g2288"><g
             id="g2290" /><g
             id="g2302"><g
               id="g2300"
               clip-path="url(#clipPath2294)"><g
                 id="g2298"
                 transform="translate(260.4512,313.7598)"><path
                   id="path2296"
                   style="fill:#df9699;fill-opacity:1;fill-rule:nonzero;stroke:none"
                   d="m 0,0 c -1.206,-1.285 -2.75,-2.312 -4.312,-3.119 -1.447,-0.748 -2.665,-1.506 -4.385,-1.253 -2.749,0.405 -4.487,3.131 -5.663,5.408 -0.098,0.191 -0.193,0.382 -0.284,0.573 -0.445,0.937 -0.918,2.07 -0.989,3.152 -0.8,-1.477 -0.036,-3.405 0.656,-4.862 0.091,-0.191 0.185,-0.382 0.284,-0.573 1.176,-2.277 2.913,-5.003 5.663,-5.408 1.72,-0.253 2.938,0.505 4.385,1.253 1.561,0.808 3.105,1.833 4.312,3.119 0.816,0.871 1.275,1.971 1.229,3.062 C 0.685,0.868 0.383,0.408 0,0" /></g></g></g></g><g
           transform="translate(287.0469,345.3691)"
           id="g2304"><path
             id="path2306"
             style="fill:#c1aba4;fill-opacity:1;fill-rule:nonzero;stroke:none"
             d="m 0,0 c 0.563,-0.52 1.14,-0.957 1.609,-1.263 2.735,-1.78 6.25,-3.107 9.487,-3.559 2.862,-0.4 5.353,1.748 3.339,4.428 C 12.591,2.059 9.988,4.045 7.154,5.199 5.077,6.044 0.296,7.583 -1.577,5.573 -3.221,3.809 -1.667,1.54 0,0" /></g><g
           transform="translate(230.437,355.04)"
           id="g2308"><path
             id="path2310"
             style="fill:#c1aba4;fill-opacity:1;fill-rule:nonzero;stroke:none"
             d="m 0,0 c -0.717,-0.271 -1.415,-0.459 -1.966,-0.566 -3.202,-0.623 -6.959,-0.532 -10.128,0.264 -2.802,0.705 -4.305,3.632 -1.431,5.358 2.63,1.581 5.788,2.445 8.848,2.449 C -2.435,7.509 2.575,7.139 3.555,4.573 4.416,2.32 2.124,0.801 0,0" /></g><g
           transform="translate(246.8481,317.1973)"
           id="g2312"><path
             id="path2314"
             style="fill:#ffffff;fill-opacity:1;fill-rule:nonzero;stroke:none"
             d="M 0,0 C 1.223,1.637 4.074,1.288 5.764,0.763 6.534,0.523 6.863,1.729 6.096,1.968 3.746,2.698 0.535,2.793 -1.079,0.631 -1.561,-0.014 -0.476,-0.638 0,0" /></g><g
           transform="translate(275.6338,330.4873)"
           id="g2316"><path
             id="path2318"
             style="fill:#3f312e;fill-opacity:1;fill-rule:nonzero;stroke:none"
             d="m 0,0 c 5.001,7.308 13.891,2.192 13.835,-5.62 -0.014,-1.931 2.986,-1.933 3,0 C 16.871,-0.625 14.179,4.21 9.376,6.06 4.453,7.956 0.214,5.612 -2.591,1.514 -3.684,-0.083 -1.085,-1.585 0,0" /></g><g
           transform="translate(237.0864,337.4429)"
           id="g2320"><path
             id="path2322"
             style="fill:#3f312e;fill-opacity:1;fill-rule:nonzero;stroke:none"
             d="m 0,0 c -1.278,5.039 -4.707,8.63 -10.16,8.309 -5.007,-0.295 -8.86,-3.838 -10.545,-8.384 -0.671,-1.813 2.227,-2.596 2.893,-0.798 1.205,3.25 3.886,5.702 7.386,6.128 4.217,0.514 6.555,-2.195 7.533,-6.052 C -2.419,-2.667 0.475,-1.875 0,0" /></g><g
           transform="translate(271.9844,311.8994)"
           id="g2324"><path
             id="path2326"
             style="fill:#3f312e;fill-opacity:1;fill-rule:nonzero;stroke:none"
             d="m 0,0 c 16.845,2.857 34.28,-0.03 50.907,-2.935 1.259,-0.22 1.799,1.707 0.531,1.929 C 34.419,1.967 16.697,4.851 -0.532,1.929 -1.799,1.714 -1.262,-0.214 0,0" /></g><g
           transform="translate(272.917,305.6978)"
           id="g2328"><path
             id="path2330"
             style="fill:#3f312e;fill-opacity:1;fill-rule:nonzero;stroke:none"
             d="m 0,0 c 16.607,0.691 32.985,-4.367 48.619,-9.378 1.229,-0.394 1.755,1.536 0.532,1.928 C 33.352,-2.385 16.784,2.698 0,2 -1.283,1.947 -1.29,-0.054 0,0" /></g><g
           transform="translate(234.3613,320.6548)"
           id="g2332"><path
             id="path2334"
             style="fill:#3f312e;fill-opacity:1;fill-rule:nonzero;stroke:none"
             d="m 0,0 c -14.986,8.782 -32.523,12.345 -49.385,15.569 -1.258,0.241 -1.796,-1.686 -0.532,-1.928 C -33.231,10.45 -15.839,6.963 -1.01,-1.727 0.103,-2.379 1.111,-0.651 0,0" /></g><g
           transform="translate(231.0571,315.3125)"
           id="g2336"><path
             id="path2338"
             style="fill:#3f312e;fill-opacity:1;fill-rule:nonzero;stroke:none"
             d="m 0,0 c -15.543,6.636 -32.88,7.778 -49.557,8.642 -1.286,0.066 -1.283,-1.934 0,-2 C -33.265,5.798 -16.206,4.761 -1.009,-1.727 0.161,-2.227 1.182,-0.504 0,0" /></g><g
           transform="translate(344.3408,287.46)"
           id="g2340"><path
             id="path2342"
             style="fill:#df9699;fill-opacity:1;fill-rule:nonzero;stroke:none"
             d="m 0,0 c 0.604,0.157 1.198,0.359 1.77,0.538 3.353,1.05 8.452,3.094 8.358,7.325 -0.055,2.419 -2.305,4.018 -4.583,3.994 -1.138,-0.013 -2.552,-0.963 -3.632,-0.568 -0.6,0.219 -0.941,0.842 -1.178,1.436 -0.589,1.482 -1.627,2.708 -3.187,3.243 -2.908,0.997 -5.746,-0.145 -6.3,-3.359 -0.373,-2.168 0.227,-4.386 1.061,-6.378 0.647,-1.547 1.339,-3.224 2.361,-4.568 0.608,-0.8 1.416,-1.483 2.381,-1.765 C -1.979,-0.386 -0.977,-0.253 0,0" /></g><g
           transform="translate(343.6768,309.9287)"
           id="g2344"><path
             id="path2346"
             style="fill:#df9699;fill-opacity:1;fill-rule:nonzero;stroke:none"
             d="m 0,0 c 0,-1.643 -1.332,-2.975 -2.975,-2.975 -1.642,0 -2.974,1.332 -2.974,2.975 0,1.643 1.332,2.975 2.974,2.975 C -1.332,2.975 0,1.643 0,0" /></g><g
           transform="translate(353.4795,309.4282)"
           id="g2348"><path
             id="path2350"
             style="fill:#df9699;fill-opacity:1;fill-rule:nonzero;stroke:none"
             d="m 0,0 c 0,-1.643 -1.331,-2.975 -2.975,-2.975 -1.642,0 -2.974,1.332 -2.974,2.975 0,1.643 1.332,2.975 2.974,2.975 C -1.331,2.975 0,1.643 0,0" /></g><g
           transform="translate(360.1328,303.0977)"
           id="g2352"><path
             id="path2354"
             style="fill:#df9699;fill-opacity:1;fill-rule:nonzero;stroke:none"
             d="m 0,0 c 0,-1.643 -1.332,-2.974 -2.975,-2.974 -1.643,0 -2.974,1.331 -2.974,2.974 0,1.643 1.331,2.975 2.974,2.975 C -1.332,2.975 0,1.643 0,0" /></g><path
           id="path2356"
           style="fill:#cdae90;fill-opacity:1;fill-rule:nonzero;stroke:none"
           d="M 290.957,118.261 H 152.47 v 115.938 h 138.487 z" /><path
           id="path2358"
           style="fill:#c6a37f;fill-opacity:1;fill-rule:nonzero;stroke:none"
           d="m 290.957,118.261 h 56.221 v 115.938 h -56.221 z" /><g
           transform="translate(264.958,258.9321)"
           id="g2360"><path
             id="path2362"
             style="fill:#f4caa1;fill-opacity:1;fill-rule:nonzero;stroke:none"
             d="m 0,0 h -138.486 l 25.998,-24.733 H 25.999 Z" /></g><g
           transform="translate(316.9551,258.9321)"
           id="g2364"><path
             id="path2366"
             style="fill:#f4caa1;fill-opacity:1;fill-rule:nonzero;stroke:none"
             d="M 0,0 H 56.222 L 30.223,-24.733 h -56.221 z" /></g><g
           transform="translate(229.9819,153.4023)"
           id="g2368"><path
             id="path2370"
             style="fill:#63514d;fill-opacity:1;fill-rule:nonzero;stroke:none"
             d="m 0,0 c 0.89,0.803 1.721,1.676 2.534,2.487 4.778,4.766 11.641,12.776 7.723,19.894 -2.24,4.069 -7.491,4.794 -11.348,2.727 -1.925,-1.031 -3.489,-3.906 -5.679,-4.193 -1.215,-0.159 -2.35,0.6 -3.279,1.399 -2.322,1.999 -5.176,3.165 -8.308,2.69 -5.836,-0.887 -9.652,-5.35 -7.74,-11.313 1.29,-4.022 4.282,-7.265 7.47,-9.915 2.478,-2.059 5.145,-4.298 8.078,-5.679 1.746,-0.822 3.727,-1.268 5.62,-0.891 C -3.025,-2.415 -1.437,-1.299 0,0" /></g><g
           transform="translate(208.896,191.0615)"
           id="g2372"><path
             id="path2374"
             style="fill:#63514d;fill-opacity:1;fill-rule:nonzero;stroke:none"
             d="m 0,0 c 1.459,-2.797 0.375,-6.247 -2.422,-7.706 -2.796,-1.459 -6.246,-0.375 -7.705,2.422 -1.459,2.796 -0.375,6.246 2.421,7.705 C -4.909,3.881 -1.459,2.796 0,0" /></g><g
           transform="translate(226.0283,198.916)"
           id="g2376"><path
             id="path2378"
             style="fill:#63514d;fill-opacity:1;fill-rule:nonzero;stroke:none"
             d="m 0,0 c 1.459,-2.797 0.375,-6.247 -2.422,-7.706 -2.796,-1.459 -6.246,-0.375 -7.705,2.422 -1.459,2.797 -0.375,6.246 2.421,7.706 C -4.909,3.881 -1.459,2.796 0,0" /></g><g
           transform="translate(242.9756,194.0488)"
           id="g2380"><path
             id="path2382"
             style="fill:#63514d;fill-opacity:1;fill-rule:nonzero;stroke:none"
             d="m 0,0 c 1.459,-2.797 0.375,-6.247 -2.422,-7.706 -2.796,-1.459 -6.246,-0.375 -7.705,2.422 -1.46,2.797 -0.375,6.246 2.421,7.706 C -4.909,3.881 -1.459,2.796 0,0" /></g><g
           transform="translate(258.8887,176.2295)"
           id="g2384"><path
             id="path2386"
             style="fill:none;stroke:#63514d;stroke-width:3;stroke-linecap:butt;stroke-linejoin:miter;stroke-miterlimit:10;stroke-dasharray:none;stroke-opacity:1"
             d="m 0,0 c 0,-20.531 -16.644,-37.175 -37.175,-37.175 -20.532,0 -37.176,16.644 -37.176,37.175 0,20.531 16.644,37.176 37.176,37.176 C -16.644,37.176 0,20.531 0,0 Z" /></g><g
           transform="translate(105.5649,273.8086)"
           id="g2388"><path
             id="path2390"
             style="fill:#ffffff;fill-opacity:1;fill-rule:nonzero;stroke:none"
             d="m 0,0 c 0,-2.701 2.19,-4.892 4.892,-4.892 2.701,0 4.891,2.191 4.891,4.892 0,2.702 -2.19,4.892 -4.891,4.892 C 2.19,4.892 0,2.702 0,0" /></g><g
           transform="translate(140.6113,434.3335)"
           id="g2392"><path
             id="path2394"
             style="fill:#ffffff;fill-opacity:1;fill-rule:nonzero;stroke:none"
             d="M 0,0 C 0,-1.153 0.935,-2.088 2.087,-2.088 3.24,-2.088 4.175,-1.153 4.175,0 4.175,1.153 3.24,2.087 2.087,2.087 0.935,2.087 0,1.153 0,0" /></g><g
           transform="translate(115.3481,316.5835)"
           id="g2396"><path
             id="path2398"
             style="fill:#ffffff;fill-opacity:1;fill-rule:nonzero;stroke:none"
             d="m 0,0 c 0,-1.153 0.935,-2.088 2.088,-2.088 1.153,0 2.087,0.935 2.087,2.088 0,1.153 -0.934,2.087 -2.087,2.087 C 0.935,2.087 0,1.153 0,0" /></g><g
           transform="translate(404.584,244.6221)"
           id="g2400"><path
             id="path2402"
             style="fill:#ffffff;fill-opacity:1;fill-rule:nonzero;stroke:none"
             d="M 0,0 C 0,-1.153 0.935,-2.088 2.088,-2.088 3.24,-2.088 4.176,-1.153 4.176,0 4.176,1.152 3.24,2.087 2.088,2.087 0.935,2.087 0,1.152 0,0" /></g><g
           transform="translate(371.6152,206.751)"
           id="g2404"><path
             id="path2406"
             style="fill:#ffffff;fill-opacity:1;fill-rule:nonzero;stroke:none"
             d="M 0,0 C 0,-1.152 0.935,-2.087 2.088,-2.087 3.24,-2.087 4.175,-1.152 4.175,0 4.175,1.153 3.24,2.088 2.088,2.088 0.935,2.088 0,1.153 0,0" /></g><g
           transform="translate(85.5791,250)"
           id="g2408"><path
             id="path2410"
             style="fill:#ffffff;fill-opacity:1;fill-rule:nonzero;stroke:none"
             d="m 0,0 c 0,-1.153 0.935,-2.088 2.087,-2.088 1.154,0 2.088,0.935 2.088,2.088 0,1.153 -0.934,2.087 -2.088,2.087 C 0.935,2.087 0,1.153 0,0" /></g><g
           transform="translate(317.8389,434.333)"
           id="g2412"><path
             id="path2414"
             style="fill:#ffffff;fill-opacity:1;fill-rule:nonzero;stroke:none"
             d="M 0,0 C 0,-1.153 0.935,-2.087 2.088,-2.087 3.24,-2.087 4.175,-1.153 4.175,0 4.175,1.153 3.24,2.088 2.088,2.088 0.935,2.088 0,1.153 0,0" /></g><g
           transform="translate(142.6987,217.4385)"
           id="g2416"><path
             id="path2418"
             style="fill:#ffffff;fill-opacity:1;fill-rule:nonzero;stroke:none"
             d="m 0,0 c 0,-1.153 0.935,-2.088 2.088,-2.088 1.153,0 2.087,0.935 2.087,2.088 0,1.152 -0.934,2.087 -2.087,2.087 C 0.935,2.087 0,1.152 0,0" /></g><g
           transform="translate(182.4712,392.791)"
           id="g2420"><path
             id="path2422"
             style="fill:#ffffff;fill-opacity:1;fill-rule:nonzero;stroke:none"
             d="m 0,0 c 0,-1.153 0.935,-2.088 2.088,-2.088 1.153,0 2.087,0.935 2.087,2.088 0,1.153 -0.934,2.087 -2.087,2.087 C 0.935,2.087 0,1.153 0,0" /></g><g
           transform="translate(211.0337,432.2456)"
           id="g2424"><path
             id="path2426"
             style="fill:#ffffff;fill-opacity:1;fill-rule:nonzero;stroke:none"
             d="m 0,0 c 0,-1.153 0.935,-2.087 2.088,-2.087 1.153,0 2.087,0.934 2.087,2.087 0,1.153 -0.934,2.087 -2.087,2.087 C 0.935,2.087 0,1.153 0,0" /></g><g
           transform="translate(249.0176,419.2329)"
           id="g2428"><path
             id="path2430"
             style="fill:#ffffff;fill-opacity:1;fill-rule:nonzero;stroke:none"
             d="M 0,0 C 0,-1.153 0.935,-2.087 2.088,-2.087 3.24,-2.087 4.175,-1.153 4.175,0 4.175,1.153 3.24,2.088 2.088,2.088 0.935,2.088 0,1.153 0,0" /></g><g
           transform="translate(361.9229,351.9316)"
           id="g2432"><path
             id="path2434"
             style="fill:#ffffff;fill-opacity:1;fill-rule:nonzero;stroke:none"
             d="m 0,0 c 0,-1.153 0.935,-2.088 2.088,-2.088 1.153,0 2.088,0.935 2.088,2.088 0,1.153 -0.935,2.087 -2.088,2.087 C 0.935,2.087 0,1.153 0,0" /></g><g
           transform="translate(153.5449,401.8579)"
           id="g2436"><path
             id="path2438"
             style="fill:#ffffff;fill-opacity:1;fill-rule:nonzero;stroke:none"
             d="m 0,0 c 0,-1.153 0.935,-2.088 2.087,-2.088 1.154,0 2.088,0.935 2.088,2.088 0,1.153 -0.934,2.087 -2.088,2.087 C 0.935,2.087 0,1.153 0,0" /></g><g
           transform="translate(393.4863,316.5835)"
           id="g2440"><path
             id="path2442"
             style="fill:#ffffff;fill-opacity:1;fill-rule:nonzero;stroke:none"
             d="m 0,0 c 0,-1.153 0.936,-2.088 2.088,-2.088 1.153,0 2.088,0.935 2.088,2.088 0,1.153 -0.935,2.087 -2.088,2.087 C 0.936,2.087 0,1.153 0,0" /></g><g
           transform="translate(373.7031,392.791)"
           id="g2444"><path
             id="path2446"
             style="fill:#ffffff;fill-opacity:1;fill-rule:nonzero;stroke:none"
             d="m 0,0 c 0,-2.702 2.189,-4.892 4.892,-4.892 2.701,0 4.891,2.19 4.891,4.892 0,2.701 -2.19,4.892 -4.891,4.892 C 2.189,4.892 0,2.701 0,0" /></g><g
           transform="translate(110.4565,375.9224)"
           id="g2448"><path
             id="path2450"
             style="fill:#ffffff;fill-opacity:1;fill-rule:nonzero;stroke:none"
             d="m 0,0 c 0,-2.702 2.19,-4.892 4.892,-4.892 2.701,0 4.891,2.19 4.891,4.892 0,2.702 -2.19,4.892 -4.891,4.892 C 2.19,4.892 0,2.702 0,0" /></g><g
           transform="translate(379.2236,274.3232)"
           id="g2452"><path
             id="path2454"
             style="fill:#ffffff;fill-opacity:1;fill-rule:nonzero;stroke:none"
             d="m 0,0 c 0,-2.702 2.189,-4.892 4.892,-4.892 2.701,0 4.891,2.19 4.891,4.892 0,2.701 -2.19,4.892 -4.891,4.892 C 2.189,4.892 0,2.701 0,0" /></g><g
           transform="translate(288.5996,411.8936)"
           id="g2456"><path
             id="path2458"
             style="fill:#ffffff;fill-opacity:1;fill-rule:nonzero;stroke:none"
             d="m 0,0 c 0,-2.702 2.19,-4.892 4.892,-4.892 2.702,0 4.891,2.19 4.891,4.892 0,2.701 -2.189,4.892 -4.891,4.892 C 2.19,4.892 0,2.701 0,0" /></g></g></g></g></svg>
