<?xml version="1.0" encoding="UTF-8" standalone="no"?>
<svg
   xmlns:dc="http://purl.org/dc/elements/1.1/"
   xmlns:cc="http://creativecommons.org/ns#"
   xmlns:rdf="http://www.w3.org/1999/02/22-rdf-syntax-ns#"
   xmlns:svg="http://www.w3.org/2000/svg"
   xmlns="http://www.w3.org/2000/svg"
   viewBox="0 0 666.66669 666.66669"
   height="666.66669"
   width="666.66669"
   xml:space="preserve"
   id="svg1018"
   version="1.1"><metadata
     id="metadata1024"><rdf:RDF><cc:Work
         rdf:about=""><dc:format>image/svg+xml</dc:format><dc:type
           rdf:resource="http://purl.org/dc/dcmitype/StillImage" /><dc:title></dc:title></cc:Work></rdf:RDF></metadata><defs
     id="defs1022"><clipPath
       id="clipPath1036"
       clipPathUnits="userSpaceOnUse"><path
         id="path1034"
         d="M 0,500 H 500 V 0 H 0 Z" /></clipPath><clipPath
       id="clipPath1124"
       clipPathUnits="userSpaceOnUse"><path
         id="path1122"
         d="M 115.692,194.209 H 152.5 v -35.572 h -36.808 z" /></clipPath><clipPath
       id="clipPath1148"
       clipPathUnits="userSpaceOnUse"><path
         id="path1146"
         d="M 0,500 H 500 V 0 H 0 Z" /></clipPath><clipPath
       id="clipPath1280"
       clipPathUnits="userSpaceOnUse"><path
         id="path1278"
         d="m 204.168,234.413 h 12.885 v -10.427 h -12.885 z" /></clipPath><clipPath
       id="clipPath1304"
       clipPathUnits="userSpaceOnUse"><path
         id="path1302"
         d="m 221.316,239.401 h 35.967 v -8.94 h -35.967 z" /></clipPath><clipPath
       id="clipPath1420"
       clipPathUnits="userSpaceOnUse"><path
         id="path1418"
         d="m 312.851,264.575 h 58.088 v -24.097 h -58.088 z" /></clipPath></defs><g
     transform="matrix(1.3333333,0,0,-1.3333333,0,666.66667)"
     id="g1026"><path
       id="path1028"
       style="fill:#ffffff;fill-opacity:1;fill-rule:nonzero;stroke:none"
       d="M 0,0 H 500 V 500 H 0 Z" /><g
       id="g1030"><g
         clip-path="url(#clipPath1036)"
         id="g1032"><g
           transform="translate(95.6821,62.8223)"
           id="g1038"><path
             id="path1040"
             style="fill:#c2f4f5;fill-opacity:1;fill-rule:nonzero;stroke:none"
             d="m 0,0 c -28.274,32.909 -37.521,81.803 -21.441,122.1 7.359,18.442 19.489,35.761 20.191,55.605 0.8,22.599 -13.341,42.647 -20.466,64.109 -14.818,44.638 4.46,98.206 44.323,123.166 39.864,24.96 96.472,18.907 130.157,-13.918 19.746,-19.243 32.139,-46.262 55.675,-60.623 18.582,-11.337 41.222,-12.977 62.624,-16.948 21.401,-3.971 44.216,-11.968 55.374,-30.658 13.48,-22.579 4.934,-51.557 -5.912,-75.513 -10.846,-23.955 -24.067,-49.393 -18.785,-75.154 3.312,-16.162 13.569,-29.944 19.631,-45.288 6.062,-15.344 4.354,-36.45 -8.43,-46.878 z" /></g><g
           transform="translate(318.5654,368.627)"
           id="g1042"><path
             id="path1044"
             style="fill:#c2f4f5;fill-opacity:1;fill-rule:nonzero;stroke:none"
             d="m 0,0 c 17.179,-8.852 37.354,-11.751 56.33,-8.098 10.934,2.105 22.316,7.083 27.425,16.976 5.252,10.171 2.209,23.18 -5.049,32.031 C 71.448,49.76 60.726,55.07 49.867,58.688 28.809,65.706 3.988,68.209 -17.751,62.73 -40.685,56.95 -40.797,38.74 -27.792,22.681 -20.217,13.325 -10.705,5.516 0,0" /></g><g
           transform="translate(265.7637,380.4023)"
           id="g1046"><path
             id="path1048"
             style="fill:#75563a;fill-opacity:1;fill-rule:nonzero;stroke:none"
             d="m 0,0 c -0.046,0.067 -0.693,1.889 -1.529,4.262 -2.593,7.37 -4.571,14.947 -5.908,22.644 l -1.039,5.987 c -0.433,2.496 -3.802,2.989 -4.933,0.722 l -7.709,-15.462 c -2.064,-4.138 -2.69,-8.846 -1.78,-13.38 l 2.148,-10.702 z" /></g><g
           transform="translate(246.3242,383.8667)"
           id="g1050"><path
             id="path1052"
             style="fill:#fccaa3;fill-opacity:1;fill-rule:nonzero;stroke:none"
             d="m 0,0 c -0.556,3.646 -0.167,7.486 1.093,10.813 l 4.446,11.737 0.25,-1.885 c 1.04,-7.89 2.594,-15.725 4.614,-23.287 0.026,-0.092 0.475,-1.788 0.498,-1.877 L 1.2,-7.242 Z" /></g><g
           transform="translate(283.5518,377.5972)"
           id="g1054"><path
             id="path1056"
             style="fill:#75563a;fill-opacity:1;fill-rule:nonzero;stroke:none"
             d="m 0,0 c 9.286,8.184 18.119,16.882 26.446,26.04 2.417,2.658 6.833,1.377 7.462,-2.16 L 35.86,12.893 C 36.94,6.811 35.579,0.549 32.07,-4.535 L 20.121,-21.848 Z" /></g><g
           transform="translate(290.6592,374.7759)"
           id="g1058"><path
             id="path1060"
             style="fill:#fccaa3;fill-opacity:1;fill-rule:nonzero;stroke:none"
             d="m 0,0 c 8.27,7.468 16.234,15.404 23.717,23.634 0.086,0.095 0.144,0.112 0.221,0.112 0.093,0 0.313,-0.027 0.359,-0.286 L 26.249,12.473 C 27.151,7.393 26.035,2.257 23.104,-1.99 l -9.112,-13.203 z" /></g><g
           transform="translate(292.2275,300.3813)"
           id="g1062"><path
             id="path1064"
             style="fill:#75563a;fill-opacity:1;fill-rule:nonzero;stroke:none"
             d="m 0,0 v 26.142 c 0,2.376 -2.828,3.616 -4.576,2.005 -4.369,-4.026 -9.463,-7.187 -15.01,-9.316 l -31.362,-12.038 0.009,-0.04 -7.326,-27.214 c -2.004,-7.447 -7.897,-13.216 -15.384,-15.062 l -28.338,-6.986 -2.175,-34.149 122.291,1.945 L 4.238,-28.72 C 1.428,-19.405 0,-9.729 0,0" /></g><g
           transform="translate(306.9668,285.604)"
           id="g1066"><path
             id="path1068"
             style="fill:#b38456;fill-opacity:1;fill-rule:nonzero;stroke:none"
             d="m 0,0 v 65.335 c 0,6.922 -3.195,13.456 -8.658,17.706 L -22.94,94.152 c -5.076,3.949 -11.751,5.187 -17.905,3.323 L -58.59,92.099 c -4.281,-1.297 -7.866,-4.251 -9.956,-8.204 l -7.707,-14.573 10.566,-47.752 32.31,12.402 c 5.274,2.025 9.85,5.354 14.144,9.026 1.753,1.498 4.494,0.26 4.494,-2.079 V 14.777 c 0,-9.729 1.427,-19.405 4.238,-28.719 L 3.39,-59.936 28.343,-59.54 Z" /></g><g
           transform="translate(230.7139,354.9263)"
           id="g1070"><path
             id="path1072"
             style="fill:#fccaa3;fill-opacity:1;fill-rule:nonzero;stroke:none"
             d="m 0,0 -28.496,-12.33 c -5.524,-2.39 -7.845,-8.976 -5.042,-14.302 l 4.001,-7.6 c 2.884,-5.479 8.239,-9.227 14.375,-10.061 l 25.654,-3.487 c 6.18,-0.841 12.399,1.251 16.816,5.654 l 17.407,17.354 c 2.042,2.035 1.235,5.507 -1.494,6.434 -0.731,0.248 -1.52,0.273 -2.265,0.072 -5.25,-1.42 -10.834,0.514 -14.083,4.876 l -6.201,8.326 c -1.764,2.368 -2.397,5.393 -1.731,8.269 l 3.206,13.853 c 0.276,1.186 -1.358,1.801 -1.934,0.729 L 13.853,5.947 C 12.299,3.054 9.429,1.103 6.167,0.721 Z" /></g><g
           transform="translate(249.9985,325.9204)"
           id="g1074"><path
             id="path1076"
             style="fill:#442849;fill-opacity:1;fill-rule:nonzero;stroke:none"
             d="m 0,0 c -0.179,0.403 -0.648,0.584 -1.054,0.405 l -9.562,-4.259 c -8.243,-3.672 -17.751,-3.799 -26.089,-0.349 l -3.594,1.487 -1.309,3.7 0.063,2.965 c 0.009,0.44 -0.341,0.805 -0.782,0.815 -0.424,0 -0.805,-0.341 -0.815,-0.782 l -0.068,-3.256 1.357,-3.835 -0.379,-0.379 C -43.254,-4.51 -44.9,-4.555 -45.977,-3.59 l -2.305,2.064 c -0.328,0.295 -0.833,0.266 -1.127,-0.061 -0.294,-0.329 -0.266,-0.833 0.062,-1.127 l 2.305,-2.065 c 0.822,-0.737 1.853,-1.102 2.882,-1.102 1.109,0 2.216,0.424 3.056,1.265 l 0.358,0.358 3.431,-1.42 c 4.224,-1.748 8.734,-2.62 13.244,-2.62 4.821,0 9.64,0.997 14.104,2.985 l 9.563,4.259 C -0.002,-0.874 0.18,-0.402 0,0" /></g><g
           transform="translate(207.5894,326.7759)"
           id="g1078"><path
             id="path1080"
             style="fill:#442849;fill-opacity:1;fill-rule:nonzero;stroke:none"
             d="m 0,0 c -3.913,1.197 -7.173,4.408 -8.56,8.256 -0.5,1.388 0.388,2.91 1.843,3.158 5.915,1.008 12.076,0.554 17.782,-1.302 C 12.76,9.56 13.269,7.4 12.013,6.135 8.093,2.188 3.043,0.371 0,0" /></g><g
           transform="translate(273.1631,355.749)"
           id="g1082"><path
             id="path1084"
             style="fill:#442849;fill-opacity:1;fill-rule:nonzero;stroke:none"
             d="m 0,0 c 0,-2.521 -2.044,-4.564 -4.564,-4.564 -2.521,0 -4.565,2.043 -4.565,4.564 0,2.521 2.044,4.564 4.565,4.564 C -2.044,4.564 0,2.521 0,0" /></g><g
           transform="translate(277.6582,365.7388)"
           id="g1086"><path
             id="path1088"
             style="fill:#75563a;fill-opacity:1;fill-rule:nonzero;stroke:none"
             d="M 0,0 C 0.818,-0.184 1.74,-0.356 2.464,0.029 3.549,0.607 3.479,2.033 2.995,3.067 2.096,4.991 0.21,6.534 -2.03,7.18 -4.271,7.826 -6.824,7.563 -8.836,6.479 -10.799,5.421 -12.396,2.891 -9.456,2.125 -6.345,1.313 -3.145,0.707 0,0" /></g><g
           transform="translate(243.4038,362.3848)"
           id="g1090"><path
             id="path1092"
             style="fill:#442849;fill-opacity:1;fill-rule:nonzero;stroke:none"
             d="m 0,0 c 0,-2.236 -1.147,-4.049 -2.562,-4.049 -1.414,0 -2.561,1.813 -2.561,4.049 0,2.236 1.147,4.049 2.561,4.049 C -1.147,4.049 0,2.236 0,0" /></g><g
           transform="translate(248.7314,372.1729)"
           id="g1094"><path
             id="path1096"
             style="fill:#75563a;fill-opacity:1;fill-rule:nonzero;stroke:none"
             d="M 0,0 C 0.484,0.054 1.017,0.144 1.232,0.628 1.556,1.355 0.967,2.476 0.322,3.183 -0.878,4.496 -2.429,5.265 -3.81,5.23 -5.191,5.195 -6.378,4.359 -6.973,3 -7.553,1.674 -7.377,-0.736 -5.596,-0.626 -3.711,-0.509 -1.861,-0.208 0,0" /></g><g
           transform="translate(107.4741,222.4414)"
           id="g1098"><path
             id="path1100"
             style="fill:#ffae5f;fill-opacity:1;fill-rule:nonzero;stroke:none"
             d="m 0,0 301.149,4.789 -14.898,-86.727 -1.596,-77.681 H 5.853 l 8.247,66.242 -1.376,2.434 c -0.751,1.33 -0.72,2.963 0.083,4.261 l 2.889,4.678 -3.431,2.133 c -2.064,1.283 -2.475,4.116 -0.861,5.933 l 3.294,3.706 z" /></g><g
           transform="translate(393.7256,140.5039)"
           id="g1102"><path
             id="path1104"
             style="fill:#f3933a;fill-opacity:1;fill-rule:nonzero;stroke:none"
             d="m 0,0 -163.011,-49.748 29.132,1.235 c 18.06,0.766 35.814,4.929 52.332,12.27 z" /></g><g
           transform="translate(155.4932,105.1211)"
           id="g1106"><path
             id="path1108"
             style="fill:#f3933a;fill-opacity:1;fill-rule:nonzero;stroke:none"
             d="m 0,0 59.458,-6.783 -24.28,-4.842 c -8.797,-1.754 -17.929,0.066 -25.381,5.06 z" /></g><g
           transform="translate(125.6973,129.9951)"
           id="g1110"><path
             id="path1112"
             style="fill:#f3933a;fill-opacity:1;fill-rule:nonzero;stroke:none"
             d="M 0,0 38.043,3.192 22.277,-1.547 c -3.883,-1.167 -7.996,-1.355 -11.97,-0.548 z" /></g><g
           transform="translate(129.1558,153.0078)"
           id="g1114"><path
             id="path1116"
             style="fill:#f3933a;fill-opacity:1;fill-rule:nonzero;stroke:none"
             d="m 0,0 24.978,7.151 c 3.458,0.991 7.046,1.445 10.641,1.347 L 64.38,7.715 34.901,0.902 C 32.304,0.303 29.647,0 26.981,0 Z" /></g><g
           id="g1118"><g
             id="g1120" /><g
             id="g1132"><g
               id="g1130"
               opacity="0.5"
               clip-path="url(#clipPath1124)"><g
                 id="g1128"
                 transform="translate(151.9819,170.6689)"><path
                   id="path1126"
                   style="fill:#ffffff;fill-opacity:1;fill-rule:nonzero;stroke:none"
                   d="m 0,0 -2.142,0.229 1.526,3.336 -2.391,0.389 1.725,3.457 -2.19,0.467 1.458,3.767 -2.19,0.489 1.454,3.766 -1.72,0.623 1.053,3.235 -2.649,0.823 1.995,2.959 -32.219,-11.035 5.135,-24.537 31.674,9.036 -1.863,0.299 z" /></g></g></g></g><g
           transform="translate(357.8203,150.8418)"
           id="g1134"><path
             id="path1136"
             style="fill:#ffffff;fill-opacity:1;fill-rule:nonzero;stroke:none"
             d="m 0,0 -182.043,-37.749 -9.282,64.762 183.68,26.326 z" /></g></g></g><text
       id="text1140"
       style="font-variant:normal;font-weight:bold;font-stretch:normal;font-size:30.7718px;font-family:'Riffic Medium';-inkscape-font-specification:Riffic-Bold;writing-mode:lr-tb;fill:#442849;fill-opacity:1;fill-rule:nonzero;stroke:none"
       transform="matrix(0.98988433,0.14187676,0.14187676,-0.98988433,182.2251,140.578)"><tspan
         id="tspan1138"
         y="0"
         x="0 25.879065 47.388538 73.852264 92.623047 114.28638 123.51791 144.3781">ADOPT US</tspan></text><g
       id="g1142"><g
         clip-path="url(#clipPath1148)"
         id="g1144"><g
           transform="translate(107.4741,222.4414)"
           id="g1150"><path
             id="path1152"
             style="fill:#f3933a;fill-opacity:1;fill-rule:nonzero;stroke:none"
             d="M 0,0 -32.146,-69.434 11.266,-53.83 Z" /></g><g
           transform="translate(408.623,227.2305)"
           id="g1154"><path
             id="path1156"
             style="fill:#f3933a;fill-opacity:1;fill-rule:nonzero;stroke:none"
             d="M 0,0 25.007,-69.968 -9.878,-57.503 Z" /></g><g
           transform="translate(140.396,307.5723)"
           id="g1158"><path
             id="path1160"
             style="fill:#af3e58;fill-opacity:1;fill-rule:nonzero;stroke:none"
             d="m 0,0 -2.927,-12.907 1.464,-0.261 5.387,14.232 z" /></g><g
           transform="translate(130.9087,306.7075)"
           id="g1162"><path
             id="path1164"
             style="fill:#af3e58;fill-opacity:1;fill-rule:nonzero;stroke:none"
             d="M 0,0 0.575,-13.773 H 1.972 L 3.368,-0.399 Z" /></g><g
           transform="translate(155.6797,336.7148)"
           id="g1166"><path
             id="path1168"
             style="fill:#ffdc86;fill-opacity:1;fill-rule:nonzero;stroke:none"
             d="M 0,0 C 0.379,1 0.791,2.018 1.518,2.802 2.245,3.587 3.362,4.098 4.394,3.821 5.557,3.508 6.287,2.281 6.388,1.081 6.489,-0.118 6.091,-1.298 5.672,-2.427 3.667,-7.838 1.056,-13.024 -2.092,-17.861 c -0.411,-0.633 -1.605,-3.116 -2.398,-3.187 -1.327,-0.119 -0.502,2.263 -0.385,2.968 0.479,2.889 1.092,5.755 1.836,8.586 C -2.194,-6.279 -1.179,-3.108 0,0" /></g><g
           transform="translate(162.3872,335.8857)"
           id="g1170"><path
             id="path1172"
             style="fill:#ffd16b;fill-opacity:1;fill-rule:nonzero;stroke:none"
             d="M 0,0 C 0.693,0.903 1.424,1.814 2.399,2.377 3.374,2.94 4.655,3.088 5.605,2.451 6.675,1.734 7.024,0.219 6.751,-1.054 6.479,-2.326 5.71,-3.409 4.938,-4.432 1.235,-9.337 -3.005,-13.805 -7.676,-17.728 c -0.612,-0.514 -2.585,-2.671 -3.404,-2.475 -1.37,0.328 0.203,2.506 0.541,3.194 1.382,2.82 2.892,5.57 4.523,8.24 C -4.163,-5.737 -2.155,-2.809 0,0" /></g><g
           transform="translate(166.4175,331.4482)"
           id="g1174"><path
             id="path1176"
             style="fill:#ffaa59;fill-opacity:1;fill-rule:nonzero;stroke:none"
             d="M 0,0 C 0.84,0.662 1.717,1.323 2.744,1.622 3.77,1.92 4.991,1.783 5.734,1.014 6.57,0.148 6.563,-1.281 6.033,-2.361 5.502,-3.441 4.553,-4.248 3.614,-5 c -4.505,-3.607 -9.413,-6.71 -14.601,-9.236 -0.679,-0.331 -2.98,-1.845 -3.697,-1.498 -1.199,0.581 0.735,2.198 1.198,2.743 1.897,2.23 3.898,4.371 5.993,6.415 C -5.113,-4.254 -2.611,-2.058 0,0" /></g><g
           transform="translate(135.9844,305.0513)"
           id="g1178"><path
             id="path1180"
             style="fill:#ffd16b;fill-opacity:1;fill-rule:nonzero;stroke:none"
             d="m 0,0 c -7.673,-0.554 -15.508,3.379 -19.648,9.864 -4.139,6.485 -4.409,15.248 -0.675,21.974 2.094,3.776 5.494,6.968 9.657,8.111 4.164,1.142 9.065,-0.076 11.698,-3.498 4.449,-5.782 1.286,-15.068 5.885,-20.732 1.363,-1.68 3.362,-2.787 5.477,-3.191 1.471,-0.28 5.315,0.746 4.736,-1.694 C 16.701,9.029 14.29,6.885 12.974,5.686 11.304,4.163 9.403,2.895 7.355,1.939 5.045,0.862 2.545,0.184 0,0" /></g><g
           transform="translate(148.3784,317.5796)"
           id="g1182"><path
             id="path1184"
             style="fill:#ffaa59;fill-opacity:1;fill-rule:nonzero;stroke:none"
             d="m 0,0 c -1.854,0.354 -3.618,1.249 -4.944,2.595 -3.384,-1.59 -7.122,-2.429 -10.862,-2.379 -5.184,0.07 -10.331,1.826 -14.478,4.938 -1.983,1.488 -3.748,3.304 -4.985,5.449 -0.347,-4.621 0.731,-9.358 3.227,-13.268 4.14,-6.484 11.975,-10.418 19.648,-9.863 2.545,0.184 5.045,0.861 7.355,1.939 2.048,0.955 3.949,2.224 5.619,3.746 1.316,1.2 3.727,3.343 4.156,5.149 C 5.315,0.746 1.471,-0.28 0,0" /></g><g
           transform="translate(135.7275,335.3291)"
           id="g1186"><path
             id="path1188"
             style="fill:#af3e58;fill-opacity:1;fill-rule:nonzero;stroke:none"
             d="M 0,0 6.697,-3.298 -1.04,-3.705 c -1.239,-0.065 -2.108,1.205 -1.6,2.337 l 0.224,0.498 C -2.002,0.052 -0.906,0.446 0,0" /></g><g
           transform="translate(132.1821,338.8809)"
           id="g1190"><path
             id="path1192"
             style="fill:#442849;fill-opacity:1;fill-rule:nonzero;stroke:none"
             d="m 0,0 c 0,-1.074 -0.871,-1.945 -1.945,-1.945 -1.075,0 -1.946,0.871 -1.946,1.945 0,1.075 0.871,1.945 1.946,1.945 C -0.871,1.945 0,1.075 0,0" /></g><g
           transform="translate(95.6821,294.6655)"
           id="g1194"><path
             id="path1196"
             style="fill:#5a4a49;fill-opacity:1;fill-rule:nonzero;stroke:none"
             d="M 0,0 C 6.737,-3.188 15.25,-12.366 15.25,-12.366 L -0.579,-41.098 c -0.265,11.573 -7.847,20.549 -7.847,20.549 z" /></g><g
           transform="translate(95.6821,294.6655)"
           id="g1198"><path
             id="path1200"
             style="fill:#442849;fill-opacity:1;fill-rule:nonzero;stroke:none"
             d="m 0,0 -8.426,-20.549 c 0,0 2.086,-2.472 4.108,-6.492 C -0.378,-21.393 3.277,-12.913 0,0" /></g><g
           transform="translate(95.6821,294.6655)"
           id="g1202"><path
             id="path1204"
             style="fill:#5a4a49;fill-opacity:1;fill-rule:nonzero;stroke:none"
             d="m 0,0 c -0.227,-10.457 -4.009,-20.804 -10.578,-28.942 -1.234,-1.529 -2.868,-3.111 -4.825,-2.939 -2.332,0.203 -3.673,2.742 -4.24,5.013 -1.177,4.712 -0.886,9.78 0.824,14.326 z" /></g><g
           transform="translate(176.1821,313.4614)"
           id="g1206"><path
             id="path1208"
             style="fill:#5a4a49;fill-opacity:1;fill-rule:nonzero;stroke:none"
             d="M 0,0 C -4.952,-5.571 -9.192,-17.349 -9.192,-17.349 L 16.62,-37.592 c -4.285,10.753 -0.822,21.982 -0.822,21.982 z" /></g><g
           transform="translate(176.1821,313.4619)"
           id="g1210"><path
             id="path1212"
             style="fill:#442849;fill-opacity:1;fill-rule:nonzero;stroke:none"
             d="m 0,0 15.798,-15.611 c 0,0 -0.952,-3.092 -1.239,-7.582 C 8.722,-19.538 2.04,-13.166 0,0" /></g><g
           transform="translate(176.1821,313.4614)"
           id="g1214"><path
             id="path1216"
             style="fill:#5a4a49;fill-opacity:1;fill-rule:nonzero;stroke:none"
             d="m 0,0 c 4.302,-9.533 11.833,-17.574 21.064,-22.492 1.733,-0.924 3.856,-1.739 5.59,-0.816 2.066,1.1 2.306,3.961 1.939,6.273 -0.761,4.797 -3.013,9.347 -6.365,12.861 z" /></g><g
           transform="translate(92.7144,253.6748)"
           id="g1218"><path
             id="path1220"
             style="fill:#c8b8b0;fill-opacity:1;fill-rule:nonzero;stroke:none"
             d="m 0,0 6.725,18.591 c 3.54,9.79 11.846,17.085 22.011,19.334 l 30.582,6.764 c 9.372,2.073 19.167,-0.552 26.247,-7.033 l 19.311,-17.68 c 4.132,-3.783 5.451,-9.749 3.3,-14.922 l -9.309,-22.38 c -3.052,-7.337 -9.753,-12.516 -17.623,-13.618 l -43.872,-6.147 c -7.269,-1.018 -14.576,1.578 -19.572,6.955 L 2.862,-14.06 C -0.651,-10.279 -1.755,-4.853 0,0" /></g><g
           transform="translate(130.3242,276.3188)"
           id="g1222"><path
             id="path1224"
             style="fill:#8b7675;fill-opacity:1;fill-rule:nonzero;stroke:none"
             d="m 0,0 c 1.689,0.098 3.496,0.062 4.913,-0.863 1.994,-1.302 2.604,-3.953 2.591,-6.335 -0.029,-5.657 -2.74,-11.243 -7.166,-14.767 -1.74,-1.385 -3.765,-2.475 -5.961,-2.83 -2.195,-0.355 -4.571,0.086 -6.31,1.472 -1.603,1.278 -2.528,3.2 -3.4,5.056 -1.875,3.987 -2.502,8.458 0.154,12.305 1.585,2.295 4.081,3.831 6.798,4.38 C -5.538,-1.008 -2.959,-0.172 0,0" /></g><g
           transform="translate(130.6841,263.8813)"
           id="g1226"><path
             id="path1228"
             style="fill:#442849;fill-opacity:1;fill-rule:nonzero;stroke:none"
             d="m 0,0 c 0,-2.81 -2.278,-5.088 -5.088,-5.088 -2.809,0 -5.088,2.278 -5.088,5.088 0,2.81 2.279,5.088 5.088,5.088 C -2.278,5.088 0,2.81 0,0" /></g><g
           transform="translate(126.9766,278.4854)"
           id="g1230"><path
             id="path1232"
             style="fill:#8b7675;fill-opacity:1;fill-rule:nonzero;stroke:none"
             d="M 0,0 C 1.396,0.291 2.964,0.704 3.641,1.959 4.274,3.134 3.815,4.68 2.847,5.599 1.878,6.519 0.519,6.909 -0.809,7.051 -3.754,7.366 -6.805,6.57 -9.221,4.855 c -1.876,-1.331 -4.073,-5.536 -0.635,-6.543 1.192,-0.35 2.74,0.209 3.899,0.449 C -3.971,-0.826 -1.985,-0.413 0,0" /></g><g
           transform="translate(157.1558,281.1953)"
           id="g1234"><path
             id="path1236"
             style="fill:#8b7675;fill-opacity:1;fill-rule:nonzero;stroke:none"
             d="m 0,0 c -1.585,-0.592 -3.224,-1.353 -4.147,-2.771 -1.3,-1.996 -0.788,-4.668 0.184,-6.842 2.309,-5.165 7.043,-9.183 12.514,-10.622 2.151,-0.565 4.444,-0.745 6.596,-0.185 2.152,0.56 4.148,1.922 5.18,3.892 0.952,1.816 1.022,3.948 1.072,5.998 0.107,4.405 -1.122,8.749 -5.105,11.197 C 13.918,2.129 11.015,2.527 8.307,1.933 5.475,1.312 2.778,1.036 0,0" /></g><g
           transform="translate(161.8437,269.6694)"
           id="g1238"><path
             id="path1240"
             style="fill:#442849;fill-opacity:1;fill-rule:nonzero;stroke:none"
             d="M 0,0 C 1.133,-2.571 4.137,-3.737 6.708,-2.604 9.279,-1.47 10.444,1.533 9.311,4.104 8.178,6.676 5.174,7.841 2.603,6.708 0.032,5.574 -1.134,2.571 0,0" /></g><g
           transform="translate(159.3452,284.5283)"
           id="g1242"><path
             id="path1244"
             style="fill:#8b7675;fill-opacity:1;fill-rule:nonzero;stroke:none"
             d="m 0,0 c -1.394,-0.297 -2.996,-0.552 -4.121,0.324 -1.054,0.82 -1.258,2.419 -0.742,3.651 0.515,1.232 1.601,2.138 2.759,2.803 C 0.464,8.254 3.577,8.756 6.479,8.162 8.732,7.701 12.439,4.74 9.7,2.431 8.75,1.63 7.108,1.517 5.951,1.269 3.967,0.846 1.983,0.423 0,0" /></g><g
           transform="translate(136.9253,259.1533)"
           id="g1246"><path
             id="path1248"
             style="fill:#e1d5bc;fill-opacity:1;fill-rule:nonzero;stroke:none"
             d="m 0,0 -3.263,-1.196 c -2.513,-0.922 -4.726,-2.513 -6.398,-4.602 -2.131,-2.661 -5.122,-4.497 -8.459,-5.191 l -7.044,-1.465 c -3.228,-0.671 -5.715,-3.25 -6.269,-6.5 -0.426,-2.507 0.361,-5.067 2.124,-6.9 l 4.499,-4.679 c 5.487,-5.707 13.412,-8.381 21.236,-7.166 l 37.338,5.798 c 8.184,1.271 15.157,6.626 18.498,14.205 l 2.808,6.37 c 1.496,3.395 0.805,7.358 -1.755,10.045 C 51,1.15 47.543,2.125 44.299,1.263 L 41.544,0.53 C 38.038,-0.402 34.302,0.136 31.201,2.021 29.115,3.289 26.721,3.959 24.28,3.959 h -5.712 z" /></g><g
           transform="translate(128.3862,234.498)"
           id="g1250"><path
             id="path1252"
             style="fill:#ffffff;fill-opacity:1;fill-rule:nonzero;stroke:none"
             d="M 0,0 C 2.323,-0.363 4.708,-0.142 6.938,0.653 5.169,3.524 3.712,6.593 2.661,9.794 1.13,6.751 0.231,3.397 0,0" /></g><g
           transform="translate(177.3511,244.6982)"
           id="g1254"><path
             id="path1256"
             style="fill:#ffffff;fill-opacity:1;fill-rule:nonzero;stroke:none"
             d="m 0,0 c -1.991,2.684 -4.499,4.984 -7.361,6.708 0.825,-3.299 1.23,-6.704 1.258,-10.108 2.02,0.542 3.923,1.526 5.555,2.928 z" /></g><g
           transform="translate(185.7607,251.9268)"
           id="g1258"><path
             id="path1260"
             style="fill:#442849;fill-opacity:1;fill-rule:nonzero;stroke:none"
             d="m 0,0 c -0.287,0.333 -0.791,0.371 -1.125,0.085 l -8.353,-7.18 c -3.317,-2.851 -7.825,-3.897 -12.059,-2.798 l -7.414,1.925 c -1.737,0.451 -3.519,0.563 -5.267,0.384 l -1.046,7.179 c -0.064,0.436 -0.474,0.736 -0.905,0.675 -0.436,-0.064 -0.738,-0.469 -0.675,-0.905 l 1.049,-7.195 c -1.86,-0.394 -3.651,-1.123 -5.261,-2.207 l -6.673,-4.493 c -4.2,-2.828 -9.748,-3.021 -14.132,-0.489 l -5.518,3.185 c -0.384,0.221 -0.87,0.09 -1.091,-0.292 -0.22,-0.382 -0.089,-0.87 0.293,-1.091 l 5.518,-3.184 c 2.299,-1.328 4.883,-1.986 7.465,-1.986 2.93,0 5.858,0.85 8.357,2.533 l 6.672,4.493 c 3.171,2.135 7.114,2.808 10.813,1.848 l 7.414,-1.925 c 4.741,-1.232 9.788,-0.06 13.501,3.133 l 8.352,7.18 C 0.25,-0.838 0.287,-0.334 0,0" /></g><g
           transform="translate(136.083,258.6001)"
           id="g1262"><path
             id="path1264"
             style="fill:#442849;fill-opacity:1;fill-rule:nonzero;stroke:none"
             d="m 0,0 0.842,0.553 c 5.894,3.868 12.961,5.54 19.963,4.725 L 22.21,5.115 C 24.55,4.843 25.75,2.169 24.398,0.24 L 20.873,-4.792 C 17.996,-8.898 12.656,-10.462 8.018,-8.557 L 0.524,-5.478 C -1.79,-4.527 -2.092,-1.373 0,0" /></g><g
           transform="translate(201.5869,220.9463)"
           id="g1266"><path
             id="path1268"
             style="fill:#ffefd1;fill-opacity:1;fill-rule:nonzero;stroke:none"
             d="M 0,0 C -0.57,4.013 -2.096,8.161 -4.466,11.449 -5.989,9.647 -7.668,8.382 -9.191,6.581 c -0.629,2.334 -1.069,4.973 -0.888,7.383 -2.738,-0.737 -5.258,-2.191 -7.04,-4.396 -0.281,1.896 -0.163,3.848 0.331,5.7 -3.634,-3.373 -6.269,-7.834 -7.348,-12.678 -0.787,-3.534 -0.76,-7.328 0.617,-10.678 1.801,-4.377 5.958,-7.7 10.625,-8.491 4.667,-0.791 9.687,0.976 12.829,4.516 C 3.022,-8.585 4.277,-1.751 3.051,2.793 2.217,1.712 1.177,0.781 0,0" /></g><g
           transform="translate(225.001,224.3105)"
           id="g1270"><path
             id="path1272"
             style="fill:#96a5b2;fill-opacity:1;fill-rule:nonzero;stroke:none"
             d="m 0,0 c -1.842,7.013 -6.95,13.21 -13.554,16.202 -6.604,2.991 -14.552,2.842 -21.038,-0.397 -2.047,-1.023 -3.935,-2.347 -5.61,-3.902 -0.494,-1.851 -0.612,-3.803 -0.331,-5.699 1.782,2.205 4.302,3.658 7.04,4.396 -0.181,-2.411 0.259,-5.049 0.888,-7.383 1.522,1.801 3.202,3.066 4.725,4.868 2.37,-3.288 3.896,-7.437 4.466,-11.449 1.177,0.781 2.217,1.712 3.051,2.793 -0.022,0.081 -0.039,0.167 -0.062,0.247 l 0.253,0.004 z" /></g><g
           id="g1274"><g
             id="g1276" /><g
             id="g1288"><g
               id="g1286"
               opacity="0.300003"
               clip-path="url(#clipPath1280)"><g
                 id="g1284"
                 transform="translate(214.1084,229.0928)"><path
                   id="path1282"
                   style="fill:#442849;fill-opacity:1;fill-rule:nonzero;stroke:none"
                   d="M 0,0 C -1.898,1.609 -4.552,2.748 -7.02,2.429 -6.653,3.31 -6.375,4.439 -6.007,5.32 -7.936,4.123 -11.062,0.466 -9.533,-5.106 L 2.945,-4.908 C 2.517,-3.015 1.482,-1.257 0,0" /></g></g></g></g><g
           transform="translate(255.1221,238.3672)"
           id="g1290"><path
             id="path1292"
             style="fill:#96a5b2;fill-opacity:1;fill-rule:nonzero;stroke:none"
             d="m 0,0 -1.063,1.034 h -14.766 -14.765 l -0.872,-0.848 c -4.183,-4.067 -7.725,-8.744 -10.506,-13.872 l -0.306,-0.564 26.449,0.421 26.084,0.415 C 7.513,-8.465 4.058,-3.944 0,0" /></g><g
           transform="translate(239.2935,233.8145)"
           id="g1294"><path
             id="path1296"
             style="fill:#d7d0bf;fill-opacity:1;fill-rule:nonzero;stroke:none"
             d="m 0,0 c -6.356,0 -11.818,-3.901 -14.292,-9.504 l 28.374,0.451 C 11.518,-3.694 6.184,0 0,0" /></g><g
           id="g1298"><g
             id="g1300" /><g
             id="g1312"><g
               id="g1310"
               opacity="0.300003"
               clip-path="url(#clipPath1304)"><g
                 id="g1308"
                 transform="translate(254.0586,239.4014)"><path
                   id="path1306"
                   style="fill:#442849;fill-opacity:1;fill-rule:nonzero;stroke:none"
                   d="M 0,0 H -14.765 -29.53 l -0.873,-0.849 c -0.806,-0.784 -1.581,-1.597 -2.34,-2.425 4.786,-3.619 10.686,-5.666 16.874,-5.666 h 2.207 c 6.194,0 12.099,2.051 16.887,5.675 -0.703,0.76 -1.418,1.508 -2.162,2.231 z" /></g></g></g></g><g
           transform="translate(203.0679,306.019)"
           id="g1314"><path
             id="path1316"
             style="fill:#797d9c;fill-opacity:1;fill-rule:nonzero;stroke:none"
             d="m 0,0 v 0 c -1.291,-11.47 -0.582,-23.077 2.095,-34.304 l 0.743,-3.116 19.095,19.154 -3.28,5.422 C 14.994,-6.796 9.912,-1.733 3.851,1.904 2.257,2.86 0.208,1.847 0,0" /></g><g
           transform="translate(209.6196,294.8711)"
           id="g1318"><path
             id="path1320"
             style="fill:#ffa9ae;fill-opacity:1;fill-rule:nonzero;stroke:none"
             d="m 0,0 c 3.144,-2.655 5.925,-5.98 8.175,-9.796 l 1.691,-2.855 1.561,1.566 -4.449,7.323 C 4.065,1.053 0.116,5.217 -4.527,8.389 -5.246,0.236 -4.92,-7.925 -3.558,-15.971 c 0.133,-0.785 1.751,-7.454 1.903,-8.237 l 2.233,2.24 c -1.471,6.909 -2.325,13.952 -2.542,21.05 C -1.995,0.108 -0.785,0.663 0,0" /></g><g
           transform="translate(217.7949,285.0752)"
           id="g1322"><path
             id="path1324"
             style="fill:#ff889b;fill-opacity:1;fill-rule:nonzero;stroke:none"
             d="m 0,0 c -2.25,3.815 -5.032,7.141 -8.175,9.796 -0.785,0.663 -1.995,0.108 -1.964,-0.919 0.217,-7.097 1.071,-14.14 2.542,-21.049 l 9.287,9.317 z" /></g><g
           transform="translate(275.3086,306.019)"
           id="g1326"><path
             id="path1328"
             style="fill:#797d9c;fill-opacity:1;fill-rule:nonzero;stroke:none"
             d="m 0,0 v 0 c 1.29,-11.47 0.581,-23.077 -2.096,-34.304 l -0.743,-3.116 -19.095,19.154 3.281,5.422 c 3.66,6.048 8.741,11.111 14.802,14.748 C -2.257,2.86 -0.208,1.847 0,0" /></g><g
           transform="translate(268.7568,294.8711)"
           id="g1330"><path
             id="path1332"
             style="fill:#ffa9ae;fill-opacity:1;fill-rule:nonzero;stroke:none"
             d="m 0,0 c -3.144,-2.655 -5.925,-5.98 -8.176,-9.796 l -1.689,-2.855 -1.562,1.566 4.448,7.323 C -4.064,1.053 -0.116,5.217 4.526,8.389 5.246,0.236 4.92,-7.925 3.558,-15.971 3.425,-16.756 1.808,-23.425 1.654,-24.208 l -2.232,2.24 c 1.471,6.909 2.325,13.952 2.542,21.05 C 1.995,0.108 0.784,0.663 0,0" /></g><g
           transform="translate(260.5811,285.0752)"
           id="g1334"><path
             id="path1336"
             style="fill:#ff889b;fill-opacity:1;fill-rule:nonzero;stroke:none"
             d="M 0,0 C 2.251,3.815 5.032,7.141 8.176,9.796 8.96,10.459 10.171,9.904 10.14,8.877 9.923,1.78 9.068,-5.263 7.598,-12.172 l -9.287,9.317 z" /></g><g
           transform="translate(243.5283,291.3286)"
           id="g1338"><path
             id="path1340"
             style="fill:#96a5b2;fill-opacity:1;fill-rule:nonzero;stroke:none"
             d="m 0,0 h -8.47 c -9.857,0 -19.101,-4.785 -24.792,-12.833 l -4.753,-6.722 c -3.671,-5.191 -3.671,-12.132 0,-17.323 l 4.753,-6.722 c 5.691,-8.048 14.935,-12.833 24.792,-12.833 H 0 c 9.857,0 19.101,4.785 24.792,12.833 l 4.753,6.722 c 3.671,5.191 3.671,12.132 0,17.323 l -4.753,6.722 C 19.101,-4.785 9.857,0 0,0" /></g><g
           transform="translate(230.7144,267.8501)"
           id="g1342"><path
             id="path1344"
             style="fill:#442849;fill-opacity:1;fill-rule:nonzero;stroke:none"
             d="m 0,0 c 0,-1.809 -1.467,-3.275 -3.276,-3.275 -1.809,0 -3.275,1.466 -3.275,3.275 0,1.809 1.466,3.276 3.275,3.276 C -1.467,3.276 0,1.809 0,0" /></g><g
           transform="translate(252.8486,253.4341)"
           id="g1346"><path
             id="path1348"
             style="fill:#797d9c;fill-opacity:1;fill-rule:nonzero;stroke:none"
             d="m 0,0 c -0.312,0.312 -0.816,0.312 -1.129,0 l -2.867,-2.868 c -0.981,-0.981 -2.286,-1.521 -3.672,-1.521 -2.864,0 -5.194,2.33 -5.194,5.194 v 0.327 c 0,0.441 -0.358,0.798 -0.799,0.798 -0.44,0 -0.797,-0.357 -0.797,-0.798 V 0.805 c 0,-2.864 -2.331,-5.194 -5.194,-5.194 -1.388,0 -2.692,0.54 -3.673,1.521 L -26.193,0 c -0.311,0.312 -0.817,0.312 -1.128,0 -0.312,-0.312 -0.312,-0.817 0,-1.129 l 2.867,-2.867 c 1.283,-1.283 2.988,-1.989 4.802,-1.989 2.592,0 4.848,1.461 5.991,3.603 1.144,-2.142 3.4,-3.603 5.993,-3.603 1.813,0 3.518,0.706 4.8,1.989 L 0,-1.129 C 0.312,-0.817 0.312,-0.312 0,0" /></g><g
           transform="translate(229.6367,275.3848)"
           id="g1350"><path
             id="path1352"
             style="fill:#797d9c;fill-opacity:1;fill-rule:nonzero;stroke:none"
             d="M 0,0 C 0.703,-0.179 1.447,-0.473 2.125,-0.215 2.897,0.077 3.264,1.037 3.087,1.844 2.911,2.651 2.311,3.305 1.638,3.784 -0.602,5.38 -3.91,5.263 -6.032,3.512 -6.54,3.093 -6.99,2.579 -7.221,1.962 -7.76,0.516 -6.587,-1.163 -5.013,-0.646 -3.291,-0.08 -1.856,0.474 0,0" /></g><g
           transform="translate(247.6621,267.8501)"
           id="g1354"><path
             id="path1356"
             style="fill:#442849;fill-opacity:1;fill-rule:nonzero;stroke:none"
             d="m 0,0 c 0,-1.809 1.466,-3.275 3.275,-3.275 1.809,0 3.276,1.466 3.276,3.275 0,1.809 -1.467,3.276 -3.276,3.276 C 1.466,3.276 0,1.809 0,0" /></g><g
           transform="translate(248.7393,275.3848)"
           id="g1358"><path
             id="path1360"
             style="fill:#797d9c;fill-opacity:1;fill-rule:nonzero;stroke:none"
             d="m 0,0 c -0.702,-0.179 -1.447,-0.473 -2.125,-0.215 -0.771,0.292 -1.139,1.252 -0.962,2.059 0.176,0.807 0.776,1.461 1.449,1.94 C 0.602,5.38 3.91,5.263 6.031,3.512 6.54,3.093 6.99,2.579 7.221,1.962 7.76,0.516 6.587,-1.163 5.013,-0.646 3.29,-0.08 1.856,0.474 0,0" /></g><g
           transform="translate(225.001,257.1592)"
           id="g1362"><path
             id="path1364"
             style="fill:#c4d3d8;fill-opacity:1;fill-rule:nonzero;stroke:none"
             d="M 0,0 C -5.069,0.813 -13.287,0.813 -18.356,0 -13.287,-0.814 -5.069,-0.814 0,0" /></g><g
           transform="translate(224.623,259.208)"
           id="g1366"><path
             id="path1368"
             style="fill:#c4d3d8;fill-opacity:1;fill-rule:nonzero;stroke:none"
             d="M 0,0 C -4.629,2.22 -12.509,4.554 -17.601,5.213 -12.971,2.994 -5.091,0.659 0,0" /></g><g
           transform="translate(224.623,255.1104)"
           id="g1370"><path
             id="path1372"
             style="fill:#c4d3d8;fill-opacity:1;fill-rule:nonzero;stroke:none"
             d="M 0,0 C -5.091,-0.66 -12.971,-2.994 -17.601,-5.213 -12.509,-4.554 -4.629,-2.22 0,0" /></g><g
           transform="translate(253.375,257.1592)"
           id="g1374"><path
             id="path1376"
             style="fill:#c4d3d8;fill-opacity:1;fill-rule:nonzero;stroke:none"
             d="M 0,0 C 5.069,0.813 13.287,0.813 18.356,0 13.287,-0.814 5.069,-0.814 0,0" /></g><g
           transform="translate(253.7529,259.208)"
           id="g1378"><path
             id="path1380"
             style="fill:#c4d3d8;fill-opacity:1;fill-rule:nonzero;stroke:none"
             d="M 0,0 C 4.629,2.22 12.509,4.554 17.601,5.213 12.972,2.994 5.092,0.659 0,0" /></g><g
           transform="translate(253.7529,255.1104)"
           id="g1382"><path
             id="path1384"
             style="fill:#c4d3d8;fill-opacity:1;fill-rule:nonzero;stroke:none"
             d="M 0,0 C 5.092,-0.66 12.972,-2.994 17.601,-5.213 12.509,-4.554 4.629,-2.22 0,0" /></g><g
           transform="translate(243.5605,260.3516)"
           id="g1386"><path
             id="path1388"
             style="fill:#442849;fill-opacity:1;fill-rule:nonzero;stroke:none"
             d="m 0,0 h -8.745 c -1.568,0 -2.384,-1.6 -1.32,-2.586 l 1.924,-1.786 c 1.016,-0.942 2.392,-1.414 3.768,-1.414 1.377,0 2.753,0.472 3.769,1.414 l 1.925,1.786 C 2.384,-1.6 1.568,0 0,0" /></g><g
           transform="translate(227.1851,287.3013)"
           id="g1390"><path
             id="path1392"
             style="fill:#797d9c;fill-opacity:1;fill-rule:nonzero;stroke:none"
             d="m 0,0 c 0.428,-0.738 1.346,-1.072 2.2,-1.059 0.853,0.015 1.672,0.313 2.487,0.567 4.754,1.484 9.953,1.513 14.723,0.081 0.598,-0.179 1.199,-0.382 1.823,-0.406 0.623,-0.024 1.289,0.162 1.691,0.639 0.578,0.686 0.42,1.776 -0.132,2.482 C 22.257,2.99 21.441,3.388 20.63,3.711 19.22,3.912 17.79,4.027 16.343,4.027 H 7.874 C 6.659,4.027 5.454,3.953 4.263,3.811 3.609,3.566 2.966,3.296 2.338,2.991 1.243,2.458 -0.95,1.638 0,0" /></g><g
           transform="translate(232.1108,282.6904)"
           id="g1394"><path
             id="path1396"
             style="fill:#797d9c;fill-opacity:1;fill-rule:nonzero;stroke:none"
             d="m 0,0 c 0.245,-0.423 0.771,-0.614 1.26,-0.606 0.489,0.008 0.957,0.179 1.424,0.325 2.723,0.849 5.7,0.865 8.433,0.046 0.342,-0.103 0.686,-0.219 1.043,-0.233 0.358,-0.013 0.739,0.093 0.969,0.366 C 13.46,0.291 13.37,0.915 13.054,1.32 12.738,1.725 12.252,1.955 11.774,2.143 8.438,3.453 4.559,3.278 1.339,1.713 0.712,1.408 -0.544,0.938 0,0" /></g><g
           transform="translate(226.6567,222.7744)"
           id="g1398"><path
             id="path1400"
             style="fill:#ffefd1;fill-opacity:1;fill-rule:nonzero;stroke:none"
             d="m 0,0 c 0,-3.6 -3.647,-6.518 -8.147,-6.518 -4.5,0 -8.147,2.918 -8.147,6.518 0,3.6 3.647,6.518 8.147,6.518 C -3.647,6.518 0,3.6 0,0" /></g><g
           transform="translate(251.9297,222.7744)"
           id="g1402"><path
             id="path1404"
             style="fill:#ffefd1;fill-opacity:1;fill-rule:nonzero;stroke:none"
             d="m 0,0 c 0,-3.6 3.647,-6.518 8.147,-6.518 4.5,0 8.148,2.918 8.148,6.518 0,3.6 -3.648,6.518 -8.148,6.518 C 3.647,6.518 0,3.6 0,0" /></g><g
           transform="translate(352.4639,321.0376)"
           id="g1406"><path
             id="path1408"
             style="fill:#442849;fill-opacity:1;fill-rule:nonzero;stroke:none"
             d="m 0,0 v 0 c 0,2.201 2.316,3.633 4.285,2.649 l 14.893,-7.44 c 8.882,-4.438 15.117,-12.842 16.789,-22.628 l 4.956,-29.009 c 0.39,-2.287 -2.013,-4.028 -4.064,-2.943 l -16.916,8.944 z" /></g><g
           transform="translate(312.8516,261.3359)"
           id="g1410"><path
             id="path1412"
             style="fill:#be4e5a;fill-opacity:1;fill-rule:nonzero;stroke:none"
             d="m 0,0 1.743,-8.308 c 1.194,-5.683 -1.242,-11.514 -6.124,-14.661 l -5.681,-3.661 c -3.035,-1.957 -5.82,-4.277 -8.292,-6.91 l -2.27,-2.416 97.499,1.55 -12.244,13.225 c -2.978,3.216 -5.109,7.121 -6.201,11.366 L 55.068,3.239 Z" /></g><g
           id="g1414"><g
             id="g1416" /><g
             id="g1428"><g
               id="g1426"
               opacity="0.5"
               clip-path="url(#clipPath1420)"><g
                 id="g1424"
                 transform="translate(342.2178,240.9619)"><path
                   id="path1422"
                   style="fill:#442849;fill-opacity:1;fill-rule:nonzero;stroke:none"
                   d="m 0,0 17.46,4.359 c 4.537,1.132 8.507,3.811 11.261,7.531 l -3.019,11.723 -55.068,-3.239 1.252,-5.967 13.968,-11.282 C -10.182,-0.077 -4.944,-1.233 0,0" /></g></g></g></g><g
           transform="translate(300.5469,312.228)"
           id="g1430"><path
             id="path1432"
             style="fill:#be4e5a;fill-opacity:1;fill-rule:nonzero;stroke:none"
             d="m 0,0 c 9.176,5.327 27.898,10.325 40.948,12.063 6.321,0.842 12.558,-2.014 16.019,-7.368 l 19.225,-29.749 c 3.216,-4.975 3.466,-11.307 0.654,-16.521 l -2.472,-4.581 c -3.268,-6.055 -8.977,-10.417 -15.678,-11.977 l -15.844,-3.689 c -5.268,-1.226 -10.795,-0.637 -15.686,1.672 L 3.791,-49.116 Z" /></g><g
           transform="translate(376.7393,287.1743)"
           id="g1434"><path
             id="path1436"
             style="fill:#ffb19a;fill-opacity:1;fill-rule:nonzero;stroke:none"
             d="m 0,0 -1.809,2.799 c -5.656,0.348 -12.125,-0.083 -18.725,-1.155 -4.56,-0.741 -8.979,1.838 -10.642,6.148 -3.862,10.009 -10.102,20.832 -14.622,27.469 -2.09,-0.445 -4.216,-0.941 -6.337,-1.477 3.998,-6.749 8.58,-18.214 11.278,-28.698 1.13,-4.399 -1.023,-8.998 -5.176,-10.836 -6.147,-2.722 -11.408,-5.972 -14.951,-9.589 -0.995,-1.015 -1.321,-2.506 -0.858,-3.848 l 2.082,-6.036 c 1.268,-3.672 3.962,-6.677 7.475,-8.336 l 3.259,-1.538 c 4.89,-2.308 10.418,-2.898 15.685,-1.671 l 15.845,3.689 c 6.701,1.56 12.41,5.922 15.678,11.977 l 2.471,4.581 C 3.466,-11.308 3.216,-4.976 0,0" /></g><g
           transform="translate(324.1914,293.4229)"
           id="g1438"><path
             id="path1440"
             style="fill:#442849;fill-opacity:1;fill-rule:nonzero;stroke:none"
             d="m 0,0 c 0,-1.901 -1.541,-3.442 -3.442,-3.442 -1.901,0 -3.442,1.541 -3.442,3.442 0,1.901 1.541,3.441 3.442,3.441 C -1.541,3.441 0,1.901 0,0" /></g><g
           transform="translate(358.1104,301.2539)"
           id="g1442"><path
             id="path1444"
             style="fill:#442849;fill-opacity:1;fill-rule:nonzero;stroke:none"
             d="m 0,0 c 0,-1.901 -1.541,-3.442 -3.442,-3.442 -1.901,0 -3.442,1.541 -3.442,3.442 0,1.901 1.541,3.442 3.442,3.442 C -1.541,3.442 0,1.901 0,0" /></g><g
           transform="translate(319.1846,305.7808)"
           id="g1446"><path
             id="path1448"
             style="fill:#ffb19a;fill-opacity:1;fill-rule:nonzero;stroke:none"
             d="M 0,0 C 0.687,0.042 1.383,0.022 2.059,0.16 2.733,0.297 3.405,0.618 3.789,1.19 4.388,2.083 4.088,3.368 3.335,4.136 2.582,4.904 1.489,5.241 0.423,5.381 -2.407,5.752 -5.379,4.876 -7.556,3.029 -8.218,2.467 -8.818,1.805 -9.163,1.008 -9.507,0.21 -9.568,-0.739 -9.18,-1.516 c 0.337,-0.673 1.148,-1.264 1.93,-1.24 0.765,0.023 1.396,0.746 2.025,1.124 C -3.646,-0.684 -1.839,-0.113 0,0" /></g><g
           transform="translate(348.8359,313.2617)"
           id="g1450"><path
             id="path1452"
             style="fill:#ffb19a;fill-opacity:1;fill-rule:nonzero;stroke:none"
             d="m 0,0 c -0.524,-0.22 -1.027,-0.497 -1.587,-0.627 -0.559,-0.13 -1.198,-0.096 -1.74,0.27 -0.846,0.572 -1.207,1.83 -1.001,2.796 0.206,0.967 0.857,1.676 1.579,2.2 1.914,1.389 4.498,1.72 6.936,0.889 C 4.93,5.274 5.672,4.909 6.287,4.327 6.901,3.745 7.377,2.922 7.443,2.084 7.501,1.357 7.172,0.528 6.585,0.256 6.012,-0.01 5.219,0.399 4.585,0.5 2.993,0.755 1.405,0.588 0,0" /></g><g
           transform="translate(322.2959,269.6294)"
           id="g1454"><path
             id="path1456"
             style="fill:#442849;fill-opacity:1;fill-rule:nonzero;stroke:none"
             d="m 0,0 9.7,-2.952 c 4.279,-1.301 8.926,-0.226 12.198,2.822 l 2.303,2.145 c 1.409,1.313 1.874,3.353 1.173,5.148 l -1.432,3.661 1.697,0.599 1.898,-4.313 c 0.65,-1.476 2.012,-2.515 3.608,-2.754 l 2.898,-0.432 c 5.001,-0.745 9.96,1.585 12.578,5.91 l 2.661,4.395 -3.85,-12.311 C 43.854,-3.128 39.805,-7.018 34.698,-8.394 l -6.655,-1.792 C 24.26,-11.205 20.23,-10.749 16.77,-8.911 Z" /></g><g
           transform="translate(367.1758,254.9004)"
           id="g1458"><path
             id="path1460"
             style="fill:#ff6b87;fill-opacity:1;fill-rule:nonzero;stroke:none"
             d="M 0,0 C -0.513,2.588 -1.088,5.191 -2.197,7.585 -2.59,8.432 -3.06,9.251 -3.6,10.017 c -0.987,1.4 -2.218,2.612 -3.711,3.439 -3.504,1.941 -7.937,1.482 -11.585,-0.176 -2.433,-1.107 -4.696,-2.779 -6.012,-5.105 -0.568,-1.002 -0.916,-2.138 -1.034,-3.286 2.183,-0.762 4.508,-1.032 6.805,-0.779 V 4.109 c 0.804,-3.222 1.051,-6.892 1.387,-10.196 0.337,-3.303 1.27,-6.755 3.713,-9.004 1.674,-1.541 3.978,-2.374 6.251,-2.26 2.271,0.115 4.481,1.174 5.992,2.875 1.677,1.887 2.447,4.446 2.586,6.966 C 0.932,-4.99 0.49,-2.476 0,0" /></g><g
           transform="translate(350.1475,288.5654)"
           id="g1462"><path
             id="path1464"
             style="fill:#442849;fill-opacity:1;fill-rule:nonzero;stroke:none"
             d="m 0,0 c -4.764,-0.577 -9.428,-1.98 -13.721,-4.126 -1.579,-0.79 -1.455,-3.091 0.192,-3.73 1.642,-0.638 3.336,-1.146 5.025,-1.386 1.775,-0.252 3.633,-0.33 5.314,0.296 1.75,0.652 3.158,2.023 4.184,3.584 0.499,0.758 0.875,1.695 1.207,2.658 C 2.699,-1.259 1.517,0.184 0,0" /></g><g
           transform="translate(288.0908,306.6616)"
           id="g1466"><path
             id="path1468"
             style="fill:#442849;fill-opacity:1;fill-rule:nonzero;stroke:none"
             d="m 0,0 9.01,8.404 c 1.851,1.727 4.881,0.627 5.193,-1.885 l 4.411,-35.526 c 1.045,-8.422 -1.057,-16.933 -5.904,-23.899 l -2.745,-3.945 c -1.431,-2.056 -4.597,-1.581 -5.362,0.804 l -10.596,33.05 C -8.616,-14.817 -6.281,-5.859 0,0" /></g><g
           transform="translate(316.4492,225.7646)"
           id="g1470"><path
             id="path1472"
             style="fill:#442849;fill-opacity:1;fill-rule:nonzero;stroke:none"
             d="m 0,0 v 0 c 1.63,3.434 5.039,5.672 8.838,5.803 l 9.238,0.318 c 2.368,0.082 4.579,-1.184 5.709,-3.267 l 2.563,-4.727 c 0.971,-1.792 0.873,-3.975 -0.257,-5.672 -0.834,-1.254 -2.146,-2.11 -3.629,-2.371 l -6.953,-1.222 c -4.266,-0.749 -8.576,1.059 -11.031,4.628 z" /></g><g
           transform="translate(376.2207,225.7646)"
           id="g1474"><path
             id="path1476"
             style="fill:#442849;fill-opacity:1;fill-rule:nonzero;stroke:none"
             d="m 0,0 v 0 c 1.63,3.434 5.039,5.672 8.837,5.803 l 9.238,0.318 c 2.369,0.082 4.58,-1.184 5.709,-3.267 l 2.564,-4.727 c 0.971,-1.792 0.873,-3.975 -0.257,-5.672 -0.834,-1.254 -2.147,-2.11 -3.629,-2.371 l -6.953,-1.222 c -4.266,-0.749 -8.577,1.059 -11.031,4.628 z" /></g><g
           transform="translate(427.0469,56.8428)"
           id="g1478"><path
             id="path1480"
             style="fill:#41aabe;fill-opacity:1;fill-rule:nonzero;stroke:none"
             d="m 0,0 h -345.136 c -1.651,0 -2.989,1.339 -2.989,2.99 0,1.651 1.338,2.989 2.989,2.989 H 0 C 1.651,5.979 2.989,4.641 2.989,2.99 2.989,1.339 1.651,0 0,0" /></g></g></g></g></svg>
