<?xml version="1.0" encoding="UTF-8" standalone="no"?>
<svg
   xmlns:dc="http://purl.org/dc/elements/1.1/"
   xmlns:cc="http://creativecommons.org/ns#"
   xmlns:rdf="http://www.w3.org/1999/02/22-rdf-syntax-ns#"
   xmlns:svg="http://www.w3.org/2000/svg"
   xmlns="http://www.w3.org/2000/svg"
   viewBox="0 0 1000 666.66669"
   height="666.66669"
   width="1000"
   xml:space="preserve"
   id="svg10"
   version="1.1"><metadata
     id="metadata16"><rdf:RDF><cc:Work
         rdf:about=""><dc:format>image/svg+xml</dc:format><dc:type
           rdf:resource="http://purl.org/dc/dcmitype/StillImage" /><dc:title></dc:title></cc:Work></rdf:RDF></metadata><defs
     id="defs14"><clipPath
       id="clipPath28"
       clipPathUnits="userSpaceOnUse"><path
         id="path26"
         d="M 0,500 H 750 V 0 H 0 Z" /></clipPath><clipPath
       id="clipPath56"
       clipPathUnits="userSpaceOnUse"><path
         id="path54"
         d="M 0,500 H 750 V 0 H 0 Z" /></clipPath><clipPath
       id="clipPath176"
       clipPathUnits="userSpaceOnUse"><path
         id="path174"
         d="M 0,500 H 750 V 0 H 0 Z" /></clipPath><clipPath
       id="clipPath194"
       clipPathUnits="userSpaceOnUse"><path
         id="path192"
         d="M 0,500 H 750 V 0 H 0 Z" /></clipPath><clipPath
       id="clipPath210"
       clipPathUnits="userSpaceOnUse"><path
         id="path208"
         d="M 0,500 H 750 V 0 H 0 Z" /></clipPath><clipPath
       id="clipPath342"
       clipPathUnits="userSpaceOnUse"><path
         id="path340"
         d="M 0,500 H 750 V 0 H 0 Z" /></clipPath><clipPath
       id="clipPath374"
       clipPathUnits="userSpaceOnUse"><path
         id="path372"
         d="M 0,500 H 750 V 0 H 0 Z" /></clipPath><clipPath
       id="clipPath546"
       clipPathUnits="userSpaceOnUse"><path
         id="path544"
         d="M 0,500 H 750 V 0 H 0 Z" /></clipPath><clipPath
       id="clipPath656"
       clipPathUnits="userSpaceOnUse"><path
         id="path654"
         d="M 0,500 H 750 V 0 H 0 Z" /></clipPath></defs><g
     transform="matrix(1.3333333,0,0,-1.3333333,0,666.66667)"
     id="g18"><path
       id="path20"
       style="fill:#ffffff;fill-opacity:1;fill-rule:nonzero;stroke:none;stroke-width:0.992537"
       d="M 12.4941,-1.3143249 H 751.34169 V 498.68568 H 12.4941 Z" /><g
       id="g22"><g
         clip-path="url(#clipPath28)"
         id="g24"><g
           transform="translate(189.65,379.818)"
           id="g30"><path
             id="path32"
             style="fill:#e5a87a;fill-opacity:1;fill-rule:nonzero;stroke:none"
             d="m 0,0 c 0,0 8.378,11.999 10.113,13.098 1.735,1.099 5.73,-0.152 5.102,3.649 -0.601,3.644 -4.704,2.19 -4.704,2.19 0,0 -0.493,2.782 -3.725,2.191 C 3.554,20.537 6.28,15.15 6.28,15.15 L -3.728,-0.685 Z" /></g></g></g><text
       id="text42"
       style="font-variant:normal;font-weight:normal;font-stretch:normal;font-size:8.5828px;font-family:Montserrat;-inkscape-font-specification:Montserrat-Regular;writing-mode:lr-tb;fill:#564768;fill-opacity:1;fill-rule:nonzero;stroke:none"
       transform="matrix(1,0,0,-1,215.8018,312.624)"><tspan
         y="0"
         id="tspan40"
         x="0">Un animal de companie te ajută să</tspan><tspan
         id="tspan781"
         y="10.7285"
         x="0">faci in medie 10.000 de pași/zi. </tspan></text><text
       id="text48"
       style="font-variant:normal;font-weight:800;font-stretch:normal;font-size:13.9349px;font-family:'Montserrat ExtraBold';-inkscape-font-specification:Montserrat-ExtraBold;writing-mode:lr-tb;fill:#e6412d;fill-opacity:1;fill-rule:nonzero;stroke:none"
       transform="matrix(1,0,0,-1,215.8027,345.6543)"><tspan
         y="0"
         x="0"
         id="tspan46">TE ȚIN ÎN FORMĂ</tspan><tspan
         id="tspan768"
         y="17.418625"
         x="0">ȘI RĂMÂI ACTIV</tspan></text><g
       id="g50"><g
         clip-path="url(#clipPath56)"
         id="g52"><g
           transform="translate(199.3077,278.8978)"
           id="g58"><path
             id="path60"
             style="fill:#e6e7e8;fill-opacity:1;fill-rule:nonzero;stroke:none"
             d="m 0,0 c 0,-5.469 -33.381,-9.902 -74.558,-9.902 -41.178,0 -74.558,4.433 -74.558,9.902 0,5.469 33.38,9.902 74.558,9.902 C -33.381,9.902 0,5.469 0,0" /></g><g
           transform="translate(108.1641,351.9353)"
           id="g62"><path
             id="path64"
             style="fill:#625772;fill-opacity:1;fill-rule:nonzero;stroke:none"
             d="m 0,0 c 0,0 -23.073,2.06 -33.777,-13.437 -8.489,-12.291 -14.617,-26.979 -24.048,-26.979 0,-7.631 24.268,-15.442 30.429,10.107 C -21.234,-4.76 0,0 0,0" /></g><g
           transform="translate(175.3399,339.5149)"
           id="g66"><path
             id="path68"
             style="fill:#efbc8f;fill-opacity:1;fill-rule:nonzero;stroke:none"
             d="m 0,0 c 0.537,-3.816 1.788,-14.313 -5.857,-26.125 l -1.995,-28.056 c 0,0 7.618,4.194 7.618,-5.804 h -13.208 c 0,0 -11.262,44.498 -0.911,61.811 C -10.108,8.925 -1.562,11.092 0,0" /></g><g
           transform="translate(119.0406,329.3983)"
           id="g70"><path
             id="path72"
             style="fill:#efbc8f;fill-opacity:1;fill-rule:nonzero;stroke:none"
             d="m 0,0 c 0.537,-3.816 -2.361,-12.892 -11.801,-21.926 l -1.103,-22.139 c 0,0 7.617,4.195 7.617,-5.803 h -13.207 c 0,0 -11.263,44.498 -0.912,61.81 C -15.161,19.042 -1.562,11.092 0,0" /></g><g
           transform="translate(174.7714,342.8439)"
           id="g74"><path
             id="path76"
             style="fill:#fcd8b4;fill-opacity:1;fill-rule:nonzero;stroke:none"
             d="m 0,0 c -3.334,11.231 -50.639,13.809 -75.855,8.77 -17.734,-3.543 -16.206,-21.054 -16.206,-21.054 0,0 44.33,-13.512 70.126,-10.002 C 0.322,-19.258 1.943,-6.546 0,0" /></g><g
           transform="translate(107.1809,326.2862)"
           id="g78"><path
             id="path80"
             style="fill:#fcd8b4;fill-opacity:1;fill-rule:nonzero;stroke:none"
             d="m 0,0 c -1.836,-7.983 -4.974,-15.277 -13.744,-18.672 l -1.952,-25.176 c 0,0 7.617,4.194 7.617,-5.804 h -13.207 c 0,0 -11.263,44.499 -0.912,61.811 C -17.953,19.258 2.511,10.916 0,0" /></g><g
           transform="translate(174.1668,332.7559)"
           id="g82"><path
             id="path84"
             style="fill:#fcd8b4;fill-opacity:1;fill-rule:nonzero;stroke:none"
             d="m 0,0 c 0,0 -3.561,-13.603 -18.96,-20.973 l -2.37,-29.345 c 0,0 7.617,4.195 7.617,-5.803 H -26.92 c 0,0 -11.263,44.498 -0.912,61.81 C -23.587,12.789 -1.562,11.092 0,0" /></g><g
           transform="translate(165.3837,392.9513)"
           id="g86"><path
             id="path88"
             style="fill:#625772;fill-opacity:1;fill-rule:nonzero;stroke:none"
             d="M 0,0 C 0,0 -7.487,10.122 -10.762,10.224 -14.704,10.348 -9.006,-3.809 -8.55,-4.654 -8.094,-5.498 1.322,-1.402 0,0" /></g><g
           transform="translate(190.8541,398.0706)"
           id="g90"><path
             id="path92"
             style="fill:#fcd8b4;fill-opacity:1;fill-rule:nonzero;stroke:none"
             d="m 0,0 c 0,0 4.359,-4.707 4.378,-9.412 0.018,-4.705 -2.022,-6.346 -2.022,-6.346 0,0 2.018,-2.851 0.857,-4.471 -1.161,-1.62 -13.107,-6.685 -13.409,-12.574 -0.649,-12.67 -5.968,-31.122 -5.968,-31.122 0,0 -39.022,17.994 -29.441,19.85 9.58,1.855 6.486,15.296 3.979,20.702 -2.506,5.405 -1.46,13.256 6.617,16.667 8.077,3.411 14.428,1.489 16.643,-0.343 C -16.151,-8.881 -1.786,1.129 0,0" /></g><g
           transform="translate(172.4881,391.0215)"
           id="g94"><path
             id="path96"
             style="fill:#625772;fill-opacity:1;fill-rule:nonzero;stroke:none"
             d="m 0,0 c -2.215,1.832 -8.566,3.754 -16.643,0.343 -8.077,-3.41 -9.123,-11.262 -6.617,-16.667 2.507,-5.406 5.601,-18.847 -3.979,-20.702 -0.633,-0.123 -1.048,-0.317 -1.282,-0.57 -15.156,1.293 -32.737,0.65 -45.051,-1.811 -13.319,-2.661 -15.772,-13.2 -16.169,-18.283 -1.789,-5.637 -2.287,-12.712 -2.094,-19.932 0.925,0.189 15.799,3.441 21.554,17.555 0,0 42.523,-11.612 58.846,-0.094 C 5.352,-48.318 5.15,-26.65 4.597,-21.874 3.272,-10.415 4.07,-3.503 17.065,1.552 18.577,2.14 19.731,2.985 20.609,4.004 19.497,5.824 18.366,7.049 18.366,7.049 16.58,8.178 2.215,-1.832 0,0" /></g><g
           transform="translate(190.6185,399.3007)"
           id="g98"><path
             id="path100"
             style="fill:#4c435b;fill-opacity:1;fill-rule:nonzero;stroke:none"
             d="M 0,0 C 1.1,0.211 3.697,-1.891 3.869,-4.065 4.04,-6.24 1.314,-6.86 -1.066,-6.727 -3.445,-6.594 -1.845,-0.353 0,0" /></g><g
           transform="translate(157.6187,392.2043)"
           id="g102"><path
             id="path104"
             style="fill:#625772;fill-opacity:1;fill-rule:nonzero;stroke:none"
             d="m 0,0 c 0,0 -7.118,6.669 -10.367,7.094 -4.952,0.648 2.884,-17.349 3.323,-18.203 C -5.856,-13.418 4.218,-3.221 0,0" /></g><g
           transform="translate(152.272,382.4399)"
           id="g106"><path
             id="path108"
             style="fill:#fcd8b4;fill-opacity:1;fill-rule:nonzero;stroke:none"
             d="M 0,0 C -1.6,2.96 -6.578,13.244 -3.502,12.59 0.132,11.817 3.516,7.606 4.737,4.925 3.029,3.966 1.52,2.221 0,0" /></g><g
           transform="translate(182.8006,381.0028)"
           id="g110"><path
             id="path112"
             style="fill:#625772;fill-opacity:1;fill-rule:nonzero;stroke:none"
             d="M 0,0 C 5.299,-0.791 11.527,2.933 11.529,2.934 10.99,1.784 10.41,1.31 10.41,1.31 c 0,0 0.241,-0.344 0.508,-0.856 C 3.511,-4.707 -5.3,0.791 0,0" /></g><g
           transform="translate(164.0441,383.9016)"
           id="g114"><path
             id="path116"
             style="fill:#4c435b;fill-opacity:1;fill-rule:nonzero;stroke:none"
             d="m 0,0 c -0.306,0 -0.602,0.166 -0.754,0.456 -0.324,0.62 -0.385,1.329 -0.177,1.996 0.21,0.667 0.668,1.213 1.288,1.536 C 1.636,4.655 3.221,4.159 3.889,2.878 4.106,2.463 3.944,1.951 3.529,1.733 3.113,1.517 2.6,1.678 2.384,2.094 2.27,2.311 2.079,2.472 1.844,2.546 1.607,2.62 1.358,2.597 1.142,2.483 0.924,2.369 0.764,2.178 0.69,1.943 0.616,1.709 0.638,1.459 0.751,1.242 0.968,0.826 0.807,0.313 0.391,0.096 0.266,0.031 0.132,0 0,0" /></g><g
           transform="translate(141.5795,353.6347)"
           id="g118"><path
             id="path120"
             style="fill:#625772;fill-opacity:1;fill-rule:nonzero;stroke:none"
             d="m 0,0 c 0,0 9.031,-0.323 10.103,8.067 1.072,8.389 3.459,-9.676 3.459,-9.676 L 4.668,-3.536 c 0,0 -7.639,-0.944 -7.733,0.188 C -3.159,-2.216 0,0 0,0" /></g><g
           transform="translate(186.6881,380.5518)"
           id="g122"><path
             id="path124"
             style="fill:#e5a87a;fill-opacity:1;fill-rule:nonzero;stroke:none"
             d="m 0,0 c -0.179,-0.036 -0.335,-0.141 -0.436,-0.294 -0.853,-1.302 -5.005,-7.548 -6.853,-8.763 -2.064,-1.358 -6.897,0.064 -6.063,-4.497 0.8,-4.371 5.706,-2.537 5.706,-2.537 0,0 0.651,-3.336 4.527,-2.558 3.877,0.779 0.484,7.203 0.484,7.203 L 3.472,-0.449 C 3.755,0.061 3.311,0.668 2.739,0.553 Z" /></g><g
           transform="translate(119.6514,392.92)"
           id="g126"><path
             id="path128"
             style="fill:#e6412d;fill-opacity:1;fill-rule:nonzero;stroke:none"
             d="m 0,0 h -33.771 c -2.514,0 -4.552,2.038 -4.552,4.551 v 16.728 c 0,2.513 2.038,4.551 4.552,4.551 L 0,25.83 c 2.514,0 4.551,-2.038 4.551,-4.551 V 4.551 C 4.551,2.038 2.514,0 0,0" /></g><g
           transform="translate(96.2703,411.2122)"
           id="g130"><path
             id="path132"
             style="fill:#ffffff;fill-opacity:1;fill-rule:nonzero;stroke:none"
             d="M 0,0 V 0 C 1.483,1.483 3.888,1.483 5.371,0 L 6.495,-1.124 7.62,0 c 1.483,1.483 3.888,1.483 5.371,0 v 0 c 1.483,-1.483 1.483,-3.888 0,-5.371 L 6.495,-11.867 0,-5.371 C -1.483,-3.888 -1.483,-1.483 0,0" /></g><g
           transform="translate(102.7657,392.92)"
           id="g134"><path
             id="path136"
             style="fill:#e6412d;fill-opacity:1;fill-rule:nonzero;stroke:none"
             d="M 0,0 9.787,-9.787 V 0 Z" /></g></g></g><text
       y="-464.47662"
       x="216.63126"
       id="text148"
       style="font-variant:normal;font-weight:800;font-stretch:normal;font-size:22.6517px;font-family:'Montserrat ExtraBold';-inkscape-font-specification:Montserrat-ExtraBold;writing-mode:lr-tb;fill:#e6412d;fill-opacity:1;fill-rule:nonzero;stroke:none"
       transform="scale(1,-1)"><tspan
         id="tspan146"
         y="-464.47662"
         x="216.63126">BENEFICIILE UNUI ANIMAL</tspan><tspan
         id="tspan764"
         y="-436.16199"
         x="216.63126">           DE COMPANIE</tspan></text><text
       id="text158"
       style="font-variant:normal;font-weight:normal;font-stretch:normal;font-size:6.5828px;font-family:Montserrat;-inkscape-font-specification:Montserrat-Regular;writing-mode:lr-tb;fill:#564768;fill-opacity:1;fill-rule:nonzero;stroke:none"
       transform="matrix(1,0,0,-1,54.0635,126.5977)"><tspan
         id="tspan156"
         y="0"
         x="0">Oamenii care dețin câini slăbesc în mare</tspan><tspan
         id="tspan797"
         y="8.2285004"
         x="0">cu 2kg mai mult decât oamenii care fac</tspan><tspan
         id="tspan799"
         y="16.457001"
         x="0">doar exercitii fizice.</tspan></text><text
       y="-159.62891"
       x="76.564003"
       id="text164"
       style="font-variant:normal;font-weight:800;font-stretch:normal;font-size:13.9349px;font-family:'Montserrat ExtraBold';-inkscape-font-specification:Montserrat-ExtraBold;writing-mode:lr-tb;fill:#e6412d;fill-opacity:1;fill-rule:nonzero;stroke:none"
       transform="scale(1,-1)"><tspan
         y="-159.62891"
         x="76.564003"
         id="tspan162">TE AJUTĂ SĂ </tspan><tspan
         id="tspan789"
         y="-142.21028"
         x="76.564003">SLĂBEȘTI</tspan></text><text
       id="text168"
       style="font-variant:normal;font-weight:bold;font-stretch:normal;font-size:12px;font-family:'Bebas Neue Bold';-inkscape-font-specification:BebasNeueBold;writing-mode:lr-tb;fill:#564768;fill-opacity:1;fill-rule:nonzero;stroke:none"
       transform="matrix(1,0,0,-1,114.8843,198.8457)"><tspan
         id="tspan166"
         y="0"
         x="0 4.7519999 9.5039997 11.736 16.488001">17:00</tspan></text><g
       id="g170"><g
         clip-path="url(#clipPath176)"
         id="g172"><g
           transform="translate(145.498,202.6249)"
           id="g178"><path
             id="path180"
             style="fill:none;stroke:#564768;stroke-width:4;stroke-linecap:round;stroke-linejoin:miter;stroke-miterlimit:10;stroke-dasharray:none;stroke-opacity:1"
             d="m 0,0 c 0,-11.042 -8.952,-19.994 -19.994,-19.994 -11.042,0 -19.994,8.952 -19.994,19.994 0,11.042 8.952,19.994 19.994,19.994 C -8.952,19.994 0,11.042 0,0 Z" /></g></g></g><text
       id="text186"
       style="font-variant:normal;font-weight:bold;font-stretch:normal;font-size:12px;font-family:'Bebas Neue Bold';-inkscape-font-specification:BebasNeueBold;writing-mode:lr-tb;fill:#e6412d;fill-opacity:1;fill-rule:nonzero;stroke:none"
       transform="matrix(1,0,0,-1,213.8853,198.8457)"><tspan
         id="tspan182"
         y="0"
         x="0 4.7519999 9.5039997 11.736 16.488001 21.24">37.341</tspan><tspan
         id="tspan184"
         y="0"
         x="-46.667999 -41.916 -39.683998 -34.931999">4.15</tspan></text><g
       id="g188"><g
         clip-path="url(#clipPath194)"
         id="g190"><g
           transform="translate(172.625,222.3621)"
           id="g196"><path
             id="path198"
             style="fill:none;stroke:#e6412d;stroke-width:4;stroke-linecap:round;stroke-linejoin:miter;stroke-miterlimit:10;stroke-dasharray:none;stroke-opacity:1"
             d="m 0,0 c 1.046,0.169 2.119,0.257 3.212,0.257 11.043,0 19.994,-8.952 19.994,-19.994 0,-11.042 -8.951,-19.994 -19.994,-19.994 -11.042,0 -19.993,8.952 -19.993,19.994 0,1.567 0.18,3.093 0.521,4.557" /></g></g></g><text
       id="text202"
       style="font-variant:normal;font-weight:bold;font-stretch:normal;font-size:12px;font-family:'Bebas Neue Bold';-inkscape-font-specification:BebasNeueBold;writing-mode:lr-tb;fill:#fbb040;fill-opacity:1;fill-rule:nonzero;stroke:none"
       transform="matrix(1,0,0,-1,63.9893,198.8457)"><tspan
         id="tspan200"
         y="0"
         x="0 4.7519999 6.9840002 11.736 16.488001">1,542</tspan></text><g
       id="g204"><g
         clip-path="url(#clipPath210)"
         id="g206"><g
           transform="translate(95.3533,202.6249)"
           id="g212"><path
             id="path214"
             style="fill:none;stroke:#fbb040;stroke-width:4;stroke-linecap:round;stroke-linejoin:miter;stroke-miterlimit:10;stroke-dasharray:none;stroke-opacity:1"
             d="m 0,0 c 0,-11.042 -8.952,-19.994 -19.994,-19.994 -11.042,0 -19.994,8.952 -19.994,19.994 0,11.042 8.952,19.994 19.994,19.994 C -8.952,19.994 0,11.042 0,0 Z" /></g><g
           transform="translate(155.7252,220.9143)"
           id="g216"><path
             id="path218"
             style="fill:#e6412d;fill-opacity:1;fill-rule:nonzero;stroke:none"
             d="M 0,0 V 0 C 1.483,1.483 3.888,1.483 5.371,0 L 6.495,-1.124 7.62,0 c 1.483,1.483 3.888,1.483 5.371,0 v 0 c 1.483,-1.483 1.483,-3.888 0,-5.371 L 6.495,-11.867 0,-5.371 C -1.483,-3.888 -1.483,-1.483 0,0" /></g><g
           transform="translate(223.0022,222.3621)"
           id="g220"><path
             id="path222"
             style="fill:none;stroke:#e8bf89;stroke-width:4;stroke-linecap:round;stroke-linejoin:miter;stroke-miterlimit:10;stroke-dasharray:none;stroke-opacity:1"
             d="m 0,0 c 1.046,0.169 2.119,0.257 3.212,0.257 11.043,0 19.994,-8.952 19.994,-19.994 0,-11.042 -8.951,-19.994 -19.994,-19.994 -11.042,0 -19.993,8.952 -19.993,19.994 0,1.567 0.18,3.093 0.521,4.557" /></g><g
           transform="translate(223.0022,222.3621)"
           id="g224"><path
             id="path226"
             style="fill:none;stroke:#00a79d;stroke-width:4;stroke-linecap:round;stroke-linejoin:miter;stroke-miterlimit:10;stroke-dasharray:none;stroke-opacity:1"
             d="m 0,0 c 1.046,0.169 2.119,0.257 3.212,0.257 11.043,0 19.994,-8.952 19.994,-19.994 0,-11.042 -8.951,-19.994 -19.994,-19.994 -4.717,0 -9.053,1.634 -12.473,4.367" /></g><g
           transform="translate(215.3812,212.1039)"
           id="g228"><path
             id="path230"
             style="fill:#00a79d;fill-opacity:1;fill-rule:nonzero;stroke:none"
             d="M 0,0 C -3.265,2.089 -4.633,3.16 -6.698,3.801 -8.369,4.319 -10.197,4.89 -10.349,5.725 -10.666,4.906 -10.799,3.567 -8.8,2.828 -6.235,1.881 -5.244,2.017 -2.827,0.411 -0.702,-1.001 5.58,-3.852 8.075,-1.719 6.225,-2.231 2.344,-1.5 0,0" /></g><g
           transform="translate(216.8547,216.8072)"
           id="g232"><path
             id="path234"
             style="fill:#00a79d;fill-opacity:1;fill-rule:nonzero;stroke:none"
             d="M 0,0 C 0.583,-0.33 1.204,-0.255 1.735,-0.064 0.689,1.318 0.061,3.179 0.061,3.179 -0.525,4.884 -0.711,6.177 -1.509,5.985 -2.078,5.848 -2.609,5.35 -3.272,4.968 -2.429,3.208 -1.007,0.573 0,0" /></g><g
           transform="translate(224.3358,212.4216)"
           id="g236"><path
             id="path238"
             style="fill:#00a79d;fill-opacity:1;fill-rule:nonzero;stroke:none"
             d="M 0,0 C -0.289,1.536 -1.951,1.471 -3.018,2.043 -3.076,2.074 -3.132,2.106 -3.189,2.137 L -3.839,2.54 C -4.373,2.904 -4.828,3.301 -5.222,3.718 -5.593,3.554 -6.017,3.423 -6.47,3.403 -6.918,3.384 -7.389,3.471 -7.852,3.734 c -1.271,0.722 -2.799,3.651 -3.586,5.306 -0.823,-0.276 -1.864,-0.241 -3.338,0.706 -1.029,0.661 -1.388,0.835 -1.388,0.835 -0.45,-0.006 -0.823,-0.419 -1.097,-1.005 L -17.519,8.877 C -17.53,8.84 -17.541,8.802 -17.552,8.764 -17.817,7.781 -17.871,7.867 -18.76,6.698 c -0.864,-1.137 1.231,-1.831 3.195,-2.442 l 0.714,-0.238 c 1.39,-0.514 2.544,-1.28 4.437,-2.516 L -9.726,1.054 C -9.455,0.877 -9.169,0.693 -8.866,0.499 -5.685,-1.536 0.399,-2.119 0,0" /></g><g
           transform="translate(238.0974,105.8112)"
           id="g240"><path
             id="path242"
             style="fill:none;stroke:#fbb040;stroke-width:2;stroke-linecap:butt;stroke-linejoin:miter;stroke-miterlimit:10;stroke-dasharray:none;stroke-opacity:1"
             d="m 0,0 c 0,0 41.545,19.963 53.325,48.713 11.78,28.75 19.204,9 11.78,0.25 -7.424,-8.75 -19.222,0.814 -15.145,9.625 3.875,8.375 8.663,6 11.928,3.679" /></g><g
           transform="translate(54.0633,49.1344)"
           id="g244"><path
             id="path246"
             style="fill:#e6e7e8;fill-opacity:1;fill-rule:nonzero;stroke:none"
             d="m 0,0 c 0,-5.469 62.742,-9.902 140.138,-9.902 77.397,0 140.139,4.433 140.139,9.902 0,5.469 -62.742,9.902 -140.139,9.902 C 62.742,9.902 0,5.469 0,0" /></g><g
           transform="translate(222.0876,100.8436)"
           id="g248"><path
             id="path250"
             style="fill:#c15606;fill-opacity:1;fill-rule:nonzero;stroke:none"
             d="m 0,0 c -1.815,-0.884 -10.177,-12.945 -1.616,-29.262 l -2.133,-18.937 c 0,0 -5.629,5.174 -7.718,-3.365 l 11.279,-2.76 c 0,0 16.819,27.073 11.597,44.022 C 9.267,-3.352 8.854,4.312 0,0" /></g><g
           transform="translate(277.0335,76.8804)"
           id="g252"><path
             id="path254"
             style="fill:#c15606;fill-opacity:1;fill-rule:nonzero;stroke:none"
             d="m 0,0 c 0.886,-3.271 6.369,-9.603 17.125,-13.638 l 5.078,-9.396 c 0,0 -7.608,0.755 -4.148,-7.326 l 11.018,2.913 c 0,0 -1.682,33.008 -12.319,47.515 C 12.454,25.933 -2.576,9.505 0,0" /></g><g
           transform="translate(295.7036,92.3318)"
           id="g256"><path
             id="path258"
             style="fill:#dd721b;fill-opacity:1;fill-rule:nonzero;stroke:none"
             d="M 0,0 C 0,0 24.353,15.883 21.228,28.942 17.849,43.063 9.315,9.541 -1.916,4.617 Z" /></g><g
           transform="translate(221.0413,98.1828)"
           id="g260"><path
             id="path262"
             style="fill:#dd721b;fill-opacity:1;fill-rule:nonzero;stroke:none"
             d="m 0,0 c 2.931,9.875 39.389,10.171 61.56,5.741 15.592,-3.116 14.249,-18.512 14.249,-18.512 0,0 -38.976,-11.88 -61.657,-8.794 C -5.417,-18.903 -1.709,-5.755 0,0" /></g><g
           transform="translate(220.0695,86.5023)"
           id="g264"><path
             id="path266"
             style="fill:#dd721b;fill-opacity:1;fill-rule:nonzero;stroke:none"
             d="m 0,0 c 0,0 -2.37,12.404 1.719,23.946 4.088,11.542 17.778,3.367 17.778,3.367 0,0 3.678,-7.729 14.533,-7.158 3.217,0.17 -6.198,-10.986 -9.026,-13.681 -2.828,-2.695 -9.818,-7.913 -9.818,-7.913 z" /></g><g
           transform="translate(220.0695,86.5023)"
           id="g268"><path
             id="path270"
             style="fill:#fcd8b4;fill-opacity:1;fill-rule:nonzero;stroke:none"
             d="m 0,0 v 0 c -0.341,1.237 0.112,2.772 19.013,-2.228 18.9,-5 36.224,0 36.224,0 0,0 0.405,-1.945 0.794,-4.088 C 43.183,-9.037 26.942,-11.493 15.124,-9.885 5.144,-8.527 1.224,-4.441 0,0" /></g><g
           transform="translate(223.5154,142.7626)"
           id="g272"><path
             id="path274"
             style="fill:#c15606;fill-opacity:1;fill-rule:nonzero;stroke:none"
             d="M 0,0 C 0,0 15.567,-1.572 8.877,-13.969 4.999,-21.155 8.023,-25.199 7.909,-26.199 7.536,-29.504 -3.041,-31.352 -9.896,-21.738 -16.751,-12.125 -15.034,2.873 0,0" /></g><g
           transform="translate(213.6167,136.4676)"
           id="g276"><path
             id="path278"
             style="fill:#dd721b;fill-opacity:1;fill-rule:nonzero;stroke:none"
             d="m 0,0 c 0,0 -2.412,-7.864 -6.029,-9.28 -3.618,-1.415 -8.913,-2.621 -8.651,-6.343 0.263,-3.723 3.303,-6.868 3.303,-6.868 0,0 0.22,-3.839 5.147,-6.452 3.015,-1.6 15.23,-7.334 29.822,4.827 5.999,4.999 11.744,13.735 7.55,22.019 C 26.948,6.186 2.779,8.336 0,0" /></g><g
           transform="translate(220.2605,104.8443)"
           id="g280"><path
             id="path282"
             style="fill:#fcd8b4;fill-opacity:1;fill-rule:nonzero;stroke:none"
             d="m 0,0 c -6.439,-0.485 -11.154,1.768 -12.874,2.68 -4.927,2.614 -5.146,6.452 -5.146,6.452 0,0 -3.041,3.146 -3.303,6.868 -0.166,2.351 1.887,3.698 4.332,4.728 C -5.655,19.859 -1.245,13.013 -2.495,6.68 -3.717,0.489 -0.161,0.018 0,0" /></g><g
           transform="translate(203.2685,125.5722)"
           id="g284"><path
             id="path286"
             style="fill:#994a14;fill-opacity:1;fill-rule:nonzero;stroke:none"
             d="M 0,0 C 3.877,0 5.42,-1.338 4.896,-3.54 4.149,-6.674 0,-7.035 0,-7.035 c 0,0 -4.149,0.361 -4.896,3.495 C -5.42,-1.338 -3.877,0 0,0" /></g><g
           transform="translate(220.0466,126.224)"
           id="g288"><path
             id="path290"
             style="fill:#994a14;fill-opacity:1;fill-rule:nonzero;stroke:none"
             d="M 0,0 C -0.548,-1.465 0.78,-0.292 1.742,-0.652 2.704,-1.012 2.935,-2.769 3.483,-1.304 4.032,0.161 3.696,1.64 2.734,2 1.772,2.36 0.548,1.465 0,0" /></g><g
           transform="translate(212.2481,129.2357)"
           id="g292"><path
             id="path294"
             style="fill:#994a14;fill-opacity:1;fill-rule:nonzero;stroke:none"
             d="M 0,0 C -0.563,-1.317 -0.406,-2.646 0.352,-2.97 1.109,-3.294 2.18,-2.49 2.743,-1.173 3.306,0.143 3.148,1.473 2.391,1.797 1.634,2.121 0.563,1.317 0,0" /></g><g
           transform="translate(203.2685,120.1908)"
           id="g296"><path
             id="path298"
             style="fill:none;stroke:#994a14;stroke-width:1;stroke-linecap:butt;stroke-linejoin:miter;stroke-miterlimit:10;stroke-dasharray:none;stroke-opacity:1"
             d="M 0,0 C 0,0 -0.788,-2.708 0,-4.792 0.789,-6.875 4.539,-7.708 8.997,-5.583" /></g><g
           transform="translate(203.3817,115.1554)"
           id="g300"><path
             id="path302"
             style="fill:none;stroke:#994a14;stroke-width:1;stroke-linecap:butt;stroke-linejoin:miter;stroke-miterlimit:10;stroke-dasharray:none;stroke-opacity:1"
             d="M 0,0 C 0,0 -0.584,-1.008 -1.142,-1.179" /></g><g
           transform="translate(274.6363,86.0257)"
           id="g304"><path
             id="path306"
             style="fill:#dd721b;fill-opacity:1;fill-rule:nonzero;stroke:none"
             d="m 0,0 c -2.17,-6.868 -3.048,-13.794 2.082,-20.278 l -6.658,-13.289 c 0,0 -7.656,1.612 -7.656,-5.939 h 10.687 c 0,0 23.906,21.08 23.787,38.815 C 22.194,6.581 2.968,9.39 0,0" /></g><g
           transform="translate(219.6183,89.326)"
           id="g308"><path
             id="path310"
             style="fill:#dd721b;fill-opacity:1;fill-rule:nonzero;stroke:none"
             d="m 0,0 c 0,0 0.837,-17.811 21.411,-20.692 l 8.575,-14.793 c 0,0 -7.607,0.765 -4.158,-7.321 h 11.13 c 0,0 -3.225,36.306 -17.568,46.737 C 13.508,8.209 5.123,11.49 0,0" /></g><g
           transform="translate(245.8974,108.0746)"
           id="g312"><path
             id="path314"
             style="fill:#fbb040;fill-opacity:1;fill-rule:nonzero;stroke:none"
             d="m 0,0 c 0,0 -12.713,-11.624 -26.464,-10.65 0,0 -0.589,1.822 0.246,3.419 0,0 14.072,1.323 22.121,10.043 0,0 3.062,-1.678 4.097,-2.812" /></g><g
           transform="translate(217.7037,97.2068)"
           id="g316"><path
             id="path318"
             style="fill:#fcd8b4;fill-opacity:1;fill-rule:nonzero;stroke:none"
             d="m 0,0 c 0,-1.412 1.145,-2.557 2.557,-2.557 1.412,0 2.557,1.145 2.557,2.557 0,1.412 -1.145,2.557 -2.557,2.557 C 1.145,2.557 0,1.412 0,0" /></g><g
           transform="translate(238.7654,140.0241)"
           id="g320"><path
             id="path322"
             style="fill:#c15606;fill-opacity:1;fill-rule:nonzero;stroke:none"
             d="m 0,0 c 0,0 16.833,-3.5 11.258,-15.362 -3.473,-7.391 -0.854,-11.23 -0.967,-12.23 -0.374,-3.306 -9.637,-5.266 -16.492,4.347 C -13.056,-13.631 -15.034,2.873 0,0" /></g><g
           transform="translate(152.5472,61.9182)"
           id="g324"><path
             id="path326"
             style="fill:#00a79d;fill-opacity:1;fill-rule:nonzero;stroke:none"
             d="m 0,0 c -12.13,0.827 -11.274,7.095 -16.679,13.646 -4.549,5.514 -18.097,7.306 -27.292,-4.824 -3.072,-4.053 -8.778,-6.243 -14.198,-4.135 -7.443,2.894 -21.503,-4.1 -21.503,-17.471 H 9.971 c 0,0 2.159,11.957 -9.971,12.784" /></g><g
           transform="translate(137.9897,58.8073)"
           id="g328"><path
             id="path330"
             style="fill:#2ec6b7;fill-opacity:1;fill-rule:nonzero;stroke:none"
             d="m 0,0 c 9.178,0.626 8.531,5.369 12.62,10.325 3.442,4.172 13.694,5.528 20.651,-3.65 2.324,-3.066 6.641,-4.724 10.743,-3.129 5.632,2.19 16.27,-3.102 16.27,-13.219 H -7.544 c 0,0 -1.634,9.047 7.544,9.673" /></g></g></g><text
       id="text334"
       style="font-variant:normal;font-weight:bold;font-stretch:normal;font-size:2.9908px;font-family:'Bebas Neue Bold';-inkscape-font-specification:BebasNeueBold;writing-mode:lr-tb;fill:#fbb040;fill-opacity:1;fill-rule:nonzero;stroke:none"
       transform="matrix(1,0,0,-1,65.7871,194.1475)"><tspan
         id="tspan332"
         y="0"
         x="0 1.0138812 2.1982379 3.3167973 4.4353566 4.8989305 6.0533791 7.2706347 8.2845163 9.468873 10.671174 11.239427 12.340041 13.4586 13.922174 15.061668 15.525243 16.742199 17.959455">LOSS CALORIES / DAY</tspan></text><g
       id="g336"><g
         clip-path="url(#clipPath342)"
         id="g338"><g
           transform="translate(708.828,287.5712)"
           id="g344"><path
             id="path346"
             style="fill:#e6e7e8;fill-opacity:1;fill-rule:nonzero;stroke:none"
             d="m 0,0 c 0,-5.469 -74.896,-9.902 -167.286,-9.902 -92.389,0 -167.285,4.433 -167.285,9.902 0,5.469 74.896,9.902 167.285,9.902 C -74.896,9.902 0,5.469 0,0" /></g></g></g><text
       id="text352"
       style="font-variant:normal;font-weight:normal;font-stretch:normal;font-size:8.5828px;font-family:Montserrat;-inkscape-font-specification:Montserrat-Regular;writing-mode:lr-tb;white-space:pre;inline-size:261.065;fill:#564768;fill-opacity:1;fill-rule:nonzero;stroke:none"
       transform="matrix(1,0,0,-1.1230648,355.0249,236.93642)"
       xml:space="preserve"><tspan
         x="0"
         y="0"><tspan>Interacțiunile om-câine scad nivelele de cortisol din </tspan></tspan><tspan
         x="0"
         y="10.7285"><tspan>organism(reduce </tspan><tspan>stresul) si cresc nivelele de </tspan></tspan><tspan
         x="0"
         y="21.457"><tspan>oxitocina(hormonul iubirii).</tspan></tspan></text><text
       y="-252.49899"
       x="442.77881"
       id="text356"
       style="font-variant:normal;font-weight:800;font-stretch:normal;font-size:13.9349px;font-family:'Montserrat ExtraBold';-inkscape-font-specification:Montserrat-ExtraBold;writing-mode:lr-tb;fill:#e6412d;fill-opacity:1;fill-rule:nonzero;stroke:none"
       transform="scale(1,-1)"><tspan
         id="tspan354"
         y="-252.49899"
         x="442.77881 453.09064 462.45486 473.96512 484.91794 495.2019 504.56616 508.62122 517.49774 526.34637 536.6582 546.02246">REDUCE STRESUL</tspan></text><g
       id="g368"><g
         clip-path="url(#clipPath374)"
         id="g370"><g
           transform="translate(607.467,371.9058)"
           id="g376"><path
             id="path378"
             style="fill:#563f2b;fill-opacity:1;fill-rule:nonzero;stroke:none"
             d="m 0,0 c 0,0 -11.427,2.168 -14.888,1.193 -5.232,-1.472 -9.321,-14.753 -8.069,-22.322 0.732,-4.421 12.377,-4.77 15.785,3.043 C -3.123,-8.804 4.336,-8.805 5.921,-7.05 7.429,-5.38 6.532,-2.223 0,0" /></g><g
           transform="translate(669.1125,344.4005)"
           id="g380"><path
             id="path382"
             style="fill:#563f2b;fill-opacity:1;fill-rule:nonzero;stroke:none"
             d="M 0,0 C 0,0 21.839,-3.197 23.253,-21.685 24.668,-40.173 12.665,-10.491 -0.994,-3.669 -14.654,3.152 0,0 0,0" /></g><g
           transform="translate(660.9181,318.0652)"
           id="g384"><path
             id="path386"
             style="fill:#563f2b;fill-opacity:1;fill-rule:nonzero;stroke:none"
             d="M 0,0 -4.576,-27.419 H -16.06 c 0.929,6.141 6.412,4.987 6.412,4.987 0,0 -2.043,13.525 -2.321,15.543 -5.22,4.268 -8.322,10.612 -8.322,10.612 l 3.364,4.089 c 0,0 9.05,2.543 9.304,2.289 C -7.369,9.846 -4.144,9.423 -2.96,8.66 -1.775,7.897 0.005,5.779 0.005,5.779 Z" /></g><g
           transform="translate(638.4177,315.4445)"
           id="g388"><path
             id="path390"
             style="fill:#6d553d;fill-opacity:1;fill-rule:nonzero;stroke:none"
             d="m 0,0 -2.558,-30.047 h -10.17 c -0.713,5.249 5.216,5.249 5.216,5.249 l -7.512,22.688 c 0,0 9.247,5.19 15.024,2.11" /></g><g
           transform="translate(622.8333,320.6938)"
           id="g392"><path
             id="path394"
             style="fill:#563f2b;fill-opacity:1;fill-rule:nonzero;stroke:none"
             d="m 0,0 -1.45,-17.025 -1.108,-13.022 h -10.17 c -0.713,5.249 5.216,5.249 5.216,5.249 l -3.03,9.154 -4.482,13.534 c 0,0 9.247,5.19 15.024,2.11" /></g><g
           transform="translate(646.8834,322.61)"
           id="g396"><path
             id="path398"
             style="fill:#6d553d;fill-opacity:1;fill-rule:nonzero;stroke:none"
             d="M 0,0 C 0,0 7.657,4.373 11.075,-1.935 15.148,-9.451 24.37,-12.478 24.37,-12.478 l 5.374,-17.281 c 0,0 -6.935,0.642 -5.492,-5.453 h 13.301 l -1.903,25.77 c 0,0 -0.02,28.171 -19.777,32.628 C 15.873,23.186 2.656,6.902 0,0" /></g><g
           transform="translate(662.7562,345.7965)"
           id="g400"><path
             id="path402"
             style="fill:#6d553d;fill-opacity:1;fill-rule:nonzero;stroke:none"
             d="m 0,0 c -8.746,4.558 -36.415,-2.477 -36.415,-2.477 l -25.49,-7.132 c -0.143,-6.274 1.075,-10.933 1.075,-10.933 1.804,-6.537 4.764,-12.914 18.502,-13.728 13.737,-0.814 18.784,8.291 44.238,2.011 C 24.61,-37.861 12.44,-6.483 0,0" /></g><g
           transform="translate(623.9514,311.5703)"
           id="g404"><path
             id="path406"
             style="fill:#563f2b;fill-opacity:1;fill-rule:nonzero;stroke:none"
             d="m 0,0 c -0.48,0.743 -4.072,6.547 -2.981,12.201 0,0 -3.461,-4.933 -0.235,-12.254 C -2.205,-0.098 -1.128,-0.077 0,0" /></g><g
           transform="translate(659.6478,326.4549)"
           id="g408"><path
             id="path410"
             style="fill:#563f2b;fill-opacity:1;fill-rule:nonzero;stroke:none"
             d="m 0,0 c 0,0 -4.715,-6.706 0.118,-11.881 1.606,-0.286 3.239,-0.627 4.9,-1.037 0,0 -6.662,4.404 -5.018,12.918" /></g><g
           transform="translate(593.9799,343.9335)"
           id="g412"><path
             id="path414"
             style="fill:#b26416;fill-opacity:1;fill-rule:nonzero;stroke:none"
             d="m 0,0 c -0.03,-0.142 -0.023,-0.191 0.044,-0.089 0,0 0.044,-0.054 0.112,-0.144 C 0.104,-0.154 0.052,-0.078 0,0" /></g><g
           transform="translate(588.9693,353.4413)"
           id="g416"><path
             id="path418"
             style="fill:#6d553d;fill-opacity:1;fill-rule:nonzero;stroke:none"
             d="m 0,0 c -1.322,-0.665 -2.295,-1.858 -2.711,-3.278 -1.311,-4.476 -2.757,-13.456 5.005,-17.478 10.559,-5.471 29.764,-4.824 35.147,-1.654 5.383,3.171 14.104,22.701 1.215,32.421 C 25.768,19.73 10.212,15.345 7.229,12.02 4.541,9.025 4.813,2.422 0,0" /></g><g
           transform="translate(591.2631,332.6854)"
           id="g420"><path
             id="path422"
             style="fill:#fcd8b4;fill-opacity:1;fill-rule:nonzero;stroke:none"
             d="m 0,0 c 6.547,-3.392 16.417,-4.431 24.257,-3.976 3.451,0.12 7.555,5.189 2.909,5.779 -4.656,0.59 -7.694,6.643 -9.325,9.948 -1.632,3.305 -6.459,8.141 -8.468,8.717 C 7.364,21.044 3.885,20.813 1.572,20.44 -2.36,19.807 -5.785,13.81 -5.816,13.755 -6.487,9.102 -5.964,3.09 0,0" /></g><g
           transform="translate(595.1037,346.3126)"
           id="g424"><path
             id="path426"
             style="fill:#4d3829;fill-opacity:1;fill-rule:nonzero;stroke:none"
             d="M 0,0 C 0,0 -2.314,2.766 -0.823,4.429 0.669,6.091 5.619,3.495 6.507,2.247 7.704,0.563 4.647,-2.238 0,0" /></g><g
           transform="translate(595.6481,357.6123)"
           id="g428"><path
             id="path430"
             style="fill:#4d3829;fill-opacity:1;fill-rule:nonzero;stroke:none"
             d="M 0,0 C -0.183,0.246 -0.227,0.582 -0.084,0.877 0.22,1.507 0.752,1.979 1.412,2.21 2.073,2.44 2.783,2.398 3.413,2.094 4.711,1.467 5.259,-0.102 4.631,-1.402 4.427,-1.824 3.919,-2 3.497,-1.796 3.076,-1.592 2.898,-1.085 3.103,-0.663 3.209,-0.442 3.224,-0.192 3.143,0.04 3.061,0.275 2.894,0.46 2.674,0.566 2.452,0.673 2.203,0.687 1.97,0.606 1.738,0.526 1.551,0.359 1.445,0.138 1.241,-0.284 0.733,-0.46 0.311,-0.257 0.184,-0.195 0.078,-0.106 0,0" /></g><g
           transform="translate(608.5571,350.4906)"
           id="g432"><path
             id="path434"
             style="fill:#4d3829;fill-opacity:1;fill-rule:nonzero;stroke:none"
             d="M 0,0 C -0.183,0.246 -0.227,0.582 -0.084,0.877 0.22,1.507 0.752,1.98 1.412,2.21 2.073,2.44 2.783,2.398 3.413,2.094 4.711,1.467 5.259,-0.102 4.631,-1.402 4.427,-1.824 3.919,-2 3.497,-1.796 3.076,-1.592 2.898,-1.085 3.103,-0.663 3.209,-0.442 3.224,-0.192 3.143,0.04 3.061,0.275 2.894,0.46 2.674,0.566 2.453,0.673 2.203,0.687 1.97,0.606 1.738,0.526 1.551,0.359 1.445,0.138 1.241,-0.284 0.733,-0.46 0.311,-0.257 0.184,-0.195 0.078,-0.105 0,0" /></g><g
           transform="translate(595.1475,346.7308)"
           id="g436"><path
             id="path438"
             style="fill:none;stroke:#4d3829;stroke-width:1;stroke-linecap:butt;stroke-linejoin:miter;stroke-miterlimit:10;stroke-dasharray:none;stroke-opacity:1"
             d="m 0,0 c 0,0 -2.138,-3.227 -2.712,-4.46 -0.777,-1.667 1.826,-5.024 4.065,-6.376 4.104,-2.477 10.083,-3.218 13.391,-2.323" /></g><g
           transform="translate(592.4816,342.4374)"
           id="g440"><path
             id="path442"
             style="fill:none;stroke:#4d3829;stroke-width:1;stroke-linecap:butt;stroke-linejoin:miter;stroke-miterlimit:10;stroke-dasharray:none;stroke-opacity:1"
             d="M 0,0 C 0,0 -4.393,-1.213 -6.552,2.188" /></g><g
           transform="translate(626.9336,365.406)"
           id="g444"><path
             id="path446"
             style="fill:#563f2b;fill-opacity:1;fill-rule:nonzero;stroke:none"
             d="m 0,0 c 0,0 10.437,-5.133 12.619,-7.991 3.297,-4.32 -1.413,-17.394 -6.962,-22.692 -3.242,-3.095 -12.759,3.623 -10.79,11.917 2.34,9.852 -3.624,14.332 -3.836,16.687 C -9.17,0.163 -6.557,2.148 0,0" /></g><g
           transform="translate(506.8137,285.397)"
           id="g448"><path
             id="path450"
             style="fill:#dd721b;fill-opacity:1;fill-rule:nonzero;stroke:none"
             d="m 0,0 c 0,0 -15.154,0 -22.607,9.456 -2.043,2.593 -9.903,15.233 -3.931,30.522 6.236,15.965 -9.491,22.576 -4.514,24.965 4.967,2.384 18.125,-2.917 12.75,-22.792 C -22.226,27.642 -19.822,18.793 -9.83,17.155 0.162,15.517 0,0 0,0" /></g><g
           transform="translate(496.9838,302.5516)"
           id="g452"><path
             id="path454"
             style="fill:#c15606;fill-opacity:1;fill-rule:nonzero;stroke:none"
             d="m 0,0 c -1.563,0.256 -2.939,0.711 -4.169,1.316 0.474,-3.016 2.364,-17.767 -7.254,-10.732 0.56,-0.472 1.137,-0.939 1.747,-1.395 0.787,-0.632 1.612,-1.198 2.459,-1.711 0.011,-0.007 0.021,-0.015 0.032,-0.022 l -0.001,0.002 C 0.446,-17.151 9.83,-17.155 9.83,-17.155 9.83,-17.155 9.992,-1.638 0,0" /></g><g
           transform="translate(541.7478,320.1777)"
           id="g456"><path
             id="path458"
             style="fill:#dd721b;fill-opacity:1;fill-rule:nonzero;stroke:none"
             d="m 0,0 9.62,-34.781 h 23.424 c 0,0 -1.378,9.364 -10.77,4.996 0,0 -3.917,-2.211 -7.521,-0.846 L 12.897,0.492 c 0,0 10.863,14.59 1.2,30.695 C 11.539,35.45 12.421,54.033 7.733,56.256 5.923,54.285 5.361,42.808 0,42.233 c 0,0 -4.643,2.5 -12.82,0.25 C -15.972,37.566 -22.767,31.336 -29.037,25.335 -40.504,14.36 -52.953,0.928 -49.021,-15.78 c 3.931,-16.707 14.087,-19.001 14.087,-19.001 H 4.455 c 0,0 -1.379,9.364 -10.77,4.996 0,0 -3.918,-2.211 -7.521,-0.846 0,0 5.237,0.677 7.195,8.701 1.371,5.62 -2.075,10.31 -4.246,14.881 C -6.684,-5.542 -1.744,-1.839 0,0" /></g><g
           transform="translate(530.8608,313.1287)"
           id="g460"><path
             id="path462"
             style="fill:#c15606;fill-opacity:1;fill-rule:nonzero;stroke:none"
             d="m 0,0 c 1.447,0.519 2.98,1.301 4.441,2.174 -5.646,8.678 -15.216,8.272 -15.216,8.272 C -3.246,7.708 0,0 0,0" /></g><g
           transform="translate(534.0209,317.0408)"
           id="g464"><path
             id="path466"
             style="fill:#c15606;fill-opacity:1;fill-rule:nonzero;stroke:none"
             d="m 0,0 c -2.438,-1.597 -1.856,-2.334 -0.345,-2.65 3.391,1.776 6.709,4.35 8.072,5.787 l -2.42,9.671 C 5.307,12.808 5.873,3.848 0,0" /></g><g
           transform="translate(565.5026,372.5087)"
           id="g468"><path
             id="path470"
             style="fill:#b26416;fill-opacity:1;fill-rule:nonzero;stroke:none"
             d="m 0,0 c -0.016,-0.144 -0.038,-0.189 -0.069,-0.07 0,0 -0.06,-0.038 -0.152,-0.101 C -0.147,-0.113 -0.074,-0.057 0,0" /></g><g
           transform="translate(589.4969,360.9961)"
           id="g472"><path
             id="path474"
             style="fill:#dd721b;fill-opacity:1;fill-rule:nonzero;stroke:none"
             d="m 0,0 c 2.866,3.195 2.756,4.286 1.766,5.534 -0.99,1.248 -12.25,5.261 -12.91,6.093 -0.66,0.833 -0.694,2.995 -0.712,4.302 -0.064,4.533 -6.003,10.072 -9.516,11.041 -3.514,0.969 -19.154,5.141 -27.979,-9.113 0,0 -4.301,-9.692 -11.218,-16.192 L -41.051,-9.839 -42.108,-11 c 0,0 -2.81,-9.983 -2.943,-10.364 -0.132,-0.38 15.401,-2.036 15.401,-2.036 0.04,19.94 11.902,15.235 11.902,15.235 2.271,-0.395 4.887,-1.08 7.909,-2.138 6.777,-0.981 7.022,3.502 7.022,3.502 C 0.42,-5.111 0,0 0,0" /></g><g
           transform="translate(584.4897,351.1762)"
           id="g476"><path
             id="path478"
             style="fill:#a0470a;fill-opacity:1;fill-rule:nonzero;stroke:none"
             d="M 0,0 C -0.476,0.617 -1.137,1.252 -1.186,1.318 -1.311,1.485 -4.77,3.193 -4.811,3.36 -4.853,3.526 -6.853,6.674 -6.853,6.674 L -8.437,6.97 c 0,0 1.294,-5.421 6.356,-7.535 C -1.23,-0.476 -0.545,-0.274 0,0" /></g><g
           transform="translate(567.8965,374.8882)"
           id="g480"><path
             id="path482"
             style="fill:#a0470a;fill-opacity:1;fill-rule:nonzero;stroke:none"
             d="M 0,0 C -0.255,0.169 -0.411,0.47 -0.378,0.796 -0.306,1.492 0.033,2.117 0.575,2.559 1.118,3 1.8,3.203 2.496,3.131 3.931,2.983 4.98,1.694 4.831,0.258 4.783,-0.208 4.366,-0.546 3.9,-0.499 3.434,-0.45 3.094,-0.034 3.143,0.433 3.168,0.677 3.097,0.917 2.942,1.107 2.785,1.301 2.565,1.418 2.321,1.443 2.077,1.468 1.838,1.396 1.646,1.241 1.455,1.086 1.336,0.866 1.311,0.622 1.263,0.156 0.846,-0.183 0.379,-0.135 0.239,-0.121 0.11,-0.073 0,0" /></g><g
           transform="translate(589.4969,360.996)"
           id="g484"><path
             id="path486"
             style="fill:#a0470a;fill-opacity:1;fill-rule:nonzero;stroke:none"
             d="M 0,0 C 0,0 -1.944,-0.231 -3.553,2.343 -5.162,4.917 -1.714,6.442 0.936,6.13 3.586,5.819 3.483,2.427 0,0" /></g><g
           transform="translate(576.0527,358.1458)"
           id="g488"><path
             id="path490"
             style="fill:#a0470a;fill-opacity:1;fill-rule:nonzero;stroke:none"
             d="m 0,0 c -0.228,0.341 -0.136,0.802 0.204,1.03 0.341,0.228 0.802,0.136 1.03,-0.205 3.388,-5.064 9.904,-4.209 9.978,-4.199 0.083,0.012 0.164,0.006 0.243,-0.009 -0.246,-0.215 -0.52,-0.407 -0.828,-0.568 0,0 -0.024,-0.419 -0.249,-0.972 C 10.152,-4.93 9.898,-4.933 9.615,-4.926 7.157,-4.866 2.762,-4.13 0,0" /></g><g
           transform="translate(546.5692,388.1459)"
           id="g492"><path
             id="path494"
             style="fill:#c15606;fill-opacity:1;fill-rule:nonzero;stroke:none"
             d="m 0,0 c 0,0 -13.523,-7.279 -5.28,-15.464 5.689,-5.648 4.014,-10.301 4.406,-11.208 1.296,-2.997 10.101,1.429 13.79,12.416 C 16.604,-3.268 13.296,6.996 0,0" /></g><g
           transform="translate(533.3098,308.3225)"
           id="g496"><path
             id="path498"
             style="fill:#c15606;fill-opacity:1;fill-rule:nonzero;stroke:none"
             d="m 0,0 c -0.802,1.638 -1.7,3.23 -2.449,4.806 4.203,1.508 9.143,5.211 10.887,7.049 L 10.039,6.069 V 6.068 C 10.039,6.068 4.599,1.807 0,0" /></g><g
           transform="translate(592.4816,355.161)"
           id="g500"><path
             id="path502"
             style="fill:#e6412d;fill-opacity:1;fill-rule:nonzero;stroke:none"
             d="m 0,0 c 2.952,2.748 1.197,-5.702 -3.97,-6.164 -5.167,-0.461 -10.458,6.907 -10.458,6.907 0,0 10.349,-4.54 14.428,-0.743" /></g><path
           id="path504"
           style="fill:#e8bf89;fill-opacity:1;fill-rule:nonzero;stroke:none"
           d="m 610.677,202.252 h -18.504 v 60.439 h 18.504 z" /><path
           id="path506"
           style="fill:#00a79d;fill-opacity:1;fill-rule:nonzero;stroke:none"
           d="m 610.677,202.252 h -18.504 v 32.171 h 18.504 z" /><path
           id="path508"
           style="fill:#e8bf89;fill-opacity:1;fill-rule:nonzero;stroke:none"
           d="M 634.594,202.252 H 616.09 v 60.439 h 18.504 z" /><path
           id="path510"
           style="fill:#00a79d;fill-opacity:1;fill-rule:nonzero;stroke:none"
           d="M 634.594,202.252 H 616.09 v 46.171 h 18.504 z" /><path
           id="path512"
           style="fill:#e8bf89;fill-opacity:1;fill-rule:nonzero;stroke:none"
           d="m 658.511,202.252 h -18.504 v 60.439 h 18.504 z" /><path
           id="path514"
           style="fill:#00a79d;fill-opacity:1;fill-rule:nonzero;stroke:none"
           d="m 658.511,202.252 h -18.504 v 20.171 h 18.504 z" /><path
           id="path516"
           style="fill:#e8bf89;fill-opacity:1;fill-rule:nonzero;stroke:none"
           d="m 682.428,202.252 h -18.504 v 60.439 h 18.504 z" /><path
           id="path518"
           style="fill:#00a79d;fill-opacity:1;fill-rule:nonzero;stroke:none"
           d="m 682.428,202.252 h -18.504 v 36.171 h 18.504 z" /><path
           id="path520"
           style="fill:#e8bf89;fill-opacity:1;fill-rule:nonzero;stroke:none"
           d="m 706.345,202.252 h -18.504 v 60.439 h 18.504 z" /><path
           id="path522"
           style="fill:#00a79d;fill-opacity:1;fill-rule:nonzero;stroke:none"
           d="m 706.345,202.252 h -18.504 v 53.796 h 18.504 z" /><g
           transform="translate(577.6962,406.1328)"
           id="g524"><path
             id="path526"
             style="fill:#e6412d;fill-opacity:1;fill-rule:nonzero;stroke:none"
             d="m 0,0 v 0 c 2.56,2.56 6.711,2.56 9.271,0 l 1.94,-1.94 1.94,1.94 c 2.56,2.56 6.711,2.56 9.271,0 v 0 c 2.56,-2.56 2.56,-6.711 0,-9.271 L 11.211,-20.481 0,-9.271 C -2.56,-6.711 -2.56,-2.56 0,0" /></g><g
           transform="translate(683.1607,413.6809)"
           id="g532" /></g></g><g
       id="g540"><g
         clip-path="url(#clipPath546)"
         id="g542"><g
           transform="translate(429.6865,297.4733)"
           id="g548"><path
             id="path550"
             style="fill:#994a14;fill-opacity:1;fill-rule:nonzero;stroke:none"
             d="m 0,0 c 0,-1.961 -1.589,-3.55 -3.55,-3.55 -1.96,0 -3.55,1.589 -3.55,3.55 0,1.961 1.59,3.55 3.55,3.55 C -1.589,3.55 0,1.961 0,0" /></g><g
           transform="translate(434.874,300.5983)"
           id="g552"><path
             id="path554"
             style="fill:#994a14;fill-opacity:1;fill-rule:nonzero;stroke:none"
             d="m 0,0 c 0,-1.961 -1.589,-3.55 -3.55,-3.55 -1.96,0 -3.55,1.589 -3.55,3.55 0,1.961 1.59,3.55 3.55,3.55 C -1.589,3.55 0,1.961 0,0" /></g><g
           transform="translate(440.874,298.5179)"
           id="g556"><path
             id="path558"
             style="fill:#994a14;fill-opacity:1;fill-rule:nonzero;stroke:none"
             d="m 0,0 c 0,-1.961 -1.589,-3.55 -3.55,-3.55 -1.96,0 -3.55,1.589 -3.55,3.55 0,1.961 1.59,3.55 3.55,3.55 C -1.589,3.55 0,1.961 0,0" /></g><g
           transform="translate(447.2137,300.0368)"
           id="g560"><path
             id="path562"
             style="fill:#994a14;fill-opacity:1;fill-rule:nonzero;stroke:none"
             d="m 0,0 c 0,-1.961 -1.589,-3.55 -3.55,-3.55 -1.96,0 -3.55,1.589 -3.55,3.55 0,1.961 1.59,3.55 3.55,3.55 C -1.589,3.55 0,1.961 0,0" /></g><g
           transform="translate(452.5887,298.7868)"
           id="g564"><path
             id="path566"
             style="fill:#994a14;fill-opacity:1;fill-rule:nonzero;stroke:none"
             d="m 0,0 c 0,-1.961 -1.589,-3.55 -3.55,-3.55 -1.96,0 -3.55,1.589 -3.55,3.55 0,1.961 1.59,3.55 3.55,3.55 C -1.589,3.55 0,1.961 0,0" /></g><g
           transform="translate(451.7762,303.5867)"
           id="g568"><path
             id="path570"
             style="fill:#994a14;fill-opacity:1;fill-rule:nonzero;stroke:none"
             d="m 0,0 c 0,-1.961 -1.589,-3.55 -3.55,-3.55 -1.96,0 -3.55,1.589 -3.55,3.55 0,1.961 1.59,3.55 3.55,3.55 C -1.589,3.55 0,1.961 0,0" /></g><g
           transform="translate(453.3885,305.2742)"
           id="g572"><path
             id="path574"
             style="fill:#994a14;fill-opacity:1;fill-rule:nonzero;stroke:none"
             d="m 0,0 c 0,-1.961 -1.589,-3.55 -3.55,-3.55 -1.96,0 -3.55,1.589 -3.55,3.55 0,1.961 1.59,3.55 3.55,3.55 C -1.589,3.55 0,1.961 0,0" /></g><g
           transform="translate(449.8387,308.2117)"
           id="g576"><path
             id="path578"
             style="fill:#994a14;fill-opacity:1;fill-rule:nonzero;stroke:none"
             d="m 0,0 c 0,-1.961 -1.589,-3.55 -3.55,-3.55 -1.96,0 -3.55,1.589 -3.55,3.55 0,1.961 1.59,3.55 3.55,3.55 C -1.589,3.55 0,1.961 0,0" /></g><g
           transform="translate(441.5887,309.7117)"
           id="g580"><path
             id="path582"
             style="fill:#994a14;fill-opacity:1;fill-rule:nonzero;stroke:none"
             d="m 0,0 c 0,-1.961 -1.589,-3.55 -3.55,-3.55 -1.96,0 -3.55,1.589 -3.55,3.55 0,1.961 1.59,3.55 3.55,3.55 C -1.589,3.55 0,1.961 0,0" /></g><g
           transform="translate(455.5887,302.0677)"
           id="g584"><path
             id="path586"
             style="fill:#994a14;fill-opacity:1;fill-rule:nonzero;stroke:none"
             d="m 0,0 c 0,-1.961 -1.589,-3.55 -3.55,-3.55 -1.96,0 -3.55,1.589 -3.55,3.55 0,1.961 1.59,3.55 3.55,3.55 C -1.589,3.55 0,1.961 0,0" /></g><g
           transform="translate(443.6638,302.3367)"
           id="g588"><path
             id="path590"
             style="fill:#994a14;fill-opacity:1;fill-rule:nonzero;stroke:none"
             d="m 0,0 c 0,-1.961 -1.589,-3.55 -3.55,-3.55 -1.96,0 -3.55,1.589 -3.55,3.55 0,1.961 1.59,3.55 3.55,3.55 C -1.589,3.55 0,1.961 0,0" /></g><g
           transform="translate(447.2137,305.8866)"
           id="g592"><path
             id="path594"
             style="fill:#994a14;fill-opacity:1;fill-rule:nonzero;stroke:none"
             d="m 0,0 c 0,-1.961 -1.589,-3.55 -3.55,-3.55 -1.96,0 -3.55,1.589 -3.55,3.55 0,1.961 1.59,3.55 3.55,3.55 C -1.589,3.55 0,1.961 0,0" /></g><g
           transform="translate(441.5887,306.6991)"
           id="g596"><path
             id="path598"
             style="fill:#994a14;fill-opacity:1;fill-rule:nonzero;stroke:none"
             d="m 0,0 c 0,-1.961 -1.589,-3.55 -3.55,-3.55 -1.96,0 -3.55,1.589 -3.55,3.55 0,1.961 1.59,3.55 3.55,3.55 C -1.589,3.55 0,1.961 0,0" /></g><g
           transform="translate(445.8014,311.7616)"
           id="g600"><path
             id="path602"
             style="fill:#994a14;fill-opacity:1;fill-rule:nonzero;stroke:none"
             d="m 0,0 c 0,-1.961 -1.589,-3.55 -3.55,-3.55 -1.96,0 -3.55,1.589 -3.55,3.55 0,1.961 1.59,3.55 3.55,3.55 C -1.589,3.55 0,1.961 0,0" /></g><g
           transform="translate(438.4239,303.1492)"
           id="g604"><path
             id="path606"
             style="fill:#994a14;fill-opacity:1;fill-rule:nonzero;stroke:none"
             d="m 0,0 c 0,-1.961 -1.589,-3.55 -3.55,-3.55 -1.96,0 -3.55,1.589 -3.55,3.55 0,1.961 1.59,3.55 3.55,3.55 C -1.589,3.55 0,1.961 0,0" /></g><g
           transform="translate(437.3241,305.8866)"
           id="g608"><path
             id="path610"
             style="fill:#994a14;fill-opacity:1;fill-rule:nonzero;stroke:none"
             d="m 0,0 c 0,-1.961 -1.589,-3.55 -3.55,-3.55 -1.96,0 -3.55,1.589 -3.55,3.55 0,1.961 1.59,3.55 3.55,3.55 C -1.589,3.55 0,1.961 0,0" /></g><g
           transform="translate(433.2364,302.0677)"
           id="g612"><path
             id="path614"
             style="fill:#994a14;fill-opacity:1;fill-rule:nonzero;stroke:none"
             d="m 0,0 c 0,-1.961 -1.589,-3.55 -3.55,-3.55 -1.96,0 -3.55,1.589 -3.55,3.55 0,1.961 1.59,3.55 3.55,3.55 C -1.589,3.55 0,1.961 0,0" /></g><g
           transform="translate(457.7137,299.0993)"
           id="g616"><path
             id="path618"
             style="fill:#994a14;fill-opacity:1;fill-rule:nonzero;stroke:none"
             d="m 0,0 c 0,-1.961 -1.589,-3.55 -3.55,-3.55 -1.96,0 -3.55,1.589 -3.55,3.55 0,1.961 1.59,3.55 3.55,3.55 C -1.589,3.55 0,1.961 0,0" /></g><g
           transform="translate(703.2471,387.9664)"
           id="g620" /><g
           transform="translate(455.4448,285.397)"
           id="g624"><path
             id="path626"
             style="fill:#00a79d;fill-opacity:1;fill-rule:nonzero;stroke:none"
             d="m 0,0 h -30.662 c -2.367,0 -4.286,1.919 -4.286,4.286 v 8.835 H 4.286 V 4.286 C 4.286,1.919 2.367,0 0,0" /></g><path
           id="path628"
           style="fill:#2ec6b7;fill-opacity:1;fill-rule:nonzero;stroke:none"
           d="m 461.762,294.456 h -43.295 v 4.062 h 43.295 z" /><g
           transform="translate(363.4353,49.1344)"
           id="g630"><path
             id="path632"
             style="fill:#e6e7e8;fill-opacity:1;fill-rule:nonzero;stroke:none"
             d="m 0,0 c 0,-5.469 52.736,-9.902 117.788,-9.902 65.053,0 117.788,4.433 117.788,9.902 0,5.469 -52.735,9.902 -117.788,9.902 C 52.736,9.902 0,5.469 0,0" /></g></g></g><text
       y="-88.01403"
       x="580.71802"
       id="text642"
       style="font-variant:normal;font-weight:normal;font-stretch:normal;font-size:6.5828px;font-family:Montserrat;-inkscape-font-specification:Montserrat-Regular;writing-mode:lr-tb;fill:#564768;fill-opacity:1;fill-rule:nonzero;stroke:none"
       transform="scale(1,-1)"><tspan
         style="font-size:7.7828px"
         id="tspan640"
         y="-88.01403"
         x="580.71802">Nenumărate studii arată că oamenii care</tspan><tspan
         style="font-size:7.7828px"
         id="tspan821"
         y="-78.28553"
         x="580.71802">au un animal de companie sunt mai </tspan><tspan
         style="font-size:7.7828px"
         id="tspan823"
         y="-68.55703"
         x="580.71802">împliniți și simt că au un scop in lume. </tspan><tspan
         id="tspan811"
         y="-59.923325"
         x="580.71802" /></text><text
       y="-121.11977"
       x="579.97681"
       id="text648"
       style="font-variant:normal;font-weight:800;font-stretch:normal;font-size:13.9349px;font-family:'Montserrat ExtraBold';-inkscape-font-specification:Montserrat-ExtraBold;writing-mode:lr-tb;fill:#e6412d;fill-opacity:1;fill-rule:nonzero;stroke:none"
       transform="scale(1,-1)"><tspan
         y="-121.11977"
         x="579.97681"
         id="tspan646">ADAUGĂ IN VIATĂ</tspan><tspan
         id="tspan803"
         y="-103.70114"
         x="579.97681">UN SENS ȘI UN SCOP</tspan></text><g
       id="g650"><g
         clip-path="url(#clipPath656)"
         id="g652"><g
           transform="translate(527.1055,60.4277)"
           id="g658"><path
             id="path660"
             style="fill:#00a79d;fill-opacity:1;fill-rule:nonzero;stroke:none"
             d="m 0,0 c -10.655,0.726 -9.903,6.232 -14.651,11.987 -3.995,4.843 -15.897,6.417 -23.973,-4.238 -2.699,-3.56 -7.711,-5.484 -12.472,-3.632 -6.538,2.542 -18.888,-3.602 -18.888,-15.346 H 8.758 c 0,0 1.897,10.503 -8.758,11.229" /></g><g
           transform="translate(514.3181,57.695)"
           id="g662"><path
             id="path664"
             style="fill:#2ec6b7;fill-opacity:1;fill-rule:nonzero;stroke:none"
             d="m 0,0 c 8.062,0.55 7.493,4.716 11.085,9.07 3.024,3.664 12.029,4.855 18.14,-3.207 C 31.267,3.17 35.059,1.714 38.661,3.115 43.609,5.039 52.953,0.39 52.953,-8.497 h -59.58 c 0,0 -1.435,7.947 6.627,8.497" /></g><g
           transform="translate(539.9442,183.7852)"
           id="g666"><path
             id="path668"
             style="fill:#2ec6b7;fill-opacity:1;fill-rule:nonzero;stroke:none"
             d="m 0,0 c 0,-6.489 -5.261,-11.75 -11.75,-11.75 -6.489,0 -11.75,5.261 -11.75,11.75 0,6.489 5.261,11.75 11.75,11.75 C -5.261,11.75 0,6.489 0,0" /></g><g
           transform="translate(536.0294,192.5238)"
           id="g670"><path
             id="path672"
             style="fill:#00a79d;fill-opacity:1;fill-rule:nonzero;stroke:none"
             d="m 0,0 c 0.262,-0.975 0.415,-1.995 0.415,-3.053 0,-6.489 -5.261,-11.75 -11.75,-11.75 -3.015,0 -5.755,1.145 -7.836,3.012 1.346,-5.007 5.904,-8.698 11.336,-8.698 6.489,0 11.75,5.261 11.75,11.75 C 3.915,-5.264 2.398,-2.151 0,0" /></g><g
           transform="translate(474.5109,165.5675)"
           id="g674"><path
             id="path676"
             style="fill:#5a585e;fill-opacity:1;fill-rule:nonzero;stroke:none"
             d="M 0,0 C 0,0 -10.206,7.372 -13.357,6.476 -17.151,5.398 -7.425,-6.363 -6.734,-7.029 -6.043,-7.695 1.685,-0.935 0,0" /></g><g
           transform="translate(412.7628,110.3775)"
           id="g678"><path
             id="path680"
             style="fill:#6a686d;fill-opacity:1;fill-rule:nonzero;stroke:none"
             d="m 0,0 c 15.026,-6.187 -3.347,-8.094 -3.347,-8.094 0,0 -19.778,0.006 -27.653,13.384 0,0 2.833,-0.212 4.083,0 0,0 -10.583,8.253 -8.583,23.128 0,0 16.875,-20.75 35.5,-28.418" /></g><g
           transform="translate(482.1793,126.9761)"
           id="g682"><path
             id="path684"
             style="fill:#5a585e;fill-opacity:1;fill-rule:nonzero;stroke:none"
             d="m 0,0 c 0,0 6.567,-2.149 9.834,-12.551 l 14.632,-3.98 c 0,0 6.636,9.15 11.443,0.964 l -12.837,-7.537 c 0,0 -19.114,-1.288 -28.293,1.884 C -21.331,-15.652 -12.127,4.888 0,0" /></g><g
           transform="translate(437.4902,83.6145)"
           id="g686"><path
             id="path688"
             style="fill:#5a585e;fill-opacity:1;fill-rule:nonzero;stroke:none"
             d="m 0,0 c -2.066,-3.437 -18.646,-5.747 -29.282,-1.227 l -10.905,-12.467 c 0,0 8.906,-1.601 2.354,-9.683 l -10.676,8.655 c 0,0 10.081,28.48 29.792,35.692 C -10.633,23.927 6.006,9.989 0,0" /></g><g
           transform="translate(412.7603,111.8832)"
           id="g690"><path
             id="path692"
             style="fill:#6a686d;fill-opacity:1;fill-rule:nonzero;stroke:none"
             d="m 0,0 c 13.58,10.749 42.875,9.408 51.611,24.519 -6.747,13.265 -2.246,22.33 6.705,27.542 3.022,1.761 9.37,3.956 15.592,0.055 1.063,-0.667 2.788,-1.822 3.804,-1.744 1.016,0.079 6.788,4.434 8.313,4.552 1.524,0.117 2.45,-0.382 3.453,-4.377 0,0 4.292,-2.41 3.897,-5.892 0,0 3.435,-2.602 -0.984,-7.467 C 82.573,29.106 79.457,23.791 79.251,17.362 79.463,13.911 79.743,-4.915 61.803,-15.642 43.341,-26.681 21.346,-36.862 3.296,-28.431 -6.287,-23.955 -8.511,-6.736 0,0" /></g><g
           transform="translate(492.0867,151.5728)"
           id="g694"><path
             id="path696"
             style="fill:#fcd8b4;fill-opacity:1;fill-rule:nonzero;stroke:none"
             d="m 0,0 c 5.176,-4.652 -1.11,-13.902 -1.405,-18.652 -0.294,-4.75 -1.524,-11.882 -4.096,-17.253 -0.994,-2.076 0.975,-1.105 3.899,1.057 1.739,5.934 1.626,10.908 1.527,12.521 0.205,6.428 3.322,11.743 13.14,19.826 4.419,4.865 0.984,7.466 0.984,7.466 0.394,3.483 -3.897,5.893 -3.897,5.893 -1.003,3.995 -1.93,4.493 -3.454,4.376 -1.524,-0.117 -7.296,-4.473 -8.313,-4.551 0,0 -3.561,-6.031 1.615,-10.683" /></g><g
           transform="translate(492.0865,130.4525)"
           id="g698"><path
             id="path700"
             style="fill:#fcd8b4;fill-opacity:1;fill-rule:nonzero;stroke:none"
             d="M 0,0 V 0 C -0.037,-0.399 -0.062,-0.801 -0.075,-1.207 0.137,-4.658 0.417,-23.485 -17.524,-34.212 -31.918,-42.818 -48.46,-50.901 -63.605,-50.05 l -0.941,8.165 c 0,0 16.747,-4.083 39.592,8.606 C -2.108,-20.591 0,0 0,0" /></g><g
           transform="translate(499.2424,141.4396)"
           id="g702"><path
             id="path704"
             style="fill:#b26416;fill-opacity:1;fill-rule:nonzero;stroke:none"
             d="m 0,0 c 0.044,-0.132 0.043,-0.18 -0.032,-0.089 0,0 -0.037,-0.057 -0.091,-0.15 0.04,0.081 0.082,0.16 0.123,0.239" /></g><g
           transform="translate(484.0353,155.331)"
           id="g706"><path
             id="path708"
             style="fill:#48464c;fill-opacity:1;fill-rule:nonzero;stroke:none"
             d="M 0,0 C -0.15,0 -0.302,0.045 -0.434,0.139 -1.801,1.111 -2.25,2.835 -1.436,3.981 -1.026,4.557 -0.349,4.908 0.425,4.944 1.146,4.984 1.888,4.749 2.522,4.298 2.86,4.058 2.939,3.59 2.699,3.252 2.459,2.914 1.99,2.835 1.653,3.075 1.296,3.33 0.873,3.463 0.497,3.446 0.314,3.438 -0.021,3.383 -0.213,3.112 -0.543,2.648 -0.246,1.846 0.436,1.361 0.773,1.121 0.853,0.652 0.612,0.315 0.466,0.109 0.234,0 0,0" /></g><g
           transform="translate(502.2385,162.4304)"
           id="g710"><path
             id="path712"
             style="fill:#6a686d;fill-opacity:1;fill-rule:nonzero;stroke:none"
             d="m 0,0 c 0,0 -2.681,-1.325 -5.064,0.351 -2.382,1.675 0.098,4.31 2.558,5.023 C -0.046,6.087 1.149,2.497 0,0" /></g><g
           transform="translate(437.4256,86.2293)"
           id="g714"><path
             id="path716"
             style="fill:#6a686d;fill-opacity:1;fill-rule:nonzero;stroke:none"
             d="m 0,0 c 0.62,-3.962 -3.16,-11.051 -14.218,-14.408 l -0.366,-16.559 c 0,0 7.858,4.486 8.018,-5.917 l -13.742,-0.211 c 0,0 -12.257,34.892 -1.764,53.07 C -17.768,23.43 -1.802,11.515 0,0" /></g><g
           transform="translate(478.3224,112.1489)"
           id="g718"><path
             id="path720"
             style="fill:#6a686d;fill-opacity:1;fill-rule:nonzero;stroke:none"
             d="m 0,0 c 0,0 6.567,-2.149 9.834,-12.551 l 14.632,-3.98 c 0,0 6.636,9.15 11.443,0.964 l -12.837,-7.537 c 0,0 -19.114,-1.288 -28.293,1.884 C -21.331,-15.652 -12.127,4.888 0,0" /></g><g
           transform="translate(432.0925,98.1821)"
           id="g722"><path
             id="path724"
             style="fill:#5a585e;fill-opacity:1;fill-rule:nonzero;stroke:none"
             d="m 0,0 c 0,0 7.916,-3.977 9.046,-13.678 0.159,-1.369 0.162,-2.427 0.056,-3.25 C 7.289,-17.311 5.538,-17.575 3.733,-17.713 4.313,-15.685 7.696,-9.658 0,0" /></g><g
           transform="translate(487.0525,108.7189)"
           id="g726"><path
             id="path728"
             style="fill:#5a585e;fill-opacity:1;fill-rule:nonzero;stroke:none"
             d="M 0,0 C -0.542,-0.931 -1.143,-1.859 -1.807,-2.779 -5.865,3.008 -14.043,6.014 -14.043,6.014 -4.951,6.924 -0.037,0.052 0,0" /></g><g
           transform="translate(467.3388,162.4992)"
           id="g730"><path
             id="path732"
             style="fill:#6a686d;fill-opacity:1;fill-rule:nonzero;stroke:none"
             d="m 0,0 c 0,0 -8.807,4.194 -12.031,3.613 -4.915,-0.885 8.013,-15.656 8.69,-16.336 C -1.507,-14.562 4.996,-1.789 0,0" /></g><g
           transform="translate(465.2075,151.5728)"
           id="g734"><path
             id="path736"
             style="fill:#fcd8b4;fill-opacity:1;fill-rule:nonzero;stroke:none"
             d="M 0,0 C -2.423,2.335 -10.287,10.623 -7.157,10.933 -3.46,11.299 1.042,8.315 3.019,6.13 1.683,4.698 0.774,2.578 0,0" /></g><g
           transform="translate(528.9487,127.2137)"
           id="g738"><path
             id="path740"
             style="fill:#e6412d;fill-opacity:1;fill-rule:nonzero;stroke:none"
             d="m 0,0 h 33.771 c 2.514,0 4.552,2.038 4.552,4.551 v 16.728 c 0,2.513 -2.038,4.551 -4.552,4.551 L 0,25.83 c -2.514,0 -4.551,-2.038 -4.551,-4.551 V 4.551 C -4.551,2.038 -2.514,0 0,0" /></g><g
           transform="translate(545.8344,127.2137)"
           id="g742"><path
             id="path744"
             style="fill:#e6412d;fill-opacity:1;fill-rule:nonzero;stroke:none"
             d="M 0,0 -9.787,-9.787 V 0 Z" /></g><g
           transform="translate(550.9504,143.5964)"
           id="g746"><path
             id="path748"
             style="fill:#ffffff;fill-opacity:1;fill-rule:nonzero;stroke:none"
             d="M 0,0 C 0,-1.036 0.84,-1.875 1.875,-1.875 2.911,-1.875 3.75,-1.036 3.75,0 3.75,1.036 2.911,1.875 1.875,1.875 0.84,1.875 0,1.036 0,0" /></g><g
           transform="translate(536.968,143.5964)"
           id="g750"><path
             id="path752"
             style="fill:#ffffff;fill-opacity:1;fill-rule:nonzero;stroke:none"
             d="M 0,0 C 0,-1.036 0.84,-1.875 1.875,-1.875 2.911,-1.875 3.75,-1.036 3.75,0 3.75,1.036 2.911,1.875 1.875,1.875 0.84,1.875 0,1.036 0,0" /></g><g
           transform="translate(550.8052,138.7532)"
           id="g754"><path
             id="path756"
             style="fill:#ffffff;fill-opacity:1;fill-rule:nonzero;stroke:none"
             d="m 0,0 c 0,-2.785 -2.258,-5.043 -5.044,-5.043 -2.785,0 -5.043,2.258 -5.043,5.043 z" /></g><g
           transform="translate(506.1357,156.538)"
           id="g758"><path
             id="path760"
             style="fill:#ffffff;fill-opacity:1;fill-rule:nonzero;stroke:none"
             d="m 0,0 c 0.167,1.474 -0.508,2.753 -1.34,3.742 0,-10e-4 -5.416,-4.968 -5.6,-6.967 -0.184,-2 7.651,2.388 7.652,2.388 C 0.37,-0.287 0,0 0,0" /></g></g></g></g></svg>
